<?xml version="1.0" encoding="UTF-8"?>
<!DOCTYPE svg PUBLIC "-//W3C//DTD SVG 1.1//EN" "http://www.w3.org/Graphics/SVG/1.1/DTD/svg11.dtd">
<!-- Creator: CorelDRAW -->
<svg xmlns="http://www.w3.org/2000/svg" xml:space="preserve" width="6.82666in" height="6.82666in" style="shape-rendering:geometricPrecision; text-rendering:geometricPrecision; image-rendering:optimizeQuality; fill-rule:evenodd; clip-rule:evenodd"
viewBox="0 0 6.82666 6.82666"
 xmlns:xlink="http://www.w3.org/1999/xlink">
 <defs>
  <style type="text/css">
   <![CDATA[
    .fil34 {fill:#544A59}
    .fil30 {fill:#A37BB8}
    .fil1 {fill:#A882BD}
    .fil7 {fill:#AB86BE}
    .fil16 {fill:#AE8CC1}
    .fil0 {fill:#B392C5}
    .fil8 {fill:#B494C5}
    .fil17 {fill:#B799C8}
    .fil15 {fill:#B99BCA}
    .fil9 {fill:#BA9CCA}
    .fil3 {fill:#BEA3CD}
    .fil13 {fill:#C1A6CF}
    .fil31 {fill:#C2A8D0}
    .fil6 {fill:#C4A9D1}
    .fil2 {fill:#C4ABD2}
    .fil32 {fill:#C6ADD4}
    .fil21 {fill:#C6AED4}
    .fil14 {fill:#C9B3D6}
    .fil11 {fill:#CBB4D7}
    .fil10 {fill:#CEBADA}
    .fil19 {fill:#D0BCDB}
    .fil12 {fill:#D1BDDC}
    .fil5 {fill:#D2BEDC}
    .fil18 {fill:#D4C1DD}
    .fil28 {fill:#D5C4DF}
    .fil4 {fill:#D6C5DF}
    .fil20 {fill:#D8C7E1}
    .fil22 {fill:#D9C9E2}
    .fil27 {fill:#DACAE3}
    .fil23 {fill:#DBCBE4}
    .fil25 {fill:#DCCDE4}
    .fil24 {fill:#E0D3E7}
    .fil26 {fill:#E2D5E9}
    .fil29 {fill:#E5DBEC}
    .fil33 {fill:#544A59;fill-rule:nonzero}
   ]]>
  </style>
 </defs>
 <g id="Layer_x0020_1">
  <metadata id="CorelCorpID_0Corel-Layer"/>
  <g id="_454370256">
   <path id="_454374144" class="fil0" d="M3.41333 0.103323c1.82806,0 3.31001,1.48194 3.31001,3.31001 0,1.82806 -1.48195,3.31001 -3.31001,3.31001 -1.82806,0 -3.31001,-1.48195 -3.31001,-3.31001 0,-1.82806 1.48194,-3.31001 3.31001,-3.31001z"/>
   <g>
    <path id="_454373952" class="fil1" d="M0.848209 1.34939l-0.00888189 -0.0168976c0.0075748,-0.00935827 0.0150591,-0.0187835 0.0227323,-0.0280551l-0.0138504 0.0449528z"/>
    <path id="_454373808" class="fil2" d="M0.103453 3.42352l0.0735669 0.129205 -0.0561969 0.202602c-0.0111969,-0.109118 -0.0170315,-0.219815 -0.0173701,-0.331807z"/>
    <path id="_454374000" class="fil3" d="M0.17702 3.55273l-0.0735669 -0.129205c-1.1811e-005,-0.00340551 -0.000129921,-0.00678346 -0.000129921,-0.0101929 0,-0.0521693 0.0013622,-0.10402 0.00374803,-0.155598l0.0699488 0.294996z"/>
    <path id="_454374240" class="fil4" d="M1.18754 5.86326l0.776205 -0.144028 -0.0895472 0.624984c-0.249323,-0.131201 -0.479984,-0.293083 -0.686657,-0.480957z"/>
    <path id="_454374096" class="fil5" d="M0.877756 5.54078l0.569512 -2.23293 0.51648 2.41138 -0.776205 0.144028c-0.110374,-0.10035 -0.213795,-0.208189 -0.309787,-0.322472z"/>
    <path id="_454372896" class="fil6" d="M1.44727 3.30785l-1.24765 -0.689331c0.0193661,-0.0785591 0.0415315,-0.156004 0.0663937,-0.232244l1.25359 -0.278039 -0.0723386 1.19961z"/>
    <path id="_454373208" class="fil7" d="M0.839327 1.3325l0.00888189 0.0168976 -0.0255039 0.00374016c0.00550394,-0.00690945 0.0110669,-0.0137717 0.016622,-0.0206378z"/>
    <path id="_454373400" class="fil8" d="M0.822705 1.35313l0.0255039 -0.00374016 -0.185602 0.222425c0.0504134,-0.0751457 0.103866,-0.148067 0.160098,-0.218685z"/>
    <path id="_454372992" class="fil9" d="M0.662606 1.57182l0.185602 -0.222425 0.671398 0.758843 -1.25359 0.278039c0.0950315,-0.291311 0.229209,-0.564929 0.396591,-0.814457z"/>
    <path id="_454373424" class="fil2" d="M0.17702 3.55273l0 0 -0.0699488 -0.294996c0.0101535,-0.219339 0.0417362,-0.433051 0.0925512,-0.639213l1.24765 0.689331 -1.27025 0.244878z"/>
    <path id="_454373088" class="fil10" d="M0.206906 4.23799l1.24036 -0.930138 -0.569512 2.23293c-0.313394,-0.37313 -0.546094,-0.816291 -0.67085,-1.3028z"/>
    <path id="_454373256" class="fil11" d="M0.120823 3.75533l0.0561969 -0.202602 1.27025 -0.244878 -1.24036 0.930138c-0.0401811,-0.156705 -0.0691693,-0.31789 -0.0860827,-0.482657z"/>
    <polygon id="_454372968" class="fil12" points="2.78989,4.64199 1.44727,3.30785 2.33539,3.05079 "/>
    <polygon id="_454373184" class="fil13" points="2.33539,3.05079 1.51961,2.10824 2.08771,1.12905 "/>
    <polygon id="_454372920" class="fil14" points="1.44727,3.30785 1.51961,2.10824 2.33539,3.05079 "/>
    <path id="_454372800" class="fil15" d="M4.66968 2.62236l-0.660996 -1.18727 1.14087 -0.840169c0.0476378,0.0294094 0.0944528,0.0600157 0.140449,0.0917323l-0.620323 1.9357z"/>
    <path id="_454372584" class="fil16" d="M0.848209 1.34939l0.0138504 -0.0449528c0.166303,-0.200961 0.355913,-0.381909 0.56465,-0.538787l0.661004 0.363394 -1.2395 0.220346z"/>
    <polygon id="_454372752" class="fil17" points="1.51961,2.10824 1.51961,2.10824 0.848209,1.34939 2.08771,1.12905 "/>
    <path id="_454372464" class="fil7" d="M2.08771 1.12905l-0.661004 -0.363394c0.201051,-0.151094 0.419937,-0.279669 0.652819,-0.38235l0.00818504 0.745744z"/>
    <polygon id="_454372320" class="fil18" points="1.96375,5.71923 1.96375,5.71923 1.44727,3.30785 2.78989,4.64199 "/>
    <polygon id="_454372656" class="fil19" points="4.34954,4.32376 3.48196,3.73628 4.66968,2.62236 "/>
    <path id="_454372632" class="fil20" d="M1.8742 6.34421l0.0895472 -0.624984 0.60222 0.894453c-0.242614,-0.064126 -0.474323,-0.155039 -0.691768,-0.269469z"/>
    <polygon id="_454372728" class="fil21" points="3.48196,3.73628 4.00868,1.43509 4.66968,2.62236 "/>
    <path id="_454372200" class="fil7" d="M2.08771 1.12905l0 0 -0.00818504 -0.745744c0.115445,-0.0508937 0.23428,-0.0954921 0.356181,-0.133154l1.08752 0.230087 -1.43552 0.648811z"/>
    <polygon id="_454372296" class="fil5" points="2.78989,4.64199 2.78989,4.64199 2.33539,3.05079 3.48196,3.73628 "/>
    <polygon id="_454372824" class="fil22" points="3.62652,6.66162 1.96375,5.71923 2.78989,4.64199 "/>
    <path id="_454371840" class="fil23" d="M2.56597 6.61368l-0.60222 -0.894453 1.66277 0.94239 -0.117512 0.060248c-0.0317913,0.000905512 -0.0636693,0.00147244 -0.0956772,0.00147244 -0.292925,0 -0.576886,-0.0382283 -0.847362,-0.109657z"/>
    <polygon id="_454371672" class="fil14" points="3.48196,3.73628 3.48196,3.73628 2.33539,3.05079 4.00868,1.43509 "/>
    <polygon id="_454371504" class="fil3" points="2.33539,3.05079 2.33539,3.05079 2.08771,1.12905 4.00868,1.43509 "/>
    <polygon id="_454371576" class="fil0" points="4.00868,1.43509 2.08771,1.12905 3.52323,0.480236 "/>
    <path id="_454371480" class="fil24" d="M3.50901 6.72187l0.117512 -0.060248 0.0260551 0.0530433c-0.0475906,0.00339764 -0.0954409,0.00583858 -0.143567,0.00720472z"/>
    <polygon id="_454372032" class="fil25" points="3.62652,6.66162 3.62652,6.66162 2.78989,4.64199 4.25661,6.29452 "/>
    <polygon id="_454371384" class="fil22" points="4.25661,6.29452 4.25661,6.29452 2.78989,4.64199 4.34954,4.32376 "/>
    <path id="_454371744" class="fil26" d="M3.65257 6.71466l-0.0260551 -0.0530433 0.630087 -0.367094 -0.0383504 0.330047c-0.183016,0.0457244 -0.372024,0.0762559 -0.565681,0.0900906z"/>
    <polygon id="_454371960" class="fil18" points="2.78989,4.64199 3.48196,3.73628 4.34954,4.32376 "/>
    <path id="_454372056" class="fil16" d="M4.00868 1.43509l0 0 -0.485449 -0.954858 1.35448 -0.0359213c0.0931772,0.0460433 0.183878,0.096311 0.271843,0.15061l-1.14087 0.840169z"/>
    <polygon id="_454371216" class="fil23" points="4.25661,6.29452 4.34954,4.32376 5.32036,4.96022 "/>
    <path id="_454371120" class="fil1" d="M3.52323 0.480236l0 0 -1.08752 -0.230087c0.0435709,-0.0134488 0.0875669,-0.0259252 0.131882,-0.0376063l2.1773 0.169776c0.0448071,0.0197126 0.0890827,0.0403819 0.132823,0.0619961l-1.35448 0.0359213z"/>
    <path id="_454371024" class="fil27" d="M5.77474 5.73247l-0.454386 -0.772244 0.671232 -0.734311 0.0965079 1.13721c-0.0954488,0.130697 -0.200201,0.254146 -0.313354,0.369346z"/>
    <polygon id="_454370856" class="fil28" points="5.32036,4.96022 5.32036,4.96022 4.34954,4.32376 5.99159,4.22591 "/>
    <path id="_454370688" class="fil2" d="M5.99159 4.22591l-1.32191 -1.60355 1.41272 -1.16664c0.0535591,0.0728976 0.104224,0.148043 0.151787,0.225315l-0.242594 2.54488z"/>
    <path id="_454371144" class="fil17" d="M4.66968 2.62236l0.620323 -1.9357c0.305126,0.210409 0.573138,0.470685 0.792398,0.769063l-1.41272 1.16664z"/>
    <path id="_454370616" class="fil24" d="M4.96144 6.33947l-0.704839 -0.0449488 1.06375 -1.3343 0.454386 0.772244c-0.237354,0.241614 -0.511441,0.446969 -0.813299,0.607004z"/>
    <polygon id="_454370976" class="fil10" points="4.34954,4.32376 4.66968,2.62236 5.99159,4.22591 "/>
    <path id="_454370568" class="fil29" d="M4.21826 6.62457l0.0383504 -0.330047 0.704839 0.0449488c-0.232661,0.123339 -0.481748,0.219772 -0.743189,0.285098z"/>
    <path id="_454370880" class="fil30" d="M3.91797 0.141555l-1.12472 0.0200118c0.20089,-0.0380748 0.408114,-0.0582441 0.620079,-0.0582441 0.171575,0 0.340098,0.013063 0.504638,0.0382323z"/>
    <path id="_454371048" class="fil1" d="M4.74489 0.382319l-2.1773 -0.169776c0.0742283,-0.019563 0.1495,-0.0365197 0.225661,-0.0509764l1.12472 -0.0200118c0.28972,0.0443858 0.567028,0.126425 0.826917,0.240764z"/>
    <path id="_454370208" class="fil31" d="M5.99159 4.22591l0.242594 -2.54488c0.303311,0.492858 0.480957,1.07121 0.488626,1.69056l-0.73122 0.854323z"/>
    <path id="_454370160" class="fil32" d="M5.99159 4.22591l0.73122 -0.854323c0.000173228,0.0139134 0.000527559,0.0277835 0.000527559,0.0417402 0,0.224079 -0.0223976,0.442909 -0.0648386,0.654492l-0.666909 0.158091z"/>
    <path id="_454370064" class="fil20" d="M6.0881 5.36312l-0.0965079 -1.13721 0.48835 0.434898c-0.102228,0.250925 -0.234264,0.486508 -0.391843,0.702311z"/>
    <path id="_454369992" class="fil19" d="M6.47994 4.66081l-0.48835 -0.434898 0.666909 -0.158091c-0.0412126,0.20515 -0.10137,0.403433 -0.178559,0.592988z"/>
   </g>
   <path id="_454370040" class="fil33" d="M3.41333 0c0.942551,0 1.79589,0.382055 2.41358,0.999752 0.617697,0.617693 0.999752,1.47103 0.999752,2.41358 0,0.942551 -0.382055,1.79589 -0.999752,2.41358 -0.617693,0.617697 -1.47103,0.999752 -2.41358,0.999752 -0.942551,0 -1.79589,-0.382055 -2.41358,-0.999752 -0.617697,-0.617693 -0.999752,-1.47103 -0.999752,-2.41358 0,-0.942551 0.382055,-1.79589 0.999752,-2.41358 0.617693,-0.617697 1.47103,-0.999752 2.41358,-0.999752zm2.26731 1.14602c-0.580248,-0.580248 -1.38187,-0.939146 -2.26731,-0.939146 -0.885445,0 -1.68707,0.358898 -2.26731,0.939146 -0.580248,0.580248 -0.939146,1.38187 -0.939146,2.26731 0,0.885445 0.358898,1.68707 0.939146,2.26731 0.580248,0.580248 1.38187,0.939146 2.26731,0.939146 0.885445,0 1.68707,-0.358898 2.26731,-0.939146 0.580248,-0.580248 0.939146,-1.38187 0.939146,-2.26731 0,-0.885445 -0.358898,-1.68707 -0.939146,-2.26731z"/>
  </g>
  <g id="_454368240">
   <path id="_454369560" class="fil34" d="M2.87541 3.40645l0 1.04359c0,0.0459252 -0.0372362,0.0831614 -0.0831654,0.0831614l-0.172504 0c-0.00507087,-0.0992362 -0.0465197,-0.192791 -0.117173,-0.263449 -0.0755512,-0.0755472 -0.177276,-0.117705 -0.284138,-0.117705 -0.106866,0 -0.208594,0.0421575 -0.284142,0.117705 -0.0706575,0.0706575 -0.112102,0.164213 -0.117173,0.263449l-0.153732 0c-0.0459291,0 -0.0831654,-0.0372362 -0.0831654,-0.0831614l0 -0.538846c-0.000200787,-0.0130827 0.00268504,-0.0264055 0.00901969,-0.0388819l0.000188976 9.44882e-005 0.253024 -0.498035c0.0125551,-0.0300039 0.0421929,-0.0510866 0.076748,-0.0510866l0.873047 0c0.0459291,0 0.0831654,0.0372362 0.0831654,0.0831654zm-1.18224 0.436689l0.932752 0.0020315 0 -0.438724 -0.705295 0c-0.00155906,0.00135039 -0.0032874,0.00412598 -0.0040315,0.00559055l-0.223425 0.431102z"/>
   <path id="_454369608" class="fil34" d="M2.79225 3.00656l2.53792 0c0.0459291,0 0.0831654,0.0372362 0.0831654,0.0831614l0 1.36032c0,0.0459252 -0.0372362,0.0831614 -0.0831654,0.0831614l-0.473 0c-0.00507087,-0.0992362 -0.0465157,-0.192791 -0.117173,-0.263449 -0.0755472,-0.0755472 -0.177272,-0.117705 -0.284138,-0.117705 -0.046874,0 -0.0927598,0.00811024 -0.135878,0.0235906l-1.44456 -0.793228 0 0.0947047 1.35504 0.744071c-0.0208937,0.0141811 -0.0405709,0.0304055 -0.0587362,0.0485669 -0.0706535,0.0706575 -0.112098,0.164213 -0.117169,0.263449l-1.2623 0c-0.0459291,0 -0.0831654,-0.0372362 -0.0831654,-0.0831614l0 -1.36032c0,-0.0459252 0.0372362,-0.0831614 0.0831654,-0.0831614zm1.58146 0.166327l0.873295 0.479543 0 -0.0947087 -0.700823 -0.384835 -0.172472 0zm-0.0900984 0.236016l0.0294331 -0.0912008c0.00274409,-0.0115157 0.0112559,-0.0213622 0.0233465,-0.0252677 0.0184173,-0.00594488 0.0381772,0.00416929 0.044122,0.0225906l-0.0333543 0.0107677 0.0332717 -0.0106772 0.0302756 0.0937874 0.0954764 -0.000188976c0.0119016,-0.00106693 0.0240512,0.00398425 0.031563,0.0143661 0.0113465,0.015685 0.00783465,0.0376024 -0.00785039,0.0489488l-2.75591e-005 -4.33071e-005 -0.0798504 0.0577795 0.0252047 0.077063 0.0797087 0.000149606 0.029437 -0.0912087c0.00274803,-0.0115118 0.0112559,-0.0213543 0.0233425,-0.0252559 0.0184213,-0.00594488 0.0381772,0.00416535 0.044126,0.0225906l-0.0333583 0.0107677 0.0332756 -0.0106811 0.0302756 0.0937874 0.0954764 -0.000181102c0.0119055,-0.00107087 0.0240472,0.00398031 0.031563,0.0143622 0.0113465,0.0156811 0.00783071,0.0376024 -0.00785039,0.0489488l-3.14961e-005 -4.33071e-005 -0.0798465 0.0577795 0.0238071 0.0727874 0.0767244 0.000149606 0.029437 -0.0912126c0.00274409,-0.0115079 0.011252,-0.0213543 0.0233386,-0.0252559 0.0184213,-0.00594488 0.0381811,0.00416535 0.044126,0.0225866l-0.0333543 0.0107717 0.0332717 -0.0106772 0.0302756 0.0937874 0.0954764 -0.000185039c0.0119055,-0.00107087 0.0240512,0.00397638 0.031563,0.0143622 0.0113504,0.015685 0.00783465,0.0375984 -0.00785039,0.0489488l-2.75591e-005 -4.33071e-005 -0.0798465 0.0577795 0.0299449 0.0915669c0.00429528,0.010815 0.00311024,0.0235276 -0.00425197,0.033626 -0.0114094,0.0156378 -0.0333386,0.0190669 -0.0489803,0.00765748l9.44882e-005 -0.000129921 -0.0796693 -0.058122 -0.0769528 0.0561378c-0.00901181,0.00799213 -0.0219094,0.011126 -0.0341811,0.00711024 -0.0184016,-0.00601575 -0.028437,-0.025815 -0.0224213,-0.0442126l6.29921e-005 1.9685e-005 0.030626 -0.0936535 -0.0782874 -0.0566496c-0.00111417,-0.000720472 -0.0021811,-0.0015 -0.00320866,-0.00233858 -0.00101969,-0.000598425 -0.00201969,-0.00124803 -0.00299606,-0.00196063l9.44882e-005 -0.000125984 -0.0796772 -0.058126 -0.0769528 0.0561339c-0.00900787,0.00799606 -0.0219094,0.0111299 -0.0341811,0.00711811 -0.0183976,-0.00601969 -0.028437,-0.025815 -0.0224213,-0.0442126l6.29921e-005 1.5748e-005 0.0306299 -0.0936535 -0.0782913 -0.0566496c-0.00284252,-0.00183465 -0.00540551,-0.00407087 -0.0076063,-0.00662598 -0.00101575,-0.000590551 -0.00201181,-0.00124409 -0.00298031,-0.00195276l9.05512e-005 -0.000129921 -0.0796693 -0.0581181 -0.0769528 0.0561339c-0.00901575,0.00799213 -0.0219094,0.011122 -0.034185,0.00711024 -0.0183976,-0.00601575 -0.028437,-0.025811 -0.0224213,-0.0442126l6.69291e-005 2.3622e-005 0.030626 -0.0936575 -0.0782874 -0.0566496c-0.00969685,-0.00625197 -0.0161142,-0.0171575 -0.0160906,-0.0295512 3.93701e-005,-0.0193583 0.0157638,-0.0350236 0.0351181,-0.0349882l0 0.000137795 0.0985787 0.000188976zm-1.4082 -0.19502l2.09972 1.153 0.172472 0 -2.17439 -1.19399 -0.097811 0 0 0.0409961z"/>
   <path id="_454369056" class="fil34" d="M4.45585 4.23521c0.0879921,0 0.167665,0.0356772 0.225335,0.0933504 0.0576732,0.0576693 0.0933465,0.137339 0.0933465,0.225331 0,0.0879921 -0.0356732,0.167665 -0.0933465,0.225339 -0.0576732,0.0576693 -0.137343,0.0933425 -0.225335,0.0933425 -0.0879882,0 -0.167661,-0.0356732 -0.225335,-0.0933425 -0.0576732,-0.0576772 -0.0933465,-0.137346 -0.0933465,-0.225339 0,-0.0879882 0.0356732,-0.167661 0.0933465,-0.225331 0.0576732,-0.0576732 0.137346,-0.0933504 0.225335,-0.0933504zm0 0.240059c0.0209094,0 0.040811,0.00824803 0.0555906,0.0230315 0.0147835,0.0147795 0.0230315,0.0346811 0.0230315,0.0555906 0,0.0209094 -0.00824803,0.040811 -0.0230315,0.0555945 -0.0147795,0.0147795 -0.034685,0.0230276 -0.0555906,0.0230276 -0.0209094,0 -0.040811,-0.00824803 -0.0555945,-0.0230276 -0.0147795,-0.0147835 -0.0230276,-0.034685 -0.0230276,-0.0555945 0,-0.0209055 0.00824803,-0.040811 0.0230276,-0.0555906 0.0147835,-0.0147835 0.034685,-0.0230315 0.0555945,-0.0230315z"/>
   <path id="_454369656" class="fil33" d="M1.4965 4.36687c-0.0459291,0 -0.0831654,0.0372362 -0.0831654,0.0831654 0,0.0459291 0.0372362,0.0831654 0.0831654,0.0831654l0.172579 0c0.0459252,0 0.0831614,-0.0372362 0.0831614,-0.0831654 0,-0.0459291 -0.0372362,-0.0831654 -0.0831614,-0.0831654l-0.172579 0z"/>
   <path id="_454369416" class="fil33" d="M2.84474 1.99567c0,-0.0229606 -0.0186181,-0.0415827 -0.0415787,-0.0415827 -0.0229646,0 -0.0415827,0.018622 -0.0415827,0.0415827l0 1.08013c0,0.0229606 0.0186181,0.0415827 0.0415827,0.0415827 0.0229606,0 0.0415787,-0.018622 0.0415787,-0.0415827l0 -1.08013z"/>
   <polygon id="_454369320" class="fil33" points="3.54063,2.10222 2.84474,2.10222 2.84474,2.35 3.41902,2.35 "/>
   <path id="_454369440" class="fil33" d="M2.80315 2.01906l0.804012 0c0.0229606,0 0.0415827,0.018622 0.0415827,0.0415827 0,0.00795669 -0.00223622,0.0153898 -0.00611417,0.0217087l-0.160701 0.327429 -0.0371969 -0.0181929 0.0373307 0.0183228c-0.00732677,0.0149213 -0.0224094,0.0235 -0.038,0.0232598l-0.640913 0c-0.0229646,0 -0.0415827,-0.0186181 -0.0415827,-0.0415827l0 -0.330945c0,-0.0229606 0.0186181,-0.0415827 0.0415827,-0.0415827z"/>
   <path id="_454368672" class="fil34" d="M2.21843 4.23521c0.0879921,0 0.167661,0.0356772 0.225331,0.0933504 0.0576732,0.0576693 0.0933504,0.137339 0.0933504,0.225331 0,0.0879921 -0.0356772,0.167665 -0.0933504,0.225339 -0.0576732,0.0576693 -0.137343,0.0933425 -0.225331,0.0933425 -0.0879921,0 -0.167661,-0.0356732 -0.225339,-0.0933425 -0.0576732,-0.0576772 -0.0933465,-0.137346 -0.0933465,-0.225339 0,-0.0879882 0.0356732,-0.167661 0.0933465,-0.225331 0.0576732,-0.0576732 0.137346,-0.0933504 0.225339,-0.0933504zm0 0.240059c0.0209094,0 0.040811,0.00824803 0.0555906,0.0230315 0.0147835,0.0147795 0.0230276,0.0346811 0.0230276,0.0555906 0,0.0209094 -0.00824409,0.040811 -0.0230276,0.0555945 -0.0147795,0.0147795 -0.034685,0.0230276 -0.0555906,0.0230276 -0.0209094,0 -0.040815,-0.00824803 -0.0555945,-0.0230276 -0.0147795,-0.0147835 -0.0230276,-0.034685 -0.0230276,-0.0555945 0,-0.0209055 0.00824803,-0.040811 0.0230276,-0.0555906 0.0147795,-0.0147835 0.034685,-0.0230315 0.0555945,-0.0230315z"/>
  </g>
 </g>
</svg>
