<?xml version="1.0" encoding="UTF-8"?>
<!DOCTYPE svg PUBLIC "-//W3C//DTD SVG 1.1//EN" "http://www.w3.org/Graphics/SVG/1.1/DTD/svg11.dtd">
<!-- Creator: CorelDRAW -->
<svg xmlns="http://www.w3.org/2000/svg" xml:space="preserve" width="6.82666in" height="6.82666in" style="shape-rendering:geometricPrecision; text-rendering:geometricPrecision; image-rendering:optimizeQuality; fill-rule:evenodd; clip-rule:evenodd"
viewBox="0 0 6.82666 6.82666"
 xmlns:xlink="http://www.w3.org/1999/xlink">
 <defs>
  <style type="text/css">
   <![CDATA[
    .fil35 {fill:#505B6E}
    .fil31 {fill:#819DD0}
    .fil1 {fill:#88A3D3}
    .fil7 {fill:#8BA5D4}
    .fil16 {fill:#90A9D6}
    .fil24 {fill:#96ADD8}
    .fil8 {fill:#97AFD9}
    .fil17 {fill:#9DB2DB}
    .fil15 {fill:#9EB3DC}
    .fil0 {fill:#9FB5DD}
    .fil9 {fill:#A0B5DC}
    .fil3 {fill:#A6B9DD}
    .fil13 {fill:#AABCDF}
    .fil32 {fill:#ABBDDF}
    .fil6 {fill:#ACBFE0}
    .fil2 {fill:#ADC0E0}
    .fil33 {fill:#AFC1E1}
    .fil21 {fill:#B1C1E2}
    .fil14 {fill:#B4C4E3}
    .fil11 {fill:#B6C6E4}
    .fil10 {fill:#BBCAE5}
    .fil19 {fill:#BDCBE5}
    .fil12 {fill:#BECCE6}
    .fil5 {fill:#C0CEE6}
    .fil18 {fill:#C1CFE7}
    .fil29 {fill:#C4D1E8}
    .fil4 {fill:#C5D2E9}
    .fil20 {fill:#C8D3EA}
    .fil22 {fill:#C9D5EA}
    .fil28 {fill:#CAD5EB}
    .fil23 {fill:#CAD6EB}
    .fil26 {fill:#CED8EB}
    .fil25 {fill:#D3DCEE}
    .fil27 {fill:#D5DDEE}
    .fil30 {fill:#DAE2F0}
    .fil34 {fill:#505B6E;fill-rule:nonzero}
   ]]>
  </style>
 </defs>
 <g id="Layer_x0020_1">
  <metadata id="CorelCorpID_0Corel-Layer"/>
  <g id="_426237192">
   <path id="_426241008" class="fil0" d="M3.41333 0.103323c1.82806,0 3.31001,1.48194 3.31001,3.31001 0,1.82806 -1.48195,3.31001 -3.31001,3.31001 -1.82806,0 -3.31001,-1.48195 -3.31001,-3.31001 0,-1.82806 1.48194,-3.31001 3.31001,-3.31001z"/>
   <g>
    <path id="_426240768" class="fil1" d="M0.848118 1.34935l-0.00883465 -0.0168031c0.00753937,-0.00931496 0.0149882,-0.0187008 0.022626,-0.0279331l-0.0137913 0.0447362z"/>
    <path id="_426240960" class="fil2" d="M0.103453 3.42362l0.0735079 0.129094 -0.0561614 0.202437c-0.011185,-0.109024 -0.0170039,-0.219634 -0.0173465,-0.331531z"/>
    <path id="_426241176" class="fil3" d="M0.176961 3.55271l-0.0735079 -0.129094c-1.1811e-005,-0.00343701 -0.000129921,-0.00684646 -0.000129921,-0.0102874 0,-0.0520906 0.0013622,-0.103858 0.00374016,-0.155358l0.0698976 0.29474z"/>
    <path id="_426240624" class="fil4" d="M1.18753 5.86325l0.77622 -0.144016 -0.0895591 0.624976c-0.249323,-0.131205 -0.479988,-0.293087 -0.686661,-0.480961z"/>
    <path id="_426240696" class="fil5" d="M0.877665 5.54067l0.569555 -2.23284 0.516531 2.4114 -0.77622 0.144016c-0.110406,-0.100378 -0.21385,-0.208252 -0.309866,-0.322575z"/>
    <path id="_426241224" class="fil6" d="M1.44722 3.30783l-1.2476 -0.689287c0.0193701,-0.0785866 0.0415433,-0.156059 0.0664173,-0.232323l1.25352 -0.278016 -0.0723386 1.19963z"/>
    <path id="_426240264" class="fil7" d="M0.839283 1.33255l0.00883465 0.0168031 -0.0253661 0.00372047c0.00547244,-0.00687402 0.0110039,-0.0136969 0.0165315,-0.0205236z"/>
    <path id="_426240144" class="fil8" d="M0.822752 1.35307l0.0253661 -0.00372047 -0.185051 0.22176c0.0502874,-0.0749213 0.103606,-0.147622 0.159685,-0.218039z"/>
    <path id="_426239952" class="fil9" d="M0.663067 1.57111l0.185051 -0.22176 0.671441 0.75885 -1.25352 0.278016c0.0951181,-0.291567 0.229441,-0.565406 0.397031,-0.815106z"/>
    <path id="_426239760" class="fil2" d="M0.176961 3.55271l0 0 -0.0698976 -0.29474c0.0101417,-0.219417 0.0417244,-0.433201 0.0925551,-0.639429l1.2476 0.689287 -1.27026 0.244882z"/>
    <path id="_426239856" class="fil10" d="M0.20689 4.23793l1.24033 -0.930094 -0.569555 2.23284c-0.313362,-0.373122 -0.546035,-0.816268 -0.670776,-1.30275z"/>
    <path id="_426240384" class="fil11" d="M0.120799 3.75515l0.0561614 -0.202437 1.27026 -0.244882 -1.24033 0.930094c-0.040189,-0.15674 -0.0691811,-0.317969 -0.0860906,-0.482776z"/>
    <polygon id="_426240000" class="fil12" points="2.78978,4.64198 1.44722,3.30783 2.33528,3.05077 "/>
    <polygon id="_426239712" class="fil13" points="2.33528,3.05077 1.51956,2.1082 2.08767,1.12901 "/>
    <polygon id="_426239832" class="fil14" points="1.44722,3.30783 1.51956,2.1082 2.33528,3.05077 "/>
    <path id="_426240288" class="fil15" d="M4.66963 2.62234l-0.661004 -1.18728 1.14099 -0.840094c0.047626,0.0294016 0.0944252,0.06 0.140406,0.0917087l-0.62039 1.93567z"/>
    <path id="_426240240" class="fil16" d="M0.848118 1.34935l0.0137913 -0.0447362c0.166346,-0.201043 0.356024,-0.382063 0.564839,-0.538992l0.660925 0.363382 -1.23956 0.220346z"/>
    <polygon id="_426239520" class="fil17" points="1.51956,2.1082 1.51956,2.1082 0.848118,1.34935 2.08767,1.12901 "/>
    <path id="_426239424" class="fil7" d="M2.08767 1.12901l-0.660925 -0.363382c0.201039,-0.151083 0.419906,-0.279646 0.652772,-0.382319l0.00815354 0.745701z"/>
    <polygon id="_426239304" class="fil18" points="1.96375,5.71923 1.96375,5.71923 1.44722,3.30783 2.78978,4.64198 "/>
    <polygon id="_426238968" class="fil19" points="4.34952,4.32375 3.4819,3.73626 4.66963,2.62234 "/>
    <path id="_426239688" class="fil20" d="M1.87419 6.34421l0.0895591 -0.624976 0.602114 0.894421c-0.242583,-0.064126 -0.474256,-0.155031 -0.691673,-0.269445z"/>
    <polygon id="_426239256" class="fil21" points="3.4819,3.73626 4.00862,1.43506 4.66963,2.62234 "/>
    <path id="_426239160" class="fil7" d="M2.08767 1.12901l0 0 -0.00815354 -0.745701c0.115476,-0.0509055 0.234346,-0.0955197 0.356276,-0.133185l1.08737 0.230067 -1.43549 0.648819z"/>
    <polygon id="_426239328" class="fil5" points="2.78978,4.64198 2.78978,4.64198 2.33528,3.05077 3.4819,3.73626 "/>
    <polygon id="_426239472" class="fil22" points="3.62645,6.66163 1.96375,5.71923 2.78978,4.64198 "/>
    <path id="_426239616" class="fil23" d="M2.56587 6.61365l-0.602114 -0.894421 1.6627 0.942402 -0.117492 0.0602362c-0.0317756,0.000901575 -0.0636339,0.0014685 -0.0956299,0.0014685 -0.292961,0 -0.576957,-0.0382402 -0.847465,-0.109685z"/>
    <polygon id="_426238392" class="fil14" points="3.4819,3.73626 3.4819,3.73626 2.33528,3.05077 4.00862,1.43506 "/>
    <polygon id="_426238632" class="fil3" points="2.33528,3.05077 2.33528,3.05077 2.08767,1.12901 4.00862,1.43506 "/>
    <polygon id="_426238584" class="fil24" points="4.00862,1.43506 2.08767,1.12901 3.52317,0.480189 "/>
    <path id="_426238296" class="fil25" d="M3.50896 6.72187l0.117492 -0.0602362 0.0260472 0.0530354c-0.0475787,0.00340157 -0.0954252,0.00583465 -0.143539,0.00720079z"/>
    <polygon id="_426238272" class="fil26" points="3.62645,6.66163 3.62645,6.66163 2.78978,4.64198 4.25651,6.29437 "/>
    <polygon id="_426238776" class="fil22" points="4.25651,6.29437 4.25651,6.29437 2.78978,4.64198 4.34952,4.32375 "/>
    <path id="_426238680" class="fil27" d="M3.6525 6.71467l-0.0260472 -0.0530354 0.630055 -0.367264 -0.0383661 0.330228c-0.183004,0.0457126 -0.372,0.0762402 -0.565642,0.0900709z"/>
    <polygon id="_426238344" class="fil18" points="2.78978,4.64198 3.4819,3.73626 4.34952,4.32375 "/>
    <path id="_426238464" class="fil16" d="M4.00862 1.43506l0 0 -0.485457 -0.954866 1.35469 -0.0358071c0.0931457,0.0460354 0.183823,0.0962913 0.27176,0.150579l-1.14099 0.840094z"/>
    <polygon id="_426238512" class="fil23" points="4.25651,6.29437 4.34952,4.32375 5.32031,4.96022 "/>
    <path id="_426238728" class="fil1" d="M3.52317 0.480189l0 0 -1.08737 -0.230067c0.043563,-0.0134488 0.0875472,-0.0259173 0.131858,-0.0375984l2.17747 0.169902c0.0447717,0.0197008 0.0890197,0.0403583 0.132724,0.0619567l-1.35469 0.0358071z"/>
    <path id="_426238032" class="fil28" d="M5.77474 5.73247l-0.454433 -0.772248 0.67128 -0.734358 0.0965276 1.13723c-0.0954567,0.130705 -0.200213,0.254161 -0.313374,0.369374z"/>
    <polygon id="_426237960" class="fil29" points="5.32031,4.96022 5.32031,4.96022 4.34952,4.32375 5.99159,4.22586 "/>
    <path id="_426237696" class="fil2" d="M5.99159 4.22586l-1.32196 -1.60352 1.41274 -1.16666c0.0535591,0.0728976 0.104224,0.148031 0.151787,0.225303l-0.242563 2.54488z"/>
    <path id="_426238056" class="fil17" d="M4.66963 2.62234l0.62039 -1.93567c0.305106,0.210398 0.573102,0.470657 0.79235,0.769008l-1.41274 1.16666z"/>
    <path id="_426237936" class="fil25" d="M4.96159 6.33939l-0.705087 -0.0450197 1.0638 -1.33415 0.454433 0.772248c-0.237315,0.241575 -0.51135,0.446898 -0.81315,0.606921z"/>
    <polygon id="_426237408" class="fil10" points="4.34952,4.32375 4.66963,2.62234 5.99159,4.22586 "/>
    <path id="_426238152" class="fil30" d="M4.21814 6.6246l0.0383661 -0.330228 0.705087 0.0450197c-0.23274,0.123394 -0.481913,0.21987 -0.743453,0.285209z"/>
    <path id="_426237744" class="fil31" d="M3.91771 0.141512l-1.12419 0.0200039c0.200803,-0.0380433 0.407937,-0.0581929 0.619807,-0.0581929 0.171488,0 0.339921,0.0130433 0.504382,0.038189z"/>
    <path id="_426237864" class="fil1" d="M4.74513 0.382425l-2.17747 -0.169902c0.0742953,-0.0195787 0.149634,-0.0365433 0.22587,-0.0510079l1.12419 -0.0200039c0.289902,0.0443937 0.567378,0.126484 0.827413,0.240913z"/>
    <path id="_426237816" class="fil32" d="M5.99159 4.22586l0.242563 -2.54488c0.303327,0.492858 0.480972,1.07121 0.488654,1.69056l-0.731217 0.854327z"/>
    <path id="_426237312" class="fil33" d="M5.99159 4.22586l0.731217 -0.854327c0.000173228,0.0139331 0.000531496,0.0278228 0.000531496,0.0417953 0,0.224063 -0.0223937,0.442878 -0.0648307,0.654453l-0.666917 0.158079z"/>
    <path id="_426236976" class="fil20" d="M6.08812 5.36309l-0.0965276 -1.13723 0.488366 0.434909c-0.102224,0.250929 -0.23426,0.486516 -0.391839,0.702323z"/>
    <path id="_426237360" class="fil19" d="M6.47996 4.66077l-0.488366 -0.434909 0.666917 -0.158079c-0.0412047,0.20515 -0.101362,0.403433 -0.178551,0.592988z"/>
   </g>
   <path id="_426236832" class="fil34" d="M3.41333 0c0.942551,0 1.79589,0.382055 2.41358,0.999752 0.617697,0.617693 0.999752,1.47103 0.999752,2.41358 0,0.942551 -0.382055,1.79589 -0.999752,2.41358 -0.617693,0.617697 -1.47103,0.999752 -2.41358,0.999752 -0.942551,0 -1.79589,-0.382055 -2.41358,-0.999752 -0.617697,-0.617693 -0.999752,-1.47103 -0.999752,-2.41358 0,-0.942551 0.382055,-1.79589 0.999752,-2.41358 0.617693,-0.617697 1.47103,-0.999752 2.41358,-0.999752zm2.26731 1.14602c-0.580248,-0.580248 -1.38187,-0.939146 -2.26731,-0.939146 -0.885445,0 -1.68707,0.358898 -2.26731,0.939146 -0.580248,0.580248 -0.939146,1.38187 -0.939146,2.26731 0,0.885445 0.358898,1.68707 0.939146,2.26731 0.580248,0.580248 1.38187,0.939146 2.26731,0.939146 0.885445,0 1.68707,-0.358898 2.26731,-0.939146 0.580248,-0.580248 0.939146,-1.38187 0.939146,-2.26731 0,-0.885445 -0.358898,-1.68707 -0.939146,-2.26731z"/>
  </g>
  <g id="_426235488">
   <path id="_426237384" class="fil34" d="M3.46703 1.80412c0,-0.0230118 -0.0186575,-0.0416693 -0.0416693,-0.0416693 -0.0230118,0 -0.0416732,0.0186575 -0.0416732,0.0416693l0 0.482795c0,0.0230118 0.0186614,0.0416732 0.0416732,0.0416732 0.0230118,0 0.0416693,-0.0186614 0.0416693,-0.0416732l0 -0.482795z"/>
   <path id="_426236784" class="fil35" d="M2.50153 2.63111l0.895626 -0.37098 -0.000102362 -0.000251969c0.0234882,-0.00973228 0.048878,-0.00791732 0.0698661,0.00281496l0.895681 0.371 0.000311024 -0.000165354c0.0425236,0.0176142 0.0627165,0.0663661 0.0451063,0.10889 -0.0135157,0.032626 -0.0453622,0.0521063 -0.0786614,0.0514488l-1.80249 0c-0.0460276,0 -0.0833425,-0.037315 -0.0833425,-0.0833425 0,-0.0371929 0.0243661,-0.068689 0.0580039,-0.0794134zm0.927425 -0.180567c0.0520866,0 0.094315,0.0422244 0.094315,0.094315 0,0.0520906 -0.0422283,0.0943189 -0.094315,0.0943189 -0.0520906,0 -0.0943189,-0.0422283 -0.0943189,-0.0943189 0,-0.0520906 0.0422283,-0.094315 0.0943189,-0.094315z"/>
   <path id="_426236616" class="fil35" d="M4.18059 3.16285l1.1494 0 0.0833425 0 0 0.0833425 0 1.08081 0 0.0833386 -0.0833425 3.93701e-006 -3.83332 0 -0.0833386 -3.93701e-006 0 -0.0833386 0 -1.08081 0 -0.0833425 0.0833386 0 1.25856 0 0 0.166685 -0.0737598 0 0 0.914134 1.43293 0 0 -1.05411 0.0661929 0 0 -0.0267047zm0.317287 0.329465l0 0.252768 -0.166685 0 0 -0.252768 0.166685 0zm-2.00244 0.335315l0 0.252768 -0.166685 0 0 -0.252768 0.166685 0zm-0.28974 0l0 0.252768 -0.166681 0 0 -0.252768 0.166681 0zm-0.289736 0l0 0.252768 -0.166685 0 0 -0.252768 0.166685 0zm0.579476 -0.335315l0 0.252768 -0.166685 0 0 -0.252768 0.166685 0zm-0.28974 0l0 0.252768 -0.166681 0 0 -0.252768 0.166681 0zm-0.289736 0l0 0.252768 -0.166685 0 0 -0.252768 0.166685 0zm3.1614 0.335315l0 0.252768 -0.166685 0 0 -0.252768 0.166685 0zm-0.28974 0l0 0.252768 -0.166681 0 0 -0.252768 0.166681 0zm-0.289736 0l0 0.252768 -0.166685 0 0 -0.252768 0.166685 0zm0.579476 -0.335315l0 0.252768 -0.166685 0 0 -0.252768 0.166685 0zm-0.28974 0l0 0.252768 -0.166681 0 0 -0.252768 0.166681 0z"/>
   <polygon id="_426236496" class="fil34" points="2.78959,2.74943 2.78959,4.31399 2.62291,4.31399 2.62291,2.74943 "/>
   <polygon id="_426236328" class="fil34" points="4.23498,2.74943 4.23498,4.31399 4.06829,4.31399 4.06829,2.74943 "/>
   <polygon id="_426236256" class="fil34" points="2.64047,4.40106 4.18619,4.40106 4.18619,4.56775 2.64047,4.56775 "/>
   <polygon id="_426236304" class="fil34" points="2.49626,4.64618 4.3304,4.64618 4.3304,4.81679 2.49626,4.81679 "/>
   <polygon id="_426235896" class="fil34" points="2.33114,4.89359 4.49552,4.89359 4.49552,5.06421 2.33114,5.06421 "/>
   <path id="_426236160" class="fil34" d="M3.06598 1.79149l0.359378 0c0.0230118,0 0.0416732,0.0186575 0.0416732,0.0416693l0 0.147925c0,0.0230118 -0.0186614,0.0416732 -0.0416732,0.0416732l-0.286102 0c-0.015622,0.000240157 -0.0307402,-0.00835433 -0.0380787,-0.023311l0.0374094 -0.0183622 -0.0372756 0.0182323 -0.070878 -0.144406c-0.00388189,-0.00633071 -0.00612205,-0.0137795 -0.00612205,-0.021752 0,-0.0230118 0.0186575,-0.0416693 0.0416693,-0.0416693z"/>
   <g>
    <polygon id="_426236112" class="fil34" points="3.87234,2.71134 3.87234,4.33757 3.74734,4.33757 3.74734,2.71134 "/>
    <polygon id="_426236280" class="fil34" points="3.49145,2.71134 3.49145,4.33757 3.36645,4.33757 3.36645,2.71134 "/>
    <polygon id="_426236376" class="fil34" points="3.11057,2.71134 3.11057,4.33757 2.98556,4.33757 2.98556,2.71134 "/>
   </g>
  </g>
 </g>
</svg>
