<?xml version="1.0" encoding="UTF-8"?>
<!DOCTYPE svg PUBLIC "-//W3C//DTD SVG 1.1//EN" "http://www.w3.org/Graphics/SVG/1.1/DTD/svg11.dtd">
<!-- Creator: CorelDRAW -->
<svg xmlns="http://www.w3.org/2000/svg" xml:space="preserve" width="6.82666in" height="6.82666in" style="shape-rendering:geometricPrecision; text-rendering:geometricPrecision; image-rendering:optimizeQuality; fill-rule:evenodd; clip-rule:evenodd"
viewBox="0 0 6.82666 6.82666"
 xmlns:xlink="http://www.w3.org/1999/xlink">
 <defs>
  <style type="text/css">
   <![CDATA[
    .fil34 {fill:none}
    .fil30 {fill:#A37BB8}
    .fil1 {fill:#A882BD}
    .fil7 {fill:#AB86BE}
    .fil16 {fill:#AE8CC1}
    .fil0 {fill:#B392C5}
    .fil8 {fill:#B494C5}
    .fil17 {fill:#B799C8}
    .fil15 {fill:#B99BCA}
    .fil9 {fill:#BA9CCA}
    .fil3 {fill:#BEA3CD}
    .fil13 {fill:#C1A6CF}
    .fil31 {fill:#C2A8D0}
    .fil6 {fill:#C4A9D1}
    .fil2 {fill:#C4ABD2}
    .fil32 {fill:#C6ADD4}
    .fil21 {fill:#C6AED4}
    .fil14 {fill:#C9B3D6}
    .fil11 {fill:#CBB4D7}
    .fil10 {fill:#CEBADA}
    .fil19 {fill:#D0BCDB}
    .fil12 {fill:#D1BDDC}
    .fil5 {fill:#D2BEDC}
    .fil18 {fill:#D4C1DD}
    .fil28 {fill:#D5C4DF}
    .fil4 {fill:#D6C5DF}
    .fil20 {fill:#D8C7E1}
    .fil22 {fill:#D9C9E2}
    .fil27 {fill:#DACAE3}
    .fil23 {fill:#DBCBE4}
    .fil25 {fill:#DCCDE4}
    .fil24 {fill:#E0D3E7}
    .fil26 {fill:#E2D5E9}
    .fil29 {fill:#E5DBEC}
    .fil33 {fill:#544A59;fill-rule:nonzero}
   ]]>
  </style>
 </defs>
 <g id="Layer_x0020_1">
  <metadata id="CorelCorpID_0Corel-Layer"/>
  <g id="_421282400">
   <path id="_421286336" class="fil0" d="M3.41333 0.103323c1.82806,0 3.31001,1.48194 3.31001,3.31001 0,1.82806 -1.48195,3.31001 -3.31001,3.31001 -1.82806,0 -3.31001,-1.48195 -3.31001,-3.31001 0,-1.82806 1.48194,-3.31001 3.31001,-3.31001z"/>
   <g>
    <path id="_421285808" class="fil1" d="M0.848209 1.34939l-0.00888189 -0.0168976c0.0075748,-0.00935827 0.0150591,-0.0187835 0.0227323,-0.0280551l-0.0138504 0.0449528z"/>
    <path id="_421285712" class="fil2" d="M0.103453 3.42352l0.0735669 0.129205 -0.0561969 0.202602c-0.0111969,-0.109118 -0.0170315,-0.219815 -0.0173701,-0.331807z"/>
    <path id="_421285520" class="fil3" d="M0.17702 3.55273l-0.0735669 -0.129205c-1.1811e-005,-0.00340551 -0.000129921,-0.00678346 -0.000129921,-0.0101929 0,-0.0521693 0.0013622,-0.10402 0.00374803,-0.155598l0.0699488 0.294996z"/>
    <path id="_421285904" class="fil4" d="M1.18754 5.86326l0.776205 -0.144028 -0.0895472 0.624984c-0.249323,-0.131201 -0.479984,-0.293083 -0.686657,-0.480957z"/>
    <path id="_421285976" class="fil5" d="M0.877756 5.54078l0.569512 -2.23293 0.51648 2.41138 -0.776205 0.144028c-0.110374,-0.10035 -0.213795,-0.208189 -0.309787,-0.322472z"/>
    <path id="_421286240" class="fil6" d="M1.44727 3.30785l-1.24765 -0.689331c0.0193661,-0.0785591 0.0415315,-0.156004 0.0663937,-0.232244l1.25359 -0.278039 -0.0723386 1.19961z"/>
    <path id="_421285856" class="fil7" d="M0.839327 1.3325l0.00888189 0.0168976 -0.0255039 0.00374016c0.00550394,-0.00690945 0.0110669,-0.0137717 0.016622,-0.0206378z"/>
    <path id="_421286072" class="fil8" d="M0.822705 1.35313l0.0255039 -0.00374016 -0.185602 0.222425c0.0504134,-0.0751457 0.103866,-0.148067 0.160098,-0.218685z"/>
    <path id="_421285688" class="fil9" d="M0.662606 1.57182l0.185602 -0.222425 0.671398 0.758843 -1.25359 0.278039c0.0950315,-0.291311 0.229209,-0.564929 0.396591,-0.814457z"/>
    <path id="_421285592" class="fil2" d="M0.17702 3.55273l0 0 -0.0699488 -0.294996c0.0101535,-0.219339 0.0417362,-0.433051 0.0925512,-0.639213l1.24765 0.689331 -1.27025 0.244878z"/>
    <path id="_421285952" class="fil10" d="M0.206906 4.23799l1.24036 -0.930138 -0.569512 2.23293c-0.313394,-0.37313 -0.546094,-0.816291 -0.67085,-1.3028z"/>
    <path id="_421284776" class="fil11" d="M0.120823 3.75533l0.0561969 -0.202602 1.27025 -0.244878 -1.24036 0.930138c-0.0401811,-0.156705 -0.0691693,-0.31789 -0.0860827,-0.482657z"/>
    <polygon id="_421285424" class="fil12" points="2.78989,4.64199 1.44727,3.30785 2.33539,3.05079 "/>
    <polygon id="_421284824" class="fil13" points="2.33539,3.05079 1.51961,2.10824 2.08771,1.12905 "/>
    <polygon id="_421285352" class="fil14" points="1.44727,3.30785 1.51961,2.10824 2.33539,3.05079 "/>
    <path id="_421284728" class="fil15" d="M4.66968 2.62236l-0.660996 -1.18727 1.14087 -0.840169c0.0476378,0.0294094 0.0944528,0.0600157 0.140449,0.0917323l-0.620323 1.9357z"/>
    <path id="_421285136" class="fil16" d="M0.848209 1.34939l0.0138504 -0.0449528c0.166303,-0.200961 0.355913,-0.381909 0.56465,-0.538787l0.661004 0.363394 -1.2395 0.220346z"/>
    <polygon id="_421285280" class="fil17" points="1.51961,2.10824 1.51961,2.10824 0.848209,1.34939 2.08771,1.12905 "/>
    <path id="_421285016" class="fil7" d="M2.08771 1.12905l-0.661004 -0.363394c0.201051,-0.151094 0.419937,-0.279669 0.652819,-0.38235l0.00818504 0.745744z"/>
    <polygon id="_421284992" class="fil18" points="1.96375,5.71923 1.96375,5.71923 1.44727,3.30785 2.78989,4.64199 "/>
    <polygon id="_421285448" class="fil19" points="4.34954,4.32376 3.48196,3.73628 4.66968,2.62236 "/>
    <path id="_421284008" class="fil20" d="M1.8742 6.34421l0.0895472 -0.624984 0.60222 0.894453c-0.242614,-0.064126 -0.474323,-0.155039 -0.691768,-0.269469z"/>
    <polygon id="_421284656" class="fil21" points="3.48196,3.73628 4.00868,1.43509 4.66968,2.62236 "/>
    <path id="_421284608" class="fil7" d="M2.08771 1.12905l0 0 -0.00818504 -0.745744c0.115445,-0.0508937 0.23428,-0.0954921 0.356181,-0.133154l1.08752 0.230087 -1.43552 0.648811z"/>
    <polygon id="_421284488" class="fil5" points="2.78989,4.64199 2.78989,4.64199 2.33539,3.05079 3.48196,3.73628 "/>
    <polygon id="_421284176" class="fil22" points="3.62652,6.66162 1.96375,5.71923 2.78989,4.64199 "/>
    <path id="_421284080" class="fil23" d="M2.56597 6.61368l-0.60222 -0.894453 1.66277 0.94239 -0.117512 0.060248c-0.0317913,0.000905512 -0.0636693,0.00147244 -0.0956772,0.00147244 -0.292925,0 -0.576886,-0.0382283 -0.847362,-0.109657z"/>
    <polygon id="_421284416" class="fil14" points="3.48196,3.73628 3.48196,3.73628 2.33539,3.05079 4.00868,1.43509 "/>
    <polygon id="_421284056" class="fil3" points="2.33539,3.05079 2.33539,3.05079 2.08771,1.12905 4.00868,1.43509 "/>
    <polygon id="_421284224" class="fil0" points="4.00868,1.43509 2.08771,1.12905 3.52323,0.480236 "/>
    <path id="_421284152" class="fil24" d="M3.50901 6.72187l0.117512 -0.060248 0.0260551 0.0530433c-0.0475906,0.00339764 -0.0954409,0.00583858 -0.143567,0.00720472z"/>
    <polygon id="_421283984" class="fil25" points="3.62652,6.66162 3.62652,6.66162 2.78989,4.64199 4.25661,6.29452 "/>
    <polygon id="_421283840" class="fil22" points="4.25661,6.29452 4.25661,6.29452 2.78989,4.64199 4.34954,4.32376 "/>
    <path id="_421283744" class="fil26" d="M3.65257 6.71466l-0.0260551 -0.0530433 0.630087 -0.367094 -0.0383504 0.330047c-0.183016,0.0457244 -0.372024,0.0762559 -0.565681,0.0900906z"/>
    <polygon id="_421283912" class="fil18" points="2.78989,4.64199 3.48196,3.73628 4.34954,4.32376 "/>
    <path id="_421283576" class="fil16" d="M4.00868 1.43509l0 0 -0.485449 -0.954858 1.35448 -0.0359213c0.0931772,0.0460433 0.183878,0.096311 0.271843,0.15061l-1.14087 0.840169z"/>
    <polygon id="_421283432" class="fil23" points="4.25661,6.29452 4.34954,4.32376 5.32036,4.96022 "/>
    <path id="_421283216" class="fil1" d="M3.52323 0.480236l0 0 -1.08752 -0.230087c0.0435709,-0.0134488 0.0875669,-0.0259252 0.131882,-0.0376063l2.1773 0.169776c0.0448071,0.0197126 0.0890827,0.0403819 0.132823,0.0619961l-1.35448 0.0359213z"/>
    <path id="_421283672" class="fil27" d="M5.77474 5.73247l-0.454386 -0.772244 0.671232 -0.734311 0.0965079 1.13721c-0.0954488,0.130697 -0.200201,0.254146 -0.313354,0.369346z"/>
    <polygon id="_421283336" class="fil28" points="5.32036,4.96022 5.32036,4.96022 4.34954,4.32376 5.99159,4.22591 "/>
    <path id="_421283552" class="fil2" d="M5.99159 4.22591l-1.32191 -1.60355 1.41272 -1.16664c0.0535591,0.0728976 0.104224,0.148043 0.151787,0.225315l-0.242594 2.54488z"/>
    <path id="_421283192" class="fil17" d="M4.66968 2.62236l0.620323 -1.9357c0.305126,0.210409 0.573138,0.470685 0.792398,0.769063l-1.41272 1.16664z"/>
    <path id="_421283072" class="fil24" d="M4.96144 6.33947l-0.704839 -0.0449488 1.06375 -1.3343 0.454386 0.772244c-0.237354,0.241614 -0.511441,0.446969 -0.813299,0.607004z"/>
    <polygon id="_421282496" class="fil10" points="4.34954,4.32376 4.66968,2.62236 5.99159,4.22591 "/>
    <path id="_421282688" class="fil29" d="M4.21826 6.62457l0.0383504 -0.330047 0.704839 0.0449488c-0.232661,0.123339 -0.481748,0.219772 -0.743189,0.285098z"/>
    <path id="_421283048" class="fil30" d="M3.91797 0.141555l-1.12472 0.0200118c0.20089,-0.0380748 0.408114,-0.0582441 0.620079,-0.0582441 0.171575,0 0.340098,0.013063 0.504638,0.0382323z"/>
    <path id="_421282472" class="fil1" d="M4.74489 0.382319l-2.1773 -0.169776c0.0742283,-0.019563 0.1495,-0.0365197 0.225661,-0.0509764l1.12472 -0.0200118c0.28972,0.0443858 0.567028,0.126425 0.826917,0.240764z"/>
    <path id="_421282616" class="fil31" d="M5.99159 4.22591l0.242594 -2.54488c0.303311,0.492858 0.480957,1.07121 0.488626,1.69056l-0.73122 0.854323z"/>
    <path id="_421282976" class="fil32" d="M5.99159 4.22591l0.73122 -0.854323c0.000173228,0.0139134 0.000527559,0.0277835 0.000527559,0.0417402 0,0.224079 -0.0223976,0.442909 -0.0648386,0.654492l-0.666909 0.158091z"/>
    <path id="_421283144" class="fil20" d="M6.0881 5.36312l-0.0965079 -1.13721 0.48835 0.434898c-0.102228,0.250925 -0.234264,0.486508 -0.391843,0.702311z"/>
    <path id="_421282208" class="fil19" d="M6.47994 4.66081l-0.48835 -0.434898 0.666909 -0.158091c-0.0412126,0.20515 -0.10137,0.403433 -0.178559,0.592988z"/>
   </g>
   <path id="_421282160" class="fil33" d="M3.41333 0c0.942551,0 1.79589,0.382055 2.41358,0.999752 0.617697,0.617693 0.999752,1.47103 0.999752,2.41358 0,0.942551 -0.382055,1.79589 -0.999752,2.41358 -0.617693,0.617697 -1.47103,0.999752 -2.41358,0.999752 -0.942551,0 -1.79589,-0.382055 -2.41358,-0.999752 -0.617697,-0.617693 -0.999752,-1.47103 -0.999752,-2.41358 0,-0.942551 0.382055,-1.79589 0.999752,-2.41358 0.617693,-0.617697 1.47103,-0.999752 2.41358,-0.999752zm2.26731 1.14602c-0.580248,-0.580248 -1.38187,-0.939146 -2.26731,-0.939146 -0.885445,0 -1.68707,0.358898 -2.26731,0.939146 -0.580248,0.580248 -0.939146,1.38187 -0.939146,2.26731 0,0.885445 0.358898,1.68707 0.939146,2.26731 0.580248,0.580248 1.38187,0.939146 2.26731,0.939146 0.885445,0 1.68707,-0.358898 2.26731,-0.939146 0.580248,-0.580248 0.939146,-1.38187 0.939146,-2.26731 0,-0.885445 -0.358898,-1.68707 -0.939146,-2.26731z"/>
  </g>
  <g id="_421281464">
   <path id="_421281680" class="fil34" d="M4.3532 3.81496c0.271346,-0.262094 -0.129406,-0.299516 0.415441,-0.844358l-0.544563 -0.544563 -0.344063 0.344067c-0.263346,0.0586417 -0.663299,-0.0294291 -0.752579,0.0505315 -0.110949,0.099374 -0.161969,0.485898 -0.161969,0.647862"/>
   <g>
    <path id="_421281752" class="fil33" d="M3.71452 3.7082l-0.48624 -0.473504 0.00015748 -0.000161417c-0.0324016,-0.0315551 -0.084252,-0.0308661 -0.115807,0.00153543l-5.51181e-005 6.29921e-005 -1.42192 1.42192 -3.93701e-006 -7.87402e-006c-0.0319803,0.0319803 -0.0319803,0.0838386 0,0.115819 0.00137402,0.00137008 0.00277953,0.0026811 0.00422441,0.00393307l0.091 0.0919055 1.88974 0 0.548114 -0.52878 0.00023622 7.87402e-005c0.0325512,-0.0314016 0.0334803,-0.083248 0.00207874,-0.115799 -0.00203543,-0.0021063 -0.00415748,-0.00407874 -0.00635039,-0.0059252l-0.0509252 -0.0496339 -0.116638 0.116272 -0.300504 0.29798c-0.0607598,0.060252 -0.142441,0.094063 -0.228028,0.094063 -0.0857205,0 -0.16748,-0.0336535 -0.22813,-0.0943071 -0.0606654,-0.0606654 -0.0943504,-0.14248 -0.0943504,-0.228224 0,-0.085626 0.033815,-0.167335 0.0942087,-0.228028l0.331209 -0.332839 0.0879882 -0.0863583z"/>
    <path id="_421281992" class="fil33" d="M3.34635 4.19252c-0.0869449,0.0949331 -0.0838701,0.241394 0.00617717,0.332346 0.0881457,0.0890354 0.231327,0.0959291 0.328181,0.0130866l0.000338583 -0.000295276 0.00198425 -0.00172047 0.00190551 -0.0016811 0.000326772 -0.000295276 0.00195669 -0.00177953 0.000248031 -0.000228346 0.00201575 -0.00188189 0.000165354 -0.00015748 0.00208268 -0.00198819 8.26772e-005 -7.87402e-005 0.00214173 -0.00209843 0.6775 -0.672449c0.121878,-0.123921 0.118661,-0.206815 0.114827,-0.304835 -0.00390551,-0.099937 -0.00870866,-0.222602 0.280201,-0.511508l3.93701e-006 3.93701e-006c0.0319803,-0.0319803 0.0319803,-0.0838346 0,-0.115815l-0.535161 -0.53515 7.87402e-006 -7.87402e-006c-0.0319803,-0.0319764 -0.0838386,-0.0319764 -0.115815,0l-0.000456693 0.000468504 -0.320567 0.320567c-0.109173,0.0197402 -0.245795,0.0152047 -0.368413,0.011126 -0.168524,-0.00560236 -0.314177,-0.0104488 -0.384744,0.052752 -0.0594213,0.0532205 -0.102244,0.157776 -0.131323,0.274091 -0.027378,0.109512 -0.0442795,0.232811 -0.0514173,0.329299l0.195425 -0.195421c0.0627283,-0.0651457 0.166831,-0.0660197 0.231543,-0.00300394l0.0589016 0.0573583 -0.000161417 0.000165354 0.487354 0.474587 -0.147425 0.144693c-0.110252,0.110799 -0.233323,0.225508 -0.337886,0.33985z"/>
    <path id="_421282016" class="fil33" d="M1.49523 4.95159c-0.0452283,0 -0.0818976,0.0366693 -0.0818976,0.0818937 0,0.0452283 0.0366693,0.0818976 0.0818976,0.0818976l2.98192 0c0.0452283,0 0.0818976,-0.0366693 0.0818976,-0.0818976 0,-0.0452244 -0.0366693,-0.0818937 -0.0818976,-0.0818937l-2.98192 0z"/>
    <path id="_421281032" class="fil33" d="M4.98091 3.01761l-0.874366 -0.874366 -3.93701e-006 7.87402e-006c-0.0319803,-0.0319803 -0.0319803,-0.0838386 0,-0.115815l0.000464567 -0.000456693 0.291713 -0.291709 -7.87402e-006 -7.87402e-006c0.0319803,-0.0319803 0.0838386,-0.0319803 0.115819,0l0.000452756 0.000464567 0.874362 0.874366 7.87402e-006 -7.87402e-006c0.0319803,0.0319803 0.0319803,0.0838386 0,0.115819l-0.000464567 0.000452756 -0.291713 0.291713 3.93701e-006 3.93701e-006c-0.0319803,0.0319803 -0.0838346,0.0319803 -0.115815,0l-0.000452756 -0.000464567z"/>
   </g>
  </g>
 </g>
</svg>
