<?xml version="1.0" encoding="utf-8"?>
<!-- Generator: Adobe Illustrator 22.0.0, SVG Export Plug-In . SVG Version: 6.00 Build 0)  -->
<svg version="1.1" id="Layer_1" xmlns="http://www.w3.org/2000/svg" xmlns:xlink="http://www.w3.org/1999/xlink" x="0px" y="0px"
	 viewBox="0 0 500 500" style="enable-background:new 0 0 500 500;" xml:space="preserve">
<style type="text/css">
	.st0{fill:#C9C9C9;}
	.st1{fill:#A0A0A0;}
	.st2{fill:#71CCFF;}
	.st3{fill:#231F20;}
	.st4{fill:#F9F9F9;}
	.st5{fill:#7A7979;}
	.st6{fill:#4C4C4C;}
	.st7{fill:#F9B630;}
	.st8{fill:#D88A0E;}
	.st9{fill:#FFEDCC;}
	.st10{fill:#C0E7F9;}
	.st11{fill:#08B26C;}
	.st12{fill:#15A9EA;}
	.st13{fill:none;stroke:#C9C9C9;stroke-width:10;stroke-linecap:round;stroke-linejoin:round;stroke-miterlimit:10;}
	.st14{fill:none;stroke:#231F20;stroke-width:10;stroke-linecap:round;stroke-linejoin:round;stroke-miterlimit:10;}
	.st15{fill:#FFFFFF;}
	.st16{fill:#35EF9F;}
	.st17{fill:#22A6E0;}
	.st18{fill:#FC3A6D;}
	.st19{fill:#FFA9C8;}
	.st20{fill:#038E52;}
	.st21{fill:#E2074B;}
</style>
<g>
	<g>
		<path class="st5" d="M321.4,290h-8.7v-0.2H178.6c-15.4,0-28-12.5-28-28c0-15.4,12.5-28,28-28h62.1v-74.5h-62.1
			c-56.5,0-102.5,46-102.5,102.5c0,56.5,46,102.5,102.5,102.5h8.7v0.2h134.2c15.4,0,28,12.5,28,28c0,15.4-12.5,28-28,28H76.1V495
			h245.4c56.5,0,102.5-46,102.5-102.5C423.9,336,378,290,321.4,290z"/>
	</g>
</g>
<g>
	<g>
		<path class="st6" d="M178.6,364.3h8.7v0.2h134.2c3.5,0,6.8,0.6,9.9,1.8c1.6-4.2,2.5-8.8,2.5-13.6c0-11.8-5.5-22.8-14.2-30
			c-2.8-18.6-19-33-38.4-33c-13.7,0-25.7,7.1-32.6,17.8c-6.9-10.7-19-17.8-32.6-17.8c-13.7,0-25.7,7.1-32.6,17.8
			c-6.9-10.7-19-17.8-32.6-17.8c-19.4,0-35.6,14.3-38.4,33c-3.2,2.7-6,5.8-8.2,9.3C122.7,351.9,149.2,364.3,178.6,364.3z"/>
	</g>
</g>
<g>
	<g>
		<g>
			<path class="st6" d="M240.7,159.3h-62.1c-7.4,0-14.5,0.8-21.5,2.3c4.1,11.3,9.7,22.1,16.7,32.2l27.8,40.1h39V159.3z"/>
		</g>
	</g>
</g>
<g>
	<g>
		<path class="st0" d="M104,301.8c-1.9,0-3.7-1.1-4.5-2.9c-5.5-11.7-8.3-24.1-8.3-37.1c0-8.6,1.3-17.2,3.8-25.4
			c0.8-2.6,3.6-4.1,6.2-3.3c2.6,0.8,4.1,3.6,3.3,6.2c-2.2,7.3-3.3,14.8-3.3,22.5c0,11.5,2.5,22.5,7.3,32.8c1.2,2.5,0.1,5.5-2.4,6.7
			C105.5,301.6,104.7,301.8,104,301.8z"/>
	</g>
</g>
<g>
	<g>
		<path class="st0" d="M117.8,211.3c-1.2,0-2.4-0.4-3.4-1.3c-2-1.9-2.2-5-0.3-7.1c2.7-2.9,5.6-5.7,8.7-8.3c2.1-1.8,5.3-1.5,7,0.6
			c1.8,2.1,1.5,5.3-0.6,7c-2.7,2.3-5.3,4.7-7.7,7.3C120.5,210.7,119.2,211.3,117.8,211.3z"/>
	</g>
</g>
<g>
	<g>
		<path class="st3" d="M321.4,500H76.1c-2.8,0-5-2.2-5-5s2.2-5,5-5h245.4c53.8,0,97.5-43.7,97.5-97.5c0-53.8-43.7-97.5-97.5-97.5
			h-8.7c-0.5,0-1-0.1-1.4-0.2H178.6c-18.2,0-33-14.8-33-33c0-18.2,14.8-33,33-33h57.1v-64.5h-57.1c-53.8,0-97.5,43.7-97.5,97.5
			c0,53.8,43.7,97.5,97.5,97.5h8.7c0.5,0,1,0.1,1.4,0.2h132.7c18.2,0,33,14.8,33,33c0,18.2-14.8,33-33,33H76.1c-2.8,0-5-2.2-5-5
			c0-2.8,2.2-5,5-5h245.4c12.7,0,23-10.3,23-23s-10.3-23-23-23H187.2c-0.5,0-1-0.1-1.4-0.2h-7.2c-59.3,0-107.5-48.2-107.5-107.5
			c0-59.3,48.2-107.5,107.5-107.5h62.1c2.8,0,5,2.2,5,5v74.5c0,2.8-2.2,5-5,5h-62.1c-12.7,0-23,10.3-23,23s10.3,23,23,23h134.2
			c0.5,0,1,0.1,1.4,0.2h7.2c59.3,0,107.5,48.2,107.5,107.5C428.9,451.8,380.7,500,321.4,500z"/>
	</g>
</g>
<g>
	<g>
		<path class="st7" d="M290.6,5c-1.1,0-2.1,0-3.2,0c-1.1,0-2.1,0-3.2,0c-86.3,2.2-134.8,100.6-85.5,171.5l73.2,105.3
			c7.5,10.9,23.6,10.9,31.2,0l73.2-105.3C425.4,105.7,376.9,7.3,290.6,5z M287.4,160.7c-26.4,0-47.9-21.4-47.9-47.9
			c0-26.4,21.4-47.9,47.9-47.9c26.4,0,47.9,21.4,47.9,47.9C335.2,139.3,313.8,160.7,287.4,160.7z"/>
	</g>
</g>
<g>
	<g>
		<path class="st8" d="M389.2,76.7c-18,4.4-32.9,17-40.3,33.6c-5.3,2.6-10.1,6.1-14.2,10.2c-1.7,10.8-7.1,20.4-14.7,27.5
			c-0.7,3.4-1,6.9-1,10.4c0,23,14.6,42.7,35,50.3l22.3-32.1C398,145.1,400.6,108.2,389.2,76.7z"/>
	</g>
</g>
<g>
	<g>
		<path class="st8" d="M239.1,84.8c0-20.7-11.3-38.8-28.1-48.4c-26.3,26.6-38.3,66.3-28.8,104.1h1.2
			C214.1,140.6,239.1,115.6,239.1,84.8z"/>
	</g>
</g>
<g>
	<g>
		<path class="st3" d="M287.4,295c-7.8,0-15.2-3.8-19.7-10.3l-73.2-105.3c-12.3-17.8-19.4-38.3-20.5-59.5c-1-19.9,3.3-40,12.5-58
			C205.7,24.3,242.1,1.1,284.1,0c2.2-0.1,4.5-0.1,6.7,0c42,1.1,78.4,24.2,97.5,61.9c9.1,18,13.4,38.1,12.5,58
			c-1,21.1-8.1,41.7-20.5,59.5l-73.2,105.3C302.6,291.2,295.2,295,287.4,295z M287.4,10c-1,0-2.1,0-3.1,0
			c-38.2,1-71.4,22.1-88.8,56.4c-17.7,35-15,75.1,7.3,107.2L275.9,279c2.6,3.8,6.8,6,11.5,6c4.6,0,8.8-2.2,11.5-6L372,173.7
			c22.3-32.1,25-72.2,7.3-107.2C361.9,32.1,328.7,11,290.5,10l0,0C289.4,10,288.4,10,287.4,10z"/>
	</g>
</g>
<g>
	<g>
		<path class="st3" d="M287.4,165.7c-29.1,0-52.9-23.7-52.9-52.9S258.2,60,287.4,60s52.9,23.7,52.9,52.9S316.5,165.7,287.4,165.7z
			 M287.4,70c-23.6,0-42.9,19.2-42.9,42.9c0,23.6,19.2,42.9,42.9,42.9s42.9-19.2,42.9-42.9C330.2,89.2,311,70,287.4,70z"/>
	</g>
</g>
<g>
	<g>
		<path class="st9" d="M215.2,170c-1.6,0-3.1-0.7-4.1-2.1c-20.1-29-22.6-65.2-6.6-96.8c6-11.9,14.2-22.1,24.2-30.3
			c2.1-1.8,5.3-1.4,7,0.7c1.8,2.1,1.4,5.3-0.7,7c-8.9,7.3-16.2,16.5-21.6,27.1c-14.3,28.3-12.1,60.7,5.9,86.6c1.6,2.3,1,5.4-1.3,7
			C217.2,169.8,216.2,170,215.2,170z M255,36.1c-2,0-3.9-1.2-4.7-3.2c-1-2.6,0.3-5.5,2.8-6.5c1.9-0.7,3.9-1.4,5.8-2
			c2.6-0.8,5.4,0.6,6.3,3.3c0.8,2.6-0.6,5.4-3.3,6.3c-1.7,0.5-3.5,1.2-5.2,1.8C256.2,36,255.6,36.1,255,36.1z"/>
	</g>
</g>
<g>
	<g>
		<path class="st3" d="M387.9,238.8h-48.8c-2.8,0-5-2.2-5-5s2.2-5,5-5h48.8c2.8,0,5,2.2,5,5S390.7,238.8,387.9,238.8z"/>
	</g>
</g>
<g>
	<g>
		<path class="st3" d="M423.9,238.8h-13.7c-2.8,0-5-2.2-5-5s2.2-5,5-5h13.7c2.8,0,5,2.2,5,5S426.7,238.8,423.9,238.8z"/>
	</g>
</g>
<g>
	<g>
		<path class="st2" d="M79.4,59.1c-14.2,0-25.7,11.5-25.7,25.7s11.5,25.7,25.7,25.7h104c14.2,0,25.7-11.5,25.7-25.7
			s-11.5-25.7-25.7-25.7h-0.6c0-10.3-8.4-18.7-18.7-18.7c-10.3,0-18.7,8.4-18.7,18.7c0-17.9-14.5-32.5-32.5-32.5
			S80.6,41.2,80.6,59.1H79.4z"/>
	</g>
</g>
<g>
	<g>
		<path class="st3" d="M183.4,115.6h-104c-16.9,0-30.7-13.8-30.7-30.7c0-15.8,11.9-28.8,27.2-30.5c2.4-18.4,18.1-32.7,37.2-32.7
			c14.9,0,27.8,8.7,33.8,21.4c4.3-4.6,10.5-7.5,17.3-7.5c11.4,0,21,8.1,23.2,18.9c15.1,1.9,26.8,14.9,26.8,30.5
			C214.1,101.8,200.4,115.6,183.4,115.6z M79.4,64.1c-11.4,0-20.7,9.3-20.7,20.7s9.3,20.7,20.7,20.7h104c11.4,0,20.7-9.3,20.7-20.7
			s-9.3-20.7-20.7-20.7h-0.6c-2.8,0-5-2.2-5-5c0-7.5-6.1-13.7-13.7-13.7c-7.5,0-13.7,6.1-13.7,13.7c0,2.8-2.2,5-5,5s-5-2.2-5-5
			c0-15.1-12.3-27.5-27.5-27.5S85.6,44,85.6,59.1c0,2.8-2.2,5-5,5H79.4z"/>
	</g>
</g>
<g>
	<g>
		<path class="st10" d="M92,84.1H79.4c-2.8,0-5-2.2-5-5s2.2-5,5-5H92c2,0,3.6-1.6,3.6-3.6V59.5c0-9.1,6.9-16.9,15.8-17.8
			c4.9-0.5,9.8,1.2,13.4,4.5c3.6,3.3,5.7,8,5.7,12.9c0,2.8-2.2,5-5,5s-5-2.2-5-5c0-2.1-0.9-4.1-2.5-5.5c-1.6-1.4-3.6-2.1-5.8-1.9
			c-3.8,0.4-6.7,3.8-6.7,7.8v11.1C105.6,78,99.5,84.1,92,84.1z"/>
	</g>
</g>
<g>
	<g>
		<path class="st3" d="M79.4,115.6H43.1c-2.8,0-5-2.2-5-5s2.2-5,5-5h36.3c2.8,0,5,2.2,5,5S82.2,115.6,79.4,115.6z"/>
	</g>
</g>
<g>
	<g>
		<path class="st3" d="M28.4,115.6h-1.9c-2.8,0-5-2.2-5-5s2.2-5,5-5h1.9c2.8,0,5,2.2,5,5S31.1,115.6,28.4,115.6z"/>
	</g>
</g>
<g>
	<g>
		<path class="st2" d="M372.5,134.8c-13,0-23.6,10.6-23.6,23.6c0,13,10.6,23.6,23.6,23.6h95.4c13,0,23.6-10.6,23.6-23.6
			c0-13-10.6-23.6-23.6-23.6h-0.5c0-9.5-7.7-17.1-17.1-17.1s-17.1,7.7-17.1,17.1c0-16.5-13.3-29.8-29.8-29.8s-29.8,13.3-29.8,29.8
			H372.5z"/>
	</g>
</g>
<g>
	<g>
		<path class="st3" d="M467.9,187h-95.4c-15.8,0-28.6-12.8-28.6-28.6c0-14.6,10.9-26.6,25-28.4c2.3-16.9,16.9-30,34.5-30
			c13.6,0,25.4,7.9,31.1,19.3c4-4.1,9.6-6.6,15.8-6.6c10.6,0,19.4,7.5,21.6,17.4c13.9,1.9,24.6,13.9,24.6,28.3
			C496.5,174.2,483.7,187,467.9,187z M372.5,139.8c-10.3,0-18.6,8.3-18.6,18.6s8.3,18.6,18.6,18.6h95.4c10.3,0,18.6-8.3,18.6-18.6
			s-8.3-18.6-18.6-18.6h-0.5c-2.8,0-5-2.2-5-5c0-6.7-5.4-12.1-12.1-12.1c-6.7,0-12.1,5.4-12.1,12.1c0,2.8-2.2,5-5,5s-5-2.2-5-5
			c0-13.7-11.1-24.8-24.8-24.8s-24.8,11.1-24.8,24.8c0,2.8-2.2,5-5,5H372.5z"/>
	</g>
</g>
<g>
	<g>
		<path class="st10" d="M384.1,158.1h-11.6c-2.8,0-5-2.2-5-5s2.2-5,5-5h11.6c1.6,0,2.9-1.3,2.9-2.9v-10.2c0-8.6,6.5-15.9,14.9-16.7
			c4.6-0.4,9.2,1.1,12.6,4.2c3.4,3.1,5.4,7.5,5.4,12.2c0,2.8-2.2,5-5,5s-5-2.2-5-5c0-1.8-0.8-3.5-2.1-4.8c-1.4-1.2-3.1-1.8-5-1.6
			c-3.3,0.3-5.8,3.3-5.8,6.7v10.2C396.9,152.4,391.1,158.1,384.1,158.1z"/>
	</g>
</g>
<g>
	<g>
		<path class="st3" d="M372.5,187h-33.3c-2.8,0-5-2.2-5-5s2.2-5,5-5h33.3c2.8,0,5,2.2,5,5S375.2,187,372.5,187z"/>
	</g>
</g>
<g>
	<g>
		<path class="st3" d="M325.7,187h-1.7c-2.8,0-5-2.2-5-5s2.2-5,5-5h1.7c2.8,0,5,2.2,5,5S328.4,187,325.7,187z"/>
	</g>
</g>
<g>
	<g>
		<path class="st11" d="M168.5,334.4c0.6-1.8,0.9-3.8,0.9-5.8c0-10.4-8.4-18.8-18.8-18.8c-10.4,0-18.8,8.4-18.8,18.8
			c0,2,0.3,4,0.9,5.8c-8.4,1.9-14.7,9.4-14.7,18.4c0,10.4,8.4,18.8,18.8,18.8c5.5,0,10.4-2.3,13.8-6c3.4,3.7,8.4,6,13.8,6
			c10.4,0,18.8-8.4,18.8-18.8C183.3,343.8,177,336.3,168.5,334.4z"/>
	</g>
</g>
<g>
	<g>
		<path class="st11" d="M233.8,334.4c0.6-1.8,0.9-3.8,0.9-5.8c0-10.4-8.4-18.8-18.8-18.8c-10.4,0-18.8,8.4-18.8,18.8
			c0,2,0.3,4,0.9,5.8c-8.4,1.9-14.7,9.4-14.7,18.4c0,10.4,8.4,18.8,18.8,18.8c5.5,0,10.4-2.3,13.8-6c3.4,3.7,8.4,6,13.8,6
			c10.4,0,18.8-8.4,18.8-18.8C248.5,343.8,242.2,336.3,233.8,334.4z"/>
	</g>
</g>
<g>
	<g>
		<path class="st11" d="M299,334.4c0.6-1.8,0.9-3.8,0.9-5.8c0-10.4-8.4-18.8-18.8-18.8c-10.4,0-18.8,8.4-18.8,18.8
			c0,2,0.3,4,0.9,5.8c-8.4,1.9-14.7,9.4-14.7,18.4c0,10.4,8.4,18.8,18.8,18.8c5.5,0,10.4-2.3,13.8-6c3.4,3.7,8.4,6,13.8,6
			c10.4,0,18.8-8.4,18.8-18.8C313.8,343.8,307.5,336.3,299,334.4z"/>
	</g>
</g>
<g>
	<g>
		<path class="st3" d="M164.4,376.6c-5,0-9.8-1.6-13.8-4.4c-4,2.8-8.8,4.4-13.8,4.4c-13.1,0-23.8-10.7-23.8-23.8
			c0-9.4,5.6-17.8,13.9-21.7c-0.1-0.8-0.1-1.6-0.1-2.5c0-13.1,10.7-23.8,23.8-23.8c13.1,0,23.8,10.7,23.8,23.8c0,0.8,0,1.7-0.1,2.5
			c8.3,3.8,13.9,12.3,13.9,21.7C188.3,365.9,177.6,376.6,164.4,376.6z M150.6,360.5c1.4,0,2.7,0.6,3.7,1.6c2.6,2.9,6.3,4.4,10.1,4.4
			c7.6,0,13.8-6.2,13.8-13.8c0-6.4-4.5-12.1-10.8-13.5c-1.4-0.3-2.6-1.2-3.3-2.4c-0.7-1.2-0.9-2.7-0.4-4c0.4-1.4,0.7-2.8,0.7-4.2
			c0-7.6-6.2-13.8-13.8-13.8c-7.6,0-13.8,6.2-13.8,13.8c0,1.4,0.2,2.9,0.7,4.2c0.4,1.3,0.3,2.8-0.4,4c-0.7,1.2-1.9,2.1-3.3,2.4
			c-6.3,1.4-10.8,7.1-10.8,13.5c0,7.6,6.2,13.8,13.8,13.8c3.9,0,7.5-1.6,10.1-4.4C147.9,361.1,149.2,360.5,150.6,360.5z"/>
	</g>
</g>
<g>
	<g>
		<path class="st3" d="M229.7,376.6c-5,0-9.8-1.6-13.8-4.4c-4,2.8-8.8,4.4-13.8,4.4c-13.1,0-23.8-10.7-23.8-23.8
			c0-9.4,5.6-17.8,13.9-21.7c-0.1-0.8-0.1-1.6-0.1-2.5c0-13.1,10.7-23.8,23.8-23.8s23.8,10.7,23.8,23.8c0,0.8,0,1.7-0.1,2.5
			c8.3,3.8,13.9,12.3,13.9,21.7C253.5,365.9,242.8,376.6,229.7,376.6z M215.9,360.5c1.4,0,2.7,0.6,3.7,1.6c2.6,2.9,6.3,4.4,10.1,4.4
			c7.6,0,13.8-6.2,13.8-13.8c0-6.4-4.5-12.1-10.8-13.5c-1.4-0.3-2.6-1.2-3.3-2.4c-0.7-1.2-0.9-2.7-0.4-4c0.4-1.4,0.7-2.8,0.7-4.2
			c0-7.6-6.2-13.8-13.8-13.8s-13.8,6.2-13.8,13.8c0,1.4,0.2,2.9,0.7,4.2c0.4,1.3,0.3,2.8-0.4,4c-0.7,1.2-1.9,2.1-3.3,2.4
			c-6.3,1.4-10.8,7.1-10.8,13.5c0,7.6,6.2,13.8,13.8,13.8c3.9,0,7.5-1.6,10.1-4.4C213.2,361.1,214.5,360.5,215.9,360.5z"/>
	</g>
</g>
<g>
	<g>
		<path class="st3" d="M294.9,376.6c-5,0-9.8-1.6-13.8-4.4c-4,2.8-8.8,4.4-13.8,4.4c-13.1,0-23.8-10.7-23.8-23.8
			c0-9.4,5.6-17.8,13.9-21.7c-0.1-0.8-0.1-1.6-0.1-2.5c0-13.1,10.7-23.8,23.8-23.8s23.8,10.7,23.8,23.8c0,0.8,0,1.7-0.1,2.5
			c8.3,3.8,13.9,12.3,13.9,21.7C318.8,365.9,308.1,376.6,294.9,376.6z M281.1,360.5c1.4,0,2.7,0.6,3.7,1.6c2.6,2.9,6.3,4.4,10.1,4.4
			c7.6,0,13.8-6.2,13.8-13.8c0-6.4-4.5-12.1-10.8-13.5c-1.4-0.3-2.6-1.2-3.3-2.4c-0.7-1.2-0.9-2.7-0.4-4c0.4-1.4,0.7-2.8,0.7-4.2
			c0-7.6-6.2-13.8-13.8-13.8s-13.8,6.2-13.8,13.8c0,1.4,0.2,2.9,0.7,4.2c0.4,1.3,0.3,2.8-0.4,4c-0.7,1.2-1.9,2.1-3.3,2.4
			c-6.3,1.4-10.8,7.1-10.8,13.5c0,7.6,6.2,13.8,13.8,13.8c3.9,0,7.5-1.6,10.1-4.4C278.4,361.1,279.7,360.5,281.1,360.5z"/>
	</g>
</g>
<g>
	<g>
		<path class="st3" d="M150.6,425.5c-2.8,0-5-2.2-5-5v-54.9c0-2.8,2.2-5,5-5s5,2.2,5,5v54.9C155.6,423.2,153.4,425.5,150.6,425.5z"
			/>
	</g>
</g>
<g>
	<g>
		<path class="st3" d="M215.9,425.5c-2.8,0-5-2.2-5-5v-54.9c0-2.8,2.2-5,5-5s5,2.2,5,5v54.9C220.9,423.2,218.6,425.5,215.9,425.5z"
			/>
	</g>
</g>
<g>
	<g>
		<path class="st3" d="M281.1,425.5c-2.8,0-5-2.2-5-5v-54.9c0-2.8,2.2-5,5-5s5,2.2,5,5v54.9C286.1,423.2,283.9,425.5,281.1,425.5z"
			/>
	</g>
</g>
</svg>
