<?xml version="1.0" encoding="utf-8"?>
<!-- Generator: Adobe Illustrator 24.0.0, SVG Export Plug-In . SVG Version: 6.00 Build 0)  -->
<svg version="1.1" id="Layer_1" xmlns="http://www.w3.org/2000/svg" xmlns:xlink="http://www.w3.org/1999/xlink" x="0px" y="0px"
	 viewBox="0 0 256 256" style="enable-background:new 0 0 256 256;" xml:space="preserve">
<style type="text/css">
	.st0{fill:#FFB69F;}
	.st1{fill:#72C2E9;}
	.st2{fill:#C2E5FF;}
	.st3{fill:#FC5D3D;}
	.st4{fill:#AFAFAF;}
	.st5{fill:#FFCBC3;}
	.st6{fill:#F0C020;}
	.st7{fill:#F8E5B0;}
	.st8{fill:#EFEFEF;}
	.st9{fill:#EEC21E;}
	.st10{fill:#FFFFFF;}
	.st11{fill:#F1BF21;}
	.st12{fill:#E8A61E;}
	.st13{fill:#7D7B79;}
	.st14{fill:#B34F33;}
	.st15{fill:#F8E5B2;}
	.st16{fill:#C5E5FE;}
	.st17{fill:#4C4944;}
	.st18{fill:#4BA5C8;}
	.st19{fill:#AFAEAF;}
	.st20{fill:#CF941C;}
	.st21{fill:#7C7B7A;}
	.st22{fill:#FAE0E1;}
	.st23{fill:#13BF6D;}
	.st24{fill:#76FFBB;}
	.st25{fill:#F2E1D7;}
	.st26{fill:#878787;}
	.st27{fill:#F9E5AF;}
	.st28{fill:#E8A61F;}
	.st29{fill:none;stroke:#000000;stroke-width:5;stroke-linecap:round;stroke-linejoin:round;stroke-miterlimit:10;}
	.st30{fill:#EFEFF0;}
	.st31{fill:#E8A61B;}
	.st32{fill:#EFEFEE;}
	.st33{fill:#4C4945;}
	.st34{fill:#EA8F7D;}
	.st35{fill:#D6C0B3;}
	.st36{fill:#EEC120;}
</style>
<g>
</g>
<g>
	<g>
		<g>
			<polygon class="st3" points="177.59,161.934 105.698,161.934 106.021,151.279 106.297,142.383 106.639,131.196 106.905,122.3 
				107.209,112.482 115.792,105.857 115.792,86.563 168.133,86.563 168.133,105.857 176.184,112.482 176.459,122.3 176.716,131.196 
				177.03,142.383 177.286,151.279 			"/>
		</g>
		<g>
			<g>
				<path class="st0" d="M160.2,60.465v7.477c0,10.285-8.332,18.617-18.617,18.617c-10.286,0-18.628-8.332-18.628-18.617v-7.477
					H160.2z"/>
			</g>
			<g>
				<path class="st6" d="M161.932,49.124v-3.179c0-7.983-6.452-14.425-14.414-14.425h-0.824v-2.313c0-2.809-2.281-5.121-5.111-5.121
					c-2.841,0-5.122,2.291-5.122,5.121v2.313h-0.824c-7.962,0-14.414,6.442-14.414,14.425v3.179c-3.01,0.127-5.428,2.619-5.428,5.66
					v0.01c0,3.126,2.545,5.671,5.671,5.671h40.223c3.126,0,5.671-2.545,5.671-5.671v-0.01
					C167.36,51.743,164.942,49.251,161.932,49.124z"/>
			</g>
		</g>
		<g>
			<polygon class="st6" points="153.259,86.563 141.578,111.113 129.897,86.563 			"/>
		</g>
		<g>
			<polygon class="st8" points="176.716,131.196 106.639,131.196 106.905,122.3 176.459,122.3 			"/>
		</g>
		<g>
			<polygon class="st8" points="177.286,151.279 106.021,151.279 106.297,142.383 177.03,142.383 			"/>
		</g>
		<g>
			<path class="st6" d="M180.813,249.936l-18.819-0.085c-2.5-0.01-4.572-1.968-4.714-4.477c-0.721-12.361-0.373-6.401-1.635-28
				l-1.549-26.518c-0.38-6.634-5.874-11.814-12.517-11.814c-6.734,0-12.142,5.268-12.517,11.814l-1.549,26.518
				c-1.26,21.563-0.903,15.469-1.635,27.924c-0.142,2.509-2.215,4.467-4.733,4.477l-18.81,0.029c-3.887,0.01-6.14-4.4-3.849-7.547
				l4.961-6.824l0.551-18.059l1.701-55.44h71.893l1.578,55.44l0.513,18.059l5.009,6.976
				C186.952,245.565,184.69,249.956,180.813,249.936z"/>
		</g>
		<g>
			<path class="st27" d="M119.504,219.87c-0.049,0-0.098-0.001-0.147-0.004c-1.378-0.08-2.431-1.263-2.351-2.642l1.863-32.016
				c0.081-1.378,1.25-2.433,2.642-2.351c1.378,0.08,2.431,1.263,2.351,2.642l-1.863,32.016
				C121.92,218.845,120.818,219.87,119.504,219.87z"/>
		</g>
		<g>
			<path class="st27" d="M171.161,219.87c-1.349,0-2.459-1.073-2.498-2.429l-1.229-43.196c-0.039-1.38,1.048-2.531,2.428-2.57
				c0.024-0.001,0.049-0.001,0.072-0.001c1.349,0,2.459,1.073,2.498,2.429l1.229,43.196c0.039,1.38-1.048,2.531-2.428,2.57
				C171.209,219.87,171.184,219.87,171.161,219.87z"/>
		</g>
		<g>
			<path class="st13" d="M180.813,249.936l-18.819-0.085c-2.5-0.01-4.572-1.968-4.714-4.477c-0.721-12.361-0.373-6.401-1.635-28
				h23.524l0.513,18.059l5.009,6.976C186.952,245.565,184.69,249.956,180.813,249.936z"/>
		</g>
		<g>
			<path class="st8" d="M172.452,243.369l-2.73-3.8c-0.291-0.405-0.454-0.889-0.469-1.388l-0.59-20.74
				c-0.039-1.381,1.048-2.531,2.428-2.57c1.405-0.035,2.531,1.049,2.57,2.428l0.568,19.975l2.283,3.178
				c0.806,1.121,0.55,2.684-0.571,3.489C174.825,244.744,173.26,244.494,172.452,243.369z"/>
		</g>
		<g>
			<path class="st13" d="M103.997,217.374h23.514c-1.26,21.563-0.903,15.469-1.635,27.924c-0.142,2.509-2.215,4.467-4.733,4.477
				l-18.81,0.029c-3.887,0.01-6.14-4.4-3.849-7.547l4.961-6.824L103.997,217.374z"/>
		</g>
		<g>
			<path class="st8" d="M118.074,244.281c-0.049,0-0.099-0.001-0.148-0.004c-1.378-0.081-2.43-1.264-2.35-2.643l1.43-24.41
				c0.081-1.378,1.259-2.438,2.643-2.35c1.378,0.081,2.43,1.264,2.35,2.643l-1.43,24.41
				C120.49,243.255,119.388,244.281,118.074,244.281z"/>
		</g>
		<g>
			<path class="st6" d="M195.458,88.563v21.919c0,1.105-0.895,2-2,2h-17.275l-8.05-6.625V86.563h25.325
				C194.563,86.563,195.458,87.458,195.458,88.563z"/>
		</g>
		<g>
			<path class="st6" d="M115.792,86.56v19.3l-8.58,6.62h-17.51c-1.11,0-2-0.89-2-2V88.56c0-1.1,0.89-2,2-2H115.792z"/>
		</g>
		<g>
			<path class="st0" d="M87.702,90.14v18.77h-26.4c0.17-0.37,0.26-0.78,0.26-1.21V91.35c0-0.43-0.09-0.84-0.26-1.21H87.702z"/>
		</g>
		<g>
			<g>
				<path class="st4" d="M56.792,65.43v22.92h-9.47V65.42h0.01l1.2,1.2c1.95,1.96,5.12,1.96,7.07,0L56.792,65.43z"/>
			</g>
			<g>
				<path class="st3" d="M81.612,40.61l-26.01,26.01c-1.95,1.96-5.12,1.96-7.07,0l-1.2-1.2h-0.01l-24.8-24.81
					c-1.95-1.95-1.95-5.12,0-7.07l26.01-26.01c1.95-1.95,5.12-1.95,7.07,0l26.01,26.01C83.572,35.49,83.572,38.66,81.612,40.61z"/>
			</g>
		</g>
		<g>
			<path class="st8" d="M61.562,91.35v16.35c0,0.43-0.09,0.84-0.26,1.21c-0.46,1.05-1.51,1.79-2.74,1.79h-12.72c-2.77,0-5-2.24-5-5
				V93.35c0-2.77,2.23-5,5-5h12.72c1.23,0,2.28,0.73,2.74,1.79C61.472,90.51,61.562,90.92,61.562,91.35z"/>
		</g>
		<g>
			<path class="st0" d="M234.947,73.777v25.13c0,5.52-4.47,10-10,10h-29.49v-18.77h20.72v-16.36H234.947z"/>
		</g>
		<g>
			<path class="st8" d="M234.947,49.113v24.663h-18.77v-5.69h-4.55c-2.48,0-4.7-1.82-4.92-4.29c-0.26-2.84,1.96-5.2,4.73-5.2h4.74
				v-9.483c0-3.31,2.683-5.992,5.992-5.992h6.785C232.264,43.121,234.947,45.804,234.947,49.113z"/>
		</g>
	</g>
	<g>
		<path d="M104.928,186.939c0.03,0.011,0.05,0.011,0.08,0.011c1.36,0,2.45-1.07,2.49-2.431c0.02-0.67-0.22-1.3-0.67-1.79
			c-0.46-0.479-1.08-0.76-1.75-0.779c-1.44-0.061-2.53,1.029-2.57,2.42c-0.03,0.67,0.22,1.3,0.67,1.79
			C103.638,186.649,104.258,186.92,104.928,186.939z"/>
		<path d="M141.574,78.892c4.261,0,7.728-3.467,7.728-7.728c0-1.381-1.119-2.5-2.5-2.5s-2.5,1.119-2.5,2.5
			c0,1.504-1.224,2.728-2.728,2.728s-2.728-1.224-2.728-2.728c0-1.381-1.119-2.5-2.5-2.5s-2.5,1.119-2.5,2.5
			C133.847,75.425,137.314,78.892,141.574,78.892z"/>
		<path d="M53.83,59.194L74.185,38.84c0.976-0.976,0.976-2.559,0-3.535L53.83,14.951c-0.977-0.977-2.559-0.977-3.535,0
			L29.941,35.304c-0.469,0.469-0.732,1.104-0.732,1.768s0.264,1.299,0.732,1.768l20.354,20.354
			C51.272,60.171,52.854,60.171,53.83,59.194z M52.063,20.254l16.819,16.818L52.063,53.891L35.243,37.072L52.063,20.254z"/>
		<path d="M52.063,38.518c1.381,0,2.5-1.119,2.5-2.5v-6.334c0-1.381-1.119-2.5-2.5-2.5s-2.5,1.119-2.5,2.5v6.334
			C49.563,37.399,50.682,38.518,52.063,38.518z"/>
		<path d="M54.563,44.46v-0.858c0-1.381-1.119-2.5-2.5-2.5s-2.5,1.119-2.5,2.5v0.858c0,1.381,1.119,2.5,2.5,2.5
			S54.563,45.841,54.563,44.46z"/>
		<path d="M214.788,106.41c-1.38,0-2.5,1.12-2.5,2.5c0,1.37,1.12,2.489,2.5,2.489s2.5-1.119,2.5-2.489
			C217.288,107.53,216.168,106.41,214.788,106.41z"/>
		<path d="M237.444,49.113c0-4.684-3.81-8.493-8.493-8.493h-6.784c-4.684,0-8.493,3.81-8.493,8.493v6.983h-2.24
			c-4.245,0-7.611,3.637-7.22,7.921c0.327,3.683,3.583,6.568,7.41,6.568h2.05v17.051h-15.817c-0.428-2.039-2.238-3.574-4.402-3.574
			h-38.265c4.585-3.877,7.507-9.661,7.507-16.121v-5.046c4.03-0.5,7.16-3.939,7.16-8.102v-0.01c0-3.551-2.248-6.573-5.429-7.697
			v-1.142c0-8.768-6.698-15.997-15.242-16.84c-0.055-4.155-3.443-7.519-7.606-7.519c-4.168,0-7.561,3.364-7.616,7.519
			c-8.545,0.843-15.243,8.072-15.243,16.84v1.142c-3.18,1.125-5.428,4.148-5.428,7.707c0,4.163,3.13,7.601,7.159,8.102v5.046
			c0,6.46,2.924,12.244,7.511,16.121H89.694c-2.165,0-3.977,1.538-4.403,3.578H62.604c-0.861-0.941-2.028-1.565-3.316-1.737V66.465
			l24.083-24.083c2.946-2.93,2.943-7.687,0.005-10.609l-26.01-26.01c-2.929-2.929-7.677-2.93-10.605,0l-26.012,26.01
			c-2.923,2.925-2.922,7.682,0,10.604l24.069,24.079v19.471c-3.654,0.5-6.48,3.633-6.48,7.422V105.7c0,4.136,3.364,7.5,7.5,7.5
			h12.721c1.574,0,3.034-0.68,4.051-1.79h22.683c0.429,2.037,2.239,3.571,4.401,3.571h14.935l-1.821,59.389
			c-0.04,1.38,1.04,2.54,2.42,2.58c1.37,0.08,2.54-1.04,2.58-2.42v-0.011l0.31-10.086h67.04l1.433,50.44h-18.594l-1.409-24.164
			c-0.46-7.94-7.05-14.17-15.01-14.17c-7.971,0-14.561,6.229-15.021,14.17l-1.411,24.164h-18.574l0.626-20.354
			c0.04-1.38-1.051-2.529-2.431-2.58c-1.359-0.04-2.529,1.04-2.569,2.431c-1.445,47.236,0.215-7.02-1.23,40.22l-4.51,6.2
			c-3.497,4.724-0.055,11.51,5.87,11.51l18.819-0.03c3.83-0.01,7-3.01,7.221-6.83l3.18-54.439c0.31-5.3,4.71-9.46,10.03-9.46
			c5.31,0,9.72,4.149,10.02,9.46l3.181,54.52c0.22,3.811,3.38,6.811,7.199,6.83l18.82,0.09c5.977-0.029,9.337-6.767,5.92-11.489
			l-4.57-6.36c-0.679-23.995,0.195,6.804-3.396-119.608h14.702c2.167,0,3.979-1.54,4.405-3.582h6.929c1.38,0,2.5-1.119,2.5-2.489
			c0-1.38-1.12-2.5-2.5-2.5h-6.834V92.636h18.219c1.381,0,2.5-1.119,2.5-2.5v-13.86h13.765V98.91c0,3.945-3.147,7.5-7.649,7.5
			c-1.38,0-2.5,1.12-2.5,2.5c0,1.4,1.183,2.588,2.66,2.489c6.89,0,12.5-5.6,12.5-12.489L237.444,49.113z M121.128,247.269
			l-18.8,0.03c-1.883,0-2.903-2.103-1.83-3.57l4.97-6.83c0.29-0.399,0.46-0.89,0.47-1.39l0.481-15.636h18.436l-1.476,25.275
			C123.308,246.34,122.318,247.269,121.128,247.269z M109.668,113.739l7.647-5.904c0.613-0.473,0.973-1.204,0.973-1.979V89.062
			h10.025l10.761,22.615v8.122h-29.592L109.668,113.739z M149.297,89.062l-7.723,16.231l-7.724-16.231H149.297z M174.458,139.882
			h-30.384v-6.188h30.208L174.458,139.882z M108.717,144.882h30.357v3.896h-30.477C108.695,145.575,108.67,146.404,108.717,144.882z
			 M108.869,139.882l0.189-6.188h30.016v6.188H108.869z M144.074,144.882h30.523l0.112,3.896h-30.636V144.882z M174.139,128.695
			h-30.064v-3.896h29.953L174.139,128.695z M139.074,128.695h-29.863l0.002-0.065l0.117-3.831h29.744V128.695z M108.445,153.779
			h30.63v5.65h-30.803L108.445,153.779z M144.074,159.429v-5.65h30.78l0.161,5.65H144.074z M166.541,107.787l7.172,5.902l0.174,6.11
			h-29.813v-8.122l10.76-22.615h10.796v16.794C165.63,106.603,165.964,107.311,166.541,107.787z M159.428,45.945v0.668h-10.237
			V34.138C154.969,34.956,159.428,39.939,159.428,45.945z M138.958,29.207c0-1.445,1.176-2.621,2.621-2.621
			c1.439,0,2.611,1.176,2.611,2.621v2.313v15.093h-5.232V31.52V29.207z M123.72,45.945c0-6.006,4.459-10.989,10.238-11.808v12.476
			H123.72V45.945z M118.292,54.784c0-1.447,0.996-2.992,3.214-3.177c-0.008,0.001,40.144,0.006,40.317,0.014
			c1.673,0.069,3.033,1.488,3.033,3.162v0.01c0,1.748-1.423,3.171-3.171,3.171c-20.695,0-19.957,0-40.223,0
			C119.715,57.965,118.292,56.542,118.292,54.784z M125.451,67.941v-4.977h32.245v4.977c0,8.887-7.23,16.117-16.117,16.117
			C132.687,84.058,125.451,76.828,125.451,67.941z M49.819,70.249c0.006,0.002,0.013,0.002,0.02,0.005
			c1.359,0.421,2.99,0.449,4.434,0.006c0.005-0.002,0.011-0.002,0.016-0.004v15.594h-4.47V70.249z M64.059,92.64h21.135v13.77
			H64.059C64.059,103.258,64.059,99.858,64.059,92.64z M24.285,35.307l26.011-26.01c0.943-0.939,2.593-0.941,3.534,0l26.015,26.015
			c0.98,0.974,0.977,2.554,0.001,3.524c-0.002,0.001-0.004,0.003-0.005,0.005C69.143,49.539,63.154,55.529,53.825,64.857
			c-0.939,0.945-2.578,0.95-3.529-0.005c-0.266-0.266,2.273,2.284-26.011-26.011C23.312,37.867,23.312,36.282,24.285,35.307z
			 M45.838,108.2c-1.379,0-2.5-1.121-2.5-2.5V93.349c0-1.379,1.121-2.5,2.5-2.5c5.627,0,6.485,0,12.721,0c0.3,0,0.5,0.263,0.5,0.5
			v2.163H53c-1.381,0-2.5,1.119-2.5,2.5s1.119,2.5,2.5,2.5h6.059v2H53c-1.381,0-2.5,1.119-2.5,2.5s1.119,2.5,2.5,2.5h6.059v2.188
			c0,0.247-0.206,0.5-0.5,0.5H45.838z M90.194,89.062h23.095v15.565l-6.935,5.354h-16.16V89.062z M182.658,243.87
			c1.046,1.44,0.053,3.557-1.851,3.569l-18.81-0.09c-1.181,0-2.16-0.93-2.23-2.12l-1.479-25.355h18.445l0.444,15.626
			c0.021,0.51,0.18,0.979,0.47,1.39L182.658,243.87z M177.077,109.981l-6.447-5.306V89.062h22.324v20.919H177.077z M216.173,65.586
			h-4.55c-1.241,0-2.331-0.902-2.431-2.018c-0.125-1.361,0.923-2.472,2.24-2.472h4.74c1.381,0,2.5-1.119,2.5-2.5v-9.483
			c0-1.926,1.567-3.493,3.493-3.493h0.667v10.31c0,1.381,1.119,2.5,2.5,2.5s2.5-1.119,2.5-2.5V45.62h1.117
			c1.926,0,3.493,1.567,3.493,3.493v22.163h-13.771v-3.19C218.673,66.705,217.554,65.586,216.173,65.586z"/>
	</g>
</g>
</svg>
