<?xml version="1.0" encoding="UTF-8"?>
<!DOCTYPE svg PUBLIC "-//W3C//DTD SVG 1.1//EN" "http://www.w3.org/Graphics/SVG/1.1/DTD/svg11.dtd">
<!-- Creator: CorelDRAW -->
<svg xmlns="http://www.w3.org/2000/svg" xml:space="preserve" width="6.82666in" height="6.82666in" style="shape-rendering:geometricPrecision; text-rendering:geometricPrecision; image-rendering:optimizeQuality; fill-rule:evenodd; clip-rule:evenodd"
viewBox="0 0 6.82666 6.82666"
 xmlns:xlink="http://www.w3.org/1999/xlink">
 <defs>
  <style type="text/css">
   <![CDATA[
    .fil38 {fill:#6E5946}
    .fil33 {fill:#E3A56A}
    .fil34 {fill:#E4AA73}
    .fil1 {fill:#E4AB75}
    .fil7 {fill:#E5AD77}
    .fil21 {fill:#E5AD79}
    .fil15 {fill:#E6B07D}
    .fil28 {fill:#E6B17E}
    .fil24 {fill:#E8B585}
    .fil0 {fill:#E8B586}
    .fil16 {fill:#E9B98C}
    .fil14 {fill:#EABB8E}
    .fil8 {fill:#EABC90}
    .fil3 {fill:#EBC097}
    .fil12 {fill:#ECC39C}
    .fil35 {fill:#ECC49D}
    .fil6 {fill:#ECC59E}
    .fil2 {fill:#EDC5A0}
    .fil31 {fill:#EDC6A2}
    .fil36 {fill:#EDC7A3}
    .fil20 {fill:#EDC8A5}
    .fil13 {fill:#EECBA9}
    .fil10 {fill:#EFCCAA}
    .fil9 {fill:#F0D0B2}
    .fil18 {fill:#F0D1B3}
    .fil11 {fill:#F1D2B5}
    .fil5 {fill:#F1D3B5}
    .fil17 {fill:#F2D4B9}
    .fil30 {fill:#F3D6BC}
    .fil4 {fill:#F3D7BD}
    .fil19 {fill:#F3D9C0}
    .fil22 {fill:#F3DAC2}
    .fil29 {fill:#F3DBC3}
    .fil23 {fill:#F3DCC4}
    .fil26 {fill:#F4DDC7}
    .fil25 {fill:#F5E1CC}
    .fil27 {fill:#F6E3D0}
    .fil32 {fill:#F7E6D6}
    .fil37 {fill:#6E5946;fill-rule:nonzero}
   ]]>
  </style>
 </defs>
 <g id="Layer_x0020_1">
  <metadata id="CorelCorpID_0Corel-Layer"/>
  <g id="_454762896">
   <path id="_454735368" class="fil0" d="M3.41333 0.103327c1.82806,0 3.31,1.48194 3.31,3.31 0,1.82806 -1.48195,3.31 -3.31,3.31 -1.82806,0 -3.31,-1.48194 -3.31,-3.31 0,-1.82806 1.48194,-3.31 3.31,-3.31z"/>
   <g>
    <path id="_454734216" class="fil1" d="M0.848205 1.34936l-0.00887008 -0.0168701c0.00756299,-0.00934646 0.0150433,-0.0187638 0.0227087,-0.0280236l-0.0138386 0.0448937z"/>
    <path id="_454734120" class="fil2" d="M0.103457 3.42354l0.0735512 0.129169 -0.056189 0.202551c-0.0111969,-0.109087 -0.0170236,-0.219756 -0.0173622,-0.33172z"/>
    <path id="_454734792" class="fil3" d="M0.177008 3.55271l-0.0735512 -0.129169c-1.1811e-005,-0.00341339 -0.000129921,-0.00679921 -0.000129921,-0.0102126 0,-0.0521575 0.00135433,-0.103988 0.00374409,-0.155555l0.069937 0.294937z"/>
    <path id="_454734576" class="fil4" d="M1.18756 5.86327l0.776106 -0.143965 -0.0895039 0.624882c-0.249299,-0.131193 -0.479945,-0.293059 -0.686602,-0.480917z"/>
    <path id="_454734456" class="fil5" d="M0.877728 5.54074l0.569535 -2.23291 0.516406 2.41147 -0.776106 0.143965c-0.110394,-0.100366 -0.213831,-0.20822 -0.309835,-0.322528z"/>
    <path id="_454734288" class="fil6" d="M1.44726 3.30783l-1.24763 -0.689327c0.0193661,-0.0785591 0.0415315,-0.156004 0.0663937,-0.232244l1.25362 -0.277972 -0.0723819 1.19954z"/>
    <path id="_454734504" class="fil7" d="M0.839335 1.33249l0.00887008 0.0168701 -0.0254646 0.00373622c0.00549213,-0.00689764 0.0110472,-0.013752 0.0165945,-0.0206063z"/>
    <path id="_454734720" class="fil0" d="M0.82274 1.3531l0.0254646 -0.00373622 -0.185465 0.22226c0.0503858,-0.0750866 0.103803,-0.147957 0.16,-0.218524z"/>
    <path id="_454734624" class="fil8" d="M0.66274 1.57162l0.185465 -0.22226 0.671441 0.758929 -1.25362 0.277972c0.0950551,-0.291386 0.229276,-0.565063 0.396717,-0.814642z"/>
    <path id="_454734696" class="fil2" d="M0.177008 3.55271l0 0 -0.069937 -0.294937c0.0101496,-0.219358 0.0417402,-0.433091 0.0925591,-0.639268l1.24763 0.689327 -1.27026 0.244878z"/>
    <path id="_454766472" class="fil9" d="M0.206906 4.23798l1.24036 -0.930142 -0.569535 2.23291c-0.313378,-0.373122 -0.546071,-0.81628 -0.670823,-1.30277z"/>
    <path id="_454766352" class="fil10" d="M0.120819 3.75526l0.056189 -0.202551 1.27026 -0.244878 -1.24036 0.930142c-0.040185,-0.15672 -0.0691732,-0.317925 -0.0860866,-0.482713z"/>
    <polygon id="_454766520" class="fil11" points="2.78986,4.64206 1.44726,3.30783 2.33552,3.05077 "/>
    <polygon id="_454766448" class="fil12" points="2.33552,3.05077 1.51965,2.10829 2.08763,1.12902 "/>
    <polygon id="_454766040" class="fil13" points="1.44726,3.30783 1.51965,2.10829 2.33552,3.05077 "/>
    <path id="_454765968" class="fil14" d="M4.66965 2.62238l-0.660961 -1.18732 1.14093 -0.840087c0.0476339,0.0294094 0.0944409,0.0600118 0.140433,0.0917283l-0.620406 1.93568z"/>
    <path id="_454765920" class="fil15" d="M0.848205 1.34936l0.0138386 -0.0448937c0.166319,-0.200984 0.355949,-0.381945 0.564709,-0.538839l0.660882 0.363386 -1.23943 0.220346z"/>
    <polygon id="_454766016" class="fil16" points="1.51965,2.10829 1.51965,2.10829 0.848205,1.34936 2.08763,1.12902 "/>
    <path id="_454765632" class="fil7" d="M2.08763 1.12902l-0.660882 -0.363386c0.201055,-0.151091 0.419937,-0.279665 0.652823,-0.382343l0.00805906 0.745728z"/>
    <polygon id="_454765824" class="fil17" points="1.96367,5.71931 1.96367,5.71931 1.44726,3.30783 2.78986,4.64206 "/>
    <polygon id="_454766256" class="fil18" points="4.34943,4.32379 3.48197,3.73626 4.66965,2.62238 "/>
    <path id="_454766208" class="fil19" d="M1.87417 6.34419l0.0895039 -0.624882 0.602343 0.894382c-0.242646,-0.0641299 -0.474378,-0.155055 -0.691846,-0.2695z"/>
    <polygon id="_454765848" class="fil20" points="3.48197,3.73626 4.00869,1.43506 4.66965,2.62238 "/>
    <path id="_454765008" class="fil21" d="M2.08763 1.12902l0 0 -0.00805906 -0.745728c0.1155,-0.0509173 0.234398,-0.0955315 0.356354,-0.133201l1.08731 0.230114 -1.43561 0.648815z"/>
    <polygon id="_454764816" class="fil5" points="2.78986,4.64206 2.78986,4.64206 2.33552,3.05077 3.48197,3.73626 "/>
    <polygon id="_454765272" class="fil22" points="3.62653,6.6617 1.96367,5.71931 2.78986,4.64206 "/>
    <path id="_454765104" class="fil23" d="M2.56601 6.61369l-0.602343 -0.894382 1.66286 0.942394 -0.117335 0.0601535c-0.0318504,0.000905512 -0.0637913,0.00148031 -0.0958622,0.00148031 -0.292906,0 -0.576858,-0.0382283 -0.847319,-0.109646z"/>
    <polygon id="_454765200" class="fil13" points="3.48197,3.73626 3.48197,3.73626 2.33552,3.05077 4.00869,1.43506 "/>
    <polygon id="_454765512" class="fil3" points="2.33552,3.05077 2.33552,3.05077 2.08763,1.12902 4.00869,1.43506 "/>
    <polygon id="_454765152" class="fil24" points="4.00869,1.43506 2.08763,1.12902 3.52324,0.480201 "/>
    <path id="_454765224" class="fil25" d="M3.50919 6.72185l0.117335 -0.0601535 0.0260118 0.0529606c-0.0475157,0.0033937 -0.0952953,0.00582677 -0.143346,0.00719291z"/>
    <polygon id="_454765464" class="fil26" points="3.62653,6.6617 3.62653,6.6617 2.78986,4.64206 4.25658,6.29448 "/>
    <polygon id="_454764216" class="fil22" points="4.25658,6.29448 4.25658,6.29448 2.78986,4.64206 4.34943,4.32379 "/>
    <path id="_454764096" class="fil27" d="M3.65254 6.71466l-0.0260118 -0.0529606 0.630051 -0.367217 -0.0383504 0.330091c-0.183016,0.0457244 -0.372031,0.0762559 -0.565689,0.0900866z"/>
    <polygon id="_454764600" class="fil17" points="2.78986,4.64206 3.48197,3.73626 4.34943,4.32379 "/>
    <path id="_454764288" class="fil28" d="M4.00869 1.43506l0 0 -0.485453 -0.954862 1.35457 -0.0358346c0.0931693,0.0460433 0.183862,0.0963071 0.271819,0.15061l-1.14093 0.840087z"/>
    <polygon id="_454764264" class="fil23" points="4.25658,6.29448 4.34943,4.32379 5.32034,4.96034 "/>
    <path id="_454764192" class="fil1" d="M3.52324 0.480201l0 0 -1.08731 -0.230114c0.0435866,-0.0134528 0.0875945,-0.0259331 0.131929,-0.0376142l2.17713 0.169898c0.0448031,0.0197126 0.0890787,0.0403819 0.132815,0.0619961l-1.35457 0.0358346z"/>
    <path id="_454764456" class="fil29" d="M5.77469 5.73252l-0.45435 -0.772177 0.671319 -0.734358 0.0964409 1.13714c-0.0954646,0.130717 -0.200236,0.254177 -0.313409,0.369398z"/>
    <polygon id="_454764624" class="fil30" points="5.32034,4.96034 5.32034,4.96034 4.34943,4.32379 5.99166,4.22598 "/>
    <path id="_454764408" class="fil31" d="M5.99166 4.22598l-1.322 -1.6036 1.41274 -1.16667c0.0535669,0.0729134 0.104248,0.148075 0.151819,0.225362l-0.242551 2.5449z"/>
    <path id="_454764720" class="fil16" d="M4.66965 2.62238l0.620406 -1.93568c0.305098,0.210398 0.573091,0.470657 0.792331,0.769012l-1.41274 1.16667z"/>
    <path id="_454764672" class="fil25" d="M4.96144 6.33946l-0.704866 -0.0449803 1.06376 -1.33415 0.45435 0.772177c-0.237339,0.241591 -0.511409,0.446925 -0.813244,0.606949z"/>
    <polygon id="_454763952" class="fil9" points="4.34943,4.32379 4.66965,2.62238 5.99166,4.22598 "/>
    <path id="_454763928" class="fil32" d="M4.21823 6.62457l0.0383504 -0.330091 0.704866 0.0449803c-0.232673,0.123343 -0.481764,0.219783 -0.743217,0.28511z"/>
    <path id="_454763856" class="fil33" d="M3.91767 0.141508l-1.12388 0.0199606c0.20072,-0.0380118 0.407768,-0.0581417 0.619543,-0.0581417 0.171472,0 0.339898,0.0130433 0.504339,0.0381811z"/>
    <path id="_454763832" class="fil34" d="M4.74499 0.38237l-2.17713 -0.169898c0.074315,-0.0195748 0.149677,-0.0365433 0.225929,-0.0510039l1.12388 -0.0199606c0.28987,0.0443819 0.567311,0.126461 0.827323,0.240862z"/>
    <path id="_454763496" class="fil35" d="M5.99166 4.22598l0.242551 -2.5449c0.303315,0.49287 0.480941,1.07124 0.488598,1.6906l-0.73115 0.854303z"/>
    <path id="_454763232" class="fil36" d="M5.99166 4.22598l0.73115 -0.854303c0.000169291,0.0138858 0.000527559,0.0277283 0.000527559,0.0416535 0,0.224106 -0.0223976,0.442961 -0.0648504,0.654571l-0.666827 0.158079z"/>
    <path id="_454763640" class="fil19" d="M6.0881 5.36312l-0.0964409 -1.13714 0.488276 0.434835c-0.102224,0.250921 -0.234256,0.486504 -0.391835,0.702303z"/>
    <path id="_454763592" class="fil18" d="M6.47993 4.66081l-0.488276 -0.434835 0.666827 -0.158079c-0.0412126,0.205126 -0.10137,0.403382 -0.178551,0.592913z"/>
   </g>
   <path id="_454763112" class="fil37" d="M3.41333 0c0.942551,0 1.79589,0.382055 2.41358,0.999752 0.617697,0.617693 0.999752,1.47103 0.999752,2.41358 0,0.942551 -0.382055,1.79589 -0.999752,2.41358 -0.617693,0.617697 -1.47103,0.999752 -2.41358,0.999752 -0.942551,0 -1.79589,-0.382055 -2.41358,-0.999752 -0.617697,-0.617693 -0.999752,-1.47103 -0.999752,-2.41358 0,-0.942551 0.382055,-1.79589 0.999752,-2.41358 0.617693,-0.617697 1.47103,-0.999752 2.41358,-0.999752zm2.26731 1.14602c-0.580248,-0.580248 -1.38187,-0.939146 -2.26731,-0.939146 -0.885445,0 -1.68707,0.358898 -2.26731,0.939146 -0.580248,0.580248 -0.939146,1.38187 -0.939146,2.26731 0,0.885445 0.358898,1.68707 0.939146,2.26731 0.580248,0.580248 1.38187,0.939146 2.26731,0.939146 0.885445,0 1.68707,-0.358898 2.26731,-0.939146 0.580248,-0.580248 0.939146,-1.38187 0.939146,-2.26731 0,-0.885445 -0.358898,-1.68707 -0.939146,-2.26731z"/>
  </g>
  <path class="fil38" d="M1.26037 2.34183l4.30591 0c0.0495433,0 0.0897087,0.0401654 0.0897087,0.0897087l0 1.96359c0,0.0495394 -0.0401654,0.0897087 -0.0897087,0.0897087l-4.30591 0c-0.0495433,0 -0.0897087,-0.0401693 -0.0897087,-0.0897087l0 -1.96359c0,-0.0495433 0.0401654,-0.0897087 0.0897087,-0.0897087zm0.83461 1.19355c0.105894,0.0278701 0.197433,0.0845039 0.262276,0.159205 0.0648937,0.0747638 0.103472,0.167543 0.103472,0.267689l0 0.116909c0,0.0299843 -0.0279882,0.0542953 -0.0625079,0.0542953l-0.90224 0c-0.0345197,0 -0.0625118,-0.024311 -0.0625118,-0.0542953l0 -0.116909c0,-0.100146 0.0385827,-0.192929 0.103472,-0.267693 0.0661575,-0.0762126 0.16011,-0.13363 0.268732,-0.160862l-8.26772e-005 -0.000244094c0.0230669,-0.00577559 0.0468346,0.0005 0.0623976,0.0145472l0.0791142 0.0687126 0.0799921 -0.0694803 -3.93701e-006 -3.93701e-006c0.0183504,-0.0159409 0.0452795,-0.0198976 0.0678898,-0.0118701zm-0.518547 -0.48378c-0.000484252,0.00291732 -0.00073622,0.00590551 -0.00073622,0.00895276 0,0.0063189 0.00108268,0.0123819 0.00306299,0.0180236 0.0112638,0.0979449 0.0527008,0.195992 0.109374,0.273079 0.0697835,0.0949134 0.16448,0.16013 0.258969,0.16013 0.0944803,0 0.189181,-0.0652165 0.258965,-0.16013 0.0667953,-0.0908622 0.112437,-0.210854 0.112437,-0.325469 0,-0.122382 -0.0443346,-0.202835 -0.116,-0.253543 -0.0678976,-0.0480512 -0.157752,-0.065752 -0.255402,-0.065752 -0.0976575,0 -0.187512,0.0177008 -0.255406,0.065752 -0.0716693,0.0507087 -0.116,0.131157 -0.116,0.253543 0,0.00844882 0.000251969,0.0169252 0.00073622,0.0254134zm0.117417 0.0577953c0.0375669,-0.00620866 0.0760433,-0.0176535 0.111882,-0.0339213 0.0410512,-0.0186378 0.0792087,-0.0439134 0.109535,-0.0753622 0.0147835,0.0144724 0.0304764,0.0284173 0.0468346,0.0416063 0.0681299,0.0549173 0.149358,0.0984961 0.224913,0.114886 -0.0161142,0.0472441 -0.0398504,0.0922638 -0.0683307,0.131 -0.050374,0.0685118 -0.113654,0.115587 -0.171583,0.115587 -0.0579331,0 -0.121217,-0.0470748 -0.171587,-0.115587 -0.0378504,-0.0514882 -0.0673268,-0.114067 -0.0816654,-0.178209zm2.43187 -0.408437l1.1362 0c0.0247677,0 0.0448543,0.0200827 0.0448543,0.0448543l0 1.33504c0,0.0247717 -0.0200866,0.0448543 -0.0448543,0.0448543l-1.1362 0c-0.0247677,0 -0.0448543,-0.0200827 -0.0448543,-0.0448543l0 -1.33504c0,-0.0247717 0.0200866,-0.0448543 0.0448543,-0.0448543zm1.09135 0.0897087l-1.0465 0 0 1.24533 1.0465 0 0 -1.24533zm-2.52471 0.116098c-0.0495433,0 -0.0897087,0.0401654 -0.0897087,0.0897087 0,0.0495433 0.0401654,0.0897087 0.0897087,0.0897087l1.1362 0c0.0495433,0 0.0897087,-0.0401654 0.0897087,-0.0897087 0,-0.0495433 -0.0401654,-0.0897087 -0.0897087,-0.0897087l-1.1362 0zm0 0.416858c-0.0495433,0 -0.0897087,0.0401654 -0.0897087,0.0897087 0,0.0495433 0.0401654,0.0897087 0.0897087,0.0897087l1.1362 0c0.0495433,0 0.0897087,-0.0401654 0.0897087,-0.0897087 0,-0.0495433 -0.0401654,-0.0897087 -0.0897087,-0.0897087l-1.1362 0zm0 0.416858c-0.0495433,0 -0.0897087,0.0401654 -0.0897087,0.0897087 0,0.0495433 0.0401654,0.0897087 0.0897087,0.0897087l1.1362 0c0.0495433,0 0.0897087,-0.0401654 0.0897087,-0.0897087 0,-0.0495433 -0.0401654,-0.0897087 -0.0897087,-0.0897087l-1.1362 0z"/>
 </g>
</svg>
