<?xml version="1.0" encoding="UTF-8"?>
<!DOCTYPE svg PUBLIC "-//W3C//DTD SVG 1.1//EN" "http://www.w3.org/Graphics/SVG/1.1/DTD/svg11.dtd">
<!-- Creator: CorelDRAW -->
<svg xmlns="http://www.w3.org/2000/svg" xml:space="preserve" width="6.82666in" height="6.82666in" style="shape-rendering:geometricPrecision; text-rendering:geometricPrecision; image-rendering:optimizeQuality; fill-rule:evenodd; clip-rule:evenodd"
viewBox="0 0 6.82666 6.82666"
 xmlns:xlink="http://www.w3.org/1999/xlink">
 <defs>
  <style type="text/css">
   <![CDATA[
    .fil31 {fill:#819DD0}
    .fil1 {fill:#88A3D3}
    .fil7 {fill:#8BA5D4}
    .fil16 {fill:#90A9D6}
    .fil24 {fill:#96ADD8}
    .fil8 {fill:#97AFD9}
    .fil17 {fill:#9DB2DB}
    .fil15 {fill:#9EB3DC}
    .fil0 {fill:#9FB5DD}
    .fil9 {fill:#A0B5DC}
    .fil3 {fill:#A6B9DD}
    .fil13 {fill:#AABCDF}
    .fil32 {fill:#ABBDDF}
    .fil6 {fill:#ACBFE0}
    .fil2 {fill:#ADC0E0}
    .fil33 {fill:#AFC1E1}
    .fil21 {fill:#B1C1E2}
    .fil14 {fill:#B4C4E3}
    .fil11 {fill:#B6C6E4}
    .fil10 {fill:#BBCAE5}
    .fil19 {fill:#BDCBE5}
    .fil12 {fill:#BECCE6}
    .fil5 {fill:#C0CEE6}
    .fil18 {fill:#C1CFE7}
    .fil29 {fill:#C4D1E8}
    .fil4 {fill:#C5D2E9}
    .fil20 {fill:#C8D3EA}
    .fil22 {fill:#C9D5EA}
    .fil28 {fill:#CAD5EB}
    .fil23 {fill:#CAD6EB}
    .fil26 {fill:#CED8EB}
    .fil25 {fill:#D3DCEE}
    .fil27 {fill:#D5DDEE}
    .fil30 {fill:#DAE2F0}
    .fil34 {fill:#505B6E;fill-rule:nonzero}
   ]]>
  </style>
 </defs>
 <g id="Layer_x0020_1">
  <metadata id="CorelCorpID_0Corel-Layer"/>
  <g id="_454363680">
   <path id="_454368720" class="fil0" d="M3.41333 0.103323c1.82806,0 3.31001,1.48194 3.31001,3.31001 0,1.82806 -1.48195,3.31001 -3.31001,3.31001 -1.82806,0 -3.31001,-1.48195 -3.31001,-3.31001 0,-1.82806 1.48194,-3.31001 3.31001,-3.31001z"/>
   <g>
    <path id="_454368696" class="fil1" d="M0.848118 1.34935l-0.00883465 -0.0168031c0.00753937,-0.00931496 0.0149882,-0.0187008 0.022626,-0.0279331l-0.0137913 0.0447362z"/>
    <path id="_454367688" class="fil2" d="M0.103453 3.42362l0.0735079 0.129094 -0.0561614 0.202437c-0.011185,-0.109024 -0.0170039,-0.219634 -0.0173465,-0.331531z"/>
    <path id="_454367568" class="fil3" d="M0.176961 3.55271l-0.0735079 -0.129094c-1.1811e-005,-0.00343701 -0.000129921,-0.00684646 -0.000129921,-0.0102874 0,-0.0520906 0.0013622,-0.103858 0.00374016,-0.155358l0.0698976 0.29474z"/>
    <path id="_454368144" class="fil4" d="M1.18753 5.86325l0.77622 -0.144016 -0.0895591 0.624976c-0.249323,-0.131205 -0.479988,-0.293087 -0.686661,-0.480961z"/>
    <path id="_454367880" class="fil5" d="M0.877665 5.54067l0.569555 -2.23284 0.516531 2.4114 -0.77622 0.144016c-0.110406,-0.100378 -0.21385,-0.208252 -0.309866,-0.322575z"/>
    <path id="_454368120" class="fil6" d="M1.44722 3.30783l-1.2476 -0.689287c0.0193701,-0.0785866 0.0415433,-0.156059 0.0664173,-0.232323l1.25352 -0.278016 -0.0723386 1.19963z"/>
    <path id="_454368048" class="fil7" d="M0.839283 1.33255l0.00883465 0.0168031 -0.0253661 0.00372047c0.00547244,-0.00687402 0.0110039,-0.0136969 0.0165315,-0.0205236z"/>
    <path id="_454368192" class="fil8" d="M0.822752 1.35307l0.0253661 -0.00372047 -0.185051 0.22176c0.0502874,-0.0749213 0.103606,-0.147622 0.159685,-0.218039z"/>
    <path id="_454367520" class="fil9" d="M0.663067 1.57111l0.185051 -0.22176 0.671441 0.75885 -1.25352 0.278016c0.0951181,-0.291567 0.229441,-0.565406 0.397031,-0.815106z"/>
    <path id="_454367736" class="fil2" d="M0.176961 3.55271l0 0 -0.0698976 -0.29474c0.0101417,-0.219417 0.0417244,-0.433201 0.0925551,-0.639429l1.2476 0.689287 -1.27026 0.244882z"/>
    <path id="_454367592" class="fil10" d="M0.20689 4.23793l1.24033 -0.930094 -0.569555 2.23284c-0.313362,-0.373122 -0.546035,-0.816268 -0.670776,-1.30275z"/>
    <path id="_454368216" class="fil11" d="M0.120799 3.75515l0.0561614 -0.202437 1.27026 -0.244882 -1.24033 0.930094c-0.040189,-0.15674 -0.0691811,-0.317969 -0.0860906,-0.482776z"/>
    <polygon id="_454366752" class="fil12" points="2.78978,4.64198 1.44722,3.30783 2.33528,3.05077 "/>
    <polygon id="_454367352" class="fil13" points="2.33528,3.05077 1.51956,2.1082 2.08767,1.12901 "/>
    <polygon id="_454367088" class="fil14" points="1.44722,3.30783 1.51956,2.1082 2.33528,3.05077 "/>
    <path id="_454367040" class="fil15" d="M4.66963 2.62234l-0.661004 -1.18728 1.14099 -0.840094c0.047626,0.0294016 0.0944252,0.06 0.140406,0.0917087l-0.62039 1.93567z"/>
    <path id="_454366728" class="fil16" d="M0.848118 1.34935l0.0137913 -0.0447362c0.166346,-0.201043 0.356024,-0.382063 0.564839,-0.538992l0.660925 0.363382 -1.23956 0.220346z"/>
    <polygon id="_454366920" class="fil17" points="1.51956,2.1082 1.51956,2.1082 0.848118,1.34935 2.08767,1.12901 "/>
    <path id="_454366824" class="fil7" d="M2.08767 1.12901l-0.660925 -0.363382c0.201039,-0.151083 0.419906,-0.279646 0.652772,-0.382319l0.00815354 0.745701z"/>
    <polygon id="_454366968" class="fil18" points="1.96375,5.71923 1.96375,5.71923 1.44722,3.30783 2.78978,4.64198 "/>
    <polygon id="_454367328" class="fil19" points="4.34952,4.32375 3.4819,3.73626 4.66963,2.62234 "/>
    <path id="_454366872" class="fil20" d="M1.87419 6.34421l0.0895591 -0.624976 0.602114 0.894421c-0.242583,-0.064126 -0.474256,-0.155031 -0.691673,-0.269445z"/>
    <polygon id="_454366368" class="fil21" points="3.4819,3.73626 4.00862,1.43506 4.66963,2.62234 "/>
    <path id="_454366248" class="fil7" d="M2.08767 1.12901l0 0 -0.00815354 -0.745701c0.115476,-0.0509055 0.234346,-0.0955197 0.356276,-0.133185l1.08737 0.230067 -1.43549 0.648819z"/>
    <polygon id="_454366224" class="fil5" points="2.78978,4.64198 2.78978,4.64198 2.33528,3.05077 3.4819,3.73626 "/>
    <polygon id="_454366032" class="fil22" points="3.62645,6.66163 1.96375,5.71923 2.78978,4.64198 "/>
    <path id="_454366440" class="fil23" d="M2.56587 6.61365l-0.602114 -0.894421 1.6627 0.942402 -0.117492 0.0602362c-0.0317756,0.000901575 -0.0636339,0.0014685 -0.0956299,0.0014685 -0.292961,0 -0.576957,-0.0382402 -0.847465,-0.109685z"/>
    <polygon id="_454366632" class="fil14" points="3.4819,3.73626 3.4819,3.73626 2.33528,3.05077 4.00862,1.43506 "/>
    <polygon id="_454365960" class="fil3" points="2.33528,3.05077 2.33528,3.05077 2.08767,1.12901 4.00862,1.43506 "/>
    <polygon id="_454366608" class="fil24" points="4.00862,1.43506 2.08767,1.12901 3.52317,0.480189 "/>
    <path id="_454366176" class="fil25" d="M3.50896 6.72187l0.117492 -0.0602362 0.0260472 0.0530354c-0.0475787,0.00340157 -0.0954252,0.00583465 -0.143539,0.00720079z"/>
    <polygon id="_454366344" class="fil26" points="3.62645,6.66163 3.62645,6.66163 2.78978,4.64198 4.25651,6.29437 "/>
    <polygon id="_454366392" class="fil22" points="4.25651,6.29437 4.25651,6.29437 2.78978,4.64198 4.34952,4.32375 "/>
    <path id="_454365696" class="fil27" d="M3.6525 6.71467l-0.0260472 -0.0530354 0.630055 -0.367264 -0.0383661 0.330228c-0.183004,0.0457126 -0.372,0.0762402 -0.565642,0.0900709z"/>
    <polygon id="_454365408" class="fil18" points="2.78978,4.64198 3.4819,3.73626 4.34952,4.32375 "/>
    <path id="_454365792" class="fil16" d="M4.00862 1.43506l0 0 -0.485457 -0.954866 1.35469 -0.0358071c0.0931457,0.0460354 0.183823,0.0962913 0.27176,0.150579l-1.14099 0.840094z"/>
    <polygon id="_454365576" class="fil23" points="4.25651,6.29437 4.34952,4.32375 5.32031,4.96022 "/>
    <path id="_454365360" class="fil1" d="M3.52317 0.480189l0 0 -1.08737 -0.230067c0.043563,-0.0134488 0.0875472,-0.0259173 0.131858,-0.0375984l2.17747 0.169902c0.0447717,0.0197008 0.0890197,0.0403583 0.132724,0.0619567l-1.35469 0.0358071z"/>
    <path id="_454365240" class="fil28" d="M5.77474 5.73247l-0.454433 -0.772248 0.67128 -0.734358 0.0965276 1.13723c-0.0954567,0.130705 -0.200213,0.254161 -0.313374,0.369374z"/>
    <polygon id="_454365552" class="fil29" points="5.32031,4.96022 5.32031,4.96022 4.34952,4.32375 5.99159,4.22586 "/>
    <path id="_454365384" class="fil2" d="M5.99159 4.22586l-1.32196 -1.60352 1.41274 -1.16666c0.0535591,0.0728976 0.104224,0.148031 0.151787,0.225303l-0.242563 2.54488z"/>
    <path id="_454365864" class="fil17" d="M4.66963 2.62234l0.62039 -1.93567c0.305106,0.210398 0.573102,0.470657 0.79235,0.769008l-1.41274 1.16666z"/>
    <path id="_454365912" class="fil25" d="M4.96159 6.33939l-0.705087 -0.0450197 1.0638 -1.33415 0.454433 0.772248c-0.237315,0.241575 -0.51135,0.446898 -0.81315,0.606921z"/>
    <polygon id="_454364520" class="fil10" points="4.34952,4.32375 4.66963,2.62234 5.99159,4.22586 "/>
    <path id="_454364760" class="fil30" d="M4.21814 6.6246l0.0383661 -0.330228 0.705087 0.0450197c-0.23274,0.123394 -0.481913,0.21987 -0.743453,0.285209z"/>
    <path id="_454364424" class="fil31" d="M3.91771 0.141512l-1.12419 0.0200039c0.200803,-0.0380433 0.407937,-0.0581929 0.619807,-0.0581929 0.171488,0 0.339921,0.0130433 0.504382,0.038189z"/>
    <path id="_454365048" class="fil1" d="M4.74513 0.382425l-2.17747 -0.169902c0.0742953,-0.0195787 0.149634,-0.0365433 0.22587,-0.0510079l1.12419 -0.0200039c0.289902,0.0443937 0.567378,0.126484 0.827413,0.240913z"/>
    <path id="_454365072" class="fil32" d="M5.99159 4.22586l0.242563 -2.54488c0.303327,0.492858 0.480972,1.07121 0.488654,1.69056l-0.731217 0.854327z"/>
    <path id="_454364640" class="fil33" d="M5.99159 4.22586l0.731217 -0.854327c0.000173228,0.0139331 0.000531496,0.0278228 0.000531496,0.0417953 0,0.224063 -0.0223937,0.442878 -0.0648307,0.654453l-0.666917 0.158079z"/>
    <path id="_454364448" class="fil20" d="M6.08812 5.36309l-0.0965276 -1.13723 0.488366 0.434909c-0.102224,0.250929 -0.23426,0.486516 -0.391839,0.702323z"/>
    <path id="_454364856" class="fil19" d="M6.47996 4.66077l-0.488366 -0.434909 0.666917 -0.158079c-0.0412047,0.20515 -0.101362,0.403433 -0.178551,0.592988z"/>
   </g>
   <path id="_454364712" class="fil34" d="M3.41333 0c0.942551,0 1.79589,0.382055 2.41358,0.999752 0.617697,0.617693 0.999752,1.47103 0.999752,2.41358 0,0.942551 -0.382055,1.79589 -0.999752,2.41358 -0.617693,0.617697 -1.47103,0.999752 -2.41358,0.999752 -0.942551,0 -1.79589,-0.382055 -2.41358,-0.999752 -0.617697,-0.617693 -0.999752,-1.47103 -0.999752,-2.41358 0,-0.942551 0.382055,-1.79589 0.999752,-2.41358 0.617693,-0.617697 1.47103,-0.999752 2.41358,-0.999752zm2.26731 1.14602c-0.580248,-0.580248 -1.38187,-0.939146 -2.26731,-0.939146 -0.885445,0 -1.68707,0.358898 -2.26731,0.939146 -0.580248,0.580248 -0.939146,1.38187 -0.939146,2.26731 0,0.885445 0.358898,1.68707 0.939146,2.26731 0.580248,0.580248 1.38187,0.939146 2.26731,0.939146 0.885445,0 1.68707,-0.358898 2.26731,-0.939146 0.580248,-0.580248 0.939146,-1.38187 0.939146,-2.26731 0,-0.885445 -0.358898,-1.68707 -0.939146,-2.26731z"/>
  </g>
  <g id="_454363008">
   <g>
    <path id="_454364280" class="fil34" d="M1.49414 1.88296l3.83839 0c0.044626,0 0.0808071,0.0361811 0.0808071,0.080811l0 2.28368c0,0.044626 -0.0361811,0.0808071 -0.0808071,0.0808071l-3.83839 0c-0.044626,0 -0.0808071,-0.0361811 -0.0808071,-0.0808071l0 -2.28368c0,-0.0446299 0.0361811,-0.080811 0.0808071,-0.080811zm3.75758 0.161618l-3.67677 0 0 2.12206 3.67677 0 0 -2.12206z"/>
    <path id="_454364208" class="fil34" d="M1.56866 3.74536c-0.044626,0 -0.0808071,0.115433 -0.0808071,0.257815 0,0.142378 0.0361811,0.257815 0.0808071,0.257815l3.74944 0c0.044626,0 0.0808071,-0.115437 0.0808071,-0.257815 0,-0.142382 -0.0361811,-0.257815 -0.0808071,-0.257815l-3.74944 0zm1.84467 0.218138c0.044626,0 0.0808071,0.0361811 0.0808071,0.0808071 0,0.044626 -0.0361811,0.0808071 -0.0808071,0.0808071 -0.044626,0 -0.0808071,-0.0361811 -0.0808071,-0.0808071 0,-0.044626 0.0361811,-0.0808071 0.0808071,-0.0808071z"/>
    <path id="_454364016" class="fil34" d="M3.15333 4.40906l0 0.320256c0,0.044626 0.129866,0.0808071 0.290051,0.0808071 0.160181,0 0.290047,-0.0361811 0.290047,-0.0808071l0 -0.320256 -0.580098 0z"/>
    <path id="_454364160" class="fil34" d="M2.70365 4.78801c-0.057315,0.0160394 -0.0858228,0.0626772 -0.0636654,0.104165 0.0221575,0.0414843 0.0865945,0.0621181 0.143909,0.0460827l1.31819 -0.000314961c0.0570787,0.0163858 0.121709,-0.00382677 0.144346,-0.0451378 0.0226378,-0.041315 -0.0052874,-0.0880945 -0.0623661,-0.10448 -0.241945,-0.0697087 -0.486642,-0.104929 -0.734094,-0.10511 -0.247114,-0.000185039 -0.49589,0.0345669 -0.746315,0.104795z"/>
   </g>
   <path id="_454364112" class="fil34" d="M2.52069 2.78183c0.0400236,0.0105354 0.074622,0.0319409 0.0991299,0.0601732 0.0245236,0.0282559 0.0391063,0.0633228 0.0391063,0.101177l0 0.044185c0,0.0113307 -0.0105787,0.0205197 -0.023626,0.0205197l-0.341004 0c-0.0130472,0 -0.023626,-0.00918898 -0.023626,-0.0205197l0 -0.044185c0,-0.0378543 0.0145827,-0.0729252 0.0391063,-0.101181 0.0250039,-0.0288031 0.0605118,-0.0505039 0.101567,-0.0607992l-3.14961e-005 -9.05512e-005c0.00872047,-0.00218504 0.0177047,0.000188976 0.0235866,0.0055l0.0298976 0.0259685 0.0302362 -0.0262598 -3.93701e-006 -3.93701e-006c0.00693701,-0.00602362 0.0171142,-0.00751575 0.0256614,-0.00448425zm-0.195988 -0.182846c-0.000181102,0.00110236 -0.000275591,0.00223228 -0.000275591,0.00338189 0,0.00238976 0.000405512,0.0046811 0.00115748,0.00681102 0.00425591,0.0370197 0.0199173,0.0740787 0.0413346,0.103213 0.026378,0.035874 0.0621693,0.0605236 0.097878,0.0605236 0.0357126,0 0.0715039,-0.0246496 0.097878,-0.0605236 0.025248,-0.0343386 0.0424961,-0.0796929 0.0424961,-0.123012 0,-0.046252 -0.0167559,-0.0766614 -0.0438425,-0.0958268 -0.0256614,-0.0181614 -0.059622,-0.0248504 -0.0965315,-0.0248504 -0.0369094,0 -0.0708661,0.00668898 -0.0965276,0.0248504 -0.0270906,0.0191654 -0.0438425,0.0495709 -0.0438425,0.0958268 0,0.00319291 9.44882e-005,0.00639764 0.000275591,0.0096063zm0.044378 0.0218425c0.0142008,-0.00234646 0.0287402,-0.00666929 0.0422874,-0.0128189 0.0155157,-0.00704331 0.029937,-0.0165984 0.0413976,-0.0284843 0.00559055,0.00547244 0.0115197,0.0107402 0.0177047,0.0157244 0.025748,0.0207559 0.0564488,0.0372283 0.0850039,0.0434213 -0.00609055,0.0178583 -0.0150591,0.034874 -0.0258268,0.0495118 -0.0190354,0.0258937 -0.0429528,0.043689 -0.0648504,0.043689 -0.0218937,0 -0.045811,-0.0177953 -0.0648504,-0.043689 -0.0143071,-0.0194606 -0.0254449,-0.0431102 -0.0308661,-0.0673543z"/>
   <path id="_454363608" class="fil34" d="M3.39428 2.62107c0.0321339,0.00845669 0.0599173,0.0256457 0.0795945,0.048315 0.0196929,0.022689 0.0314016,0.0508465 0.0314016,0.0812402l0 0.0354803c0,0.00909843 -0.00849213,0.0164764 -0.0189685,0.0164764l-0.273815 0c-0.0104764,0 -0.0189724,-0.00737795 -0.0189724,-0.0164764l0 -0.0354803c0,-0.0303937 0.0117087,-0.0585551 0.0314016,-0.0812441 0.0200787,-0.023126 0.0485906,-0.0405512 0.0815551,-0.0488189l-2.3622e-005 -7.48031e-005c0.007,-0.00175197 0.0142126,0.000153543 0.018937,0.00441732l0.0240079 0.0208543 0.0242795 -0.0210866 -3.93701e-006 -3.93701e-006c0.00557087,-0.00483465 0.0137441,-0.00603543 0.0206063,-0.00359843zm-0.157374 -0.146823c-0.000145669,0.000885827 -0.000220472,0.00179528 -0.000220472,0.00271654 0,0.00191732 0.000326772,0.00375984 0.000929134,0.0054685 0.00341732,0.0297283 0.0159921,0.0594843 0.0331929,0.082878 0.0211772,0.0288031 0.0499173,0.0485984 0.0785906,0.0485984 0.0286732,0 0.0574173,-0.0197953 0.0785945,-0.0485984 0.0202717,-0.0275748 0.034122,-0.0639921 0.034122,-0.0987756 0,-0.0371378 -0.0134567,-0.0615551 -0.0352047,-0.0769449 -0.0206063,-0.0145827 -0.047874,-0.0199567 -0.0775118,-0.0199567 -0.0296378,0 -0.0569055,0.00537402 -0.0775079,0.0199567 -0.021752,0.0153898 -0.0352047,0.0398031 -0.0352047,0.0769449 0,0.00256299 7.48031e-005,0.0051378 0.000220472,0.0077126zm0.0356378 0.0175394c0.0113976,-0.00188189 0.0230748,-0.00535433 0.0339528,-0.0102913 0.0124606,-0.00565748 0.0240394,-0.0133268 0.0332402,-0.022874 0.00448819,0.0043937 0.00925197,0.00862598 0.0142165,0.012626 0.0206732,0.0166693 0.0453268,0.0298937 0.0682559,0.0348701 -0.00488976,0.0143346 -0.0120945,0.028 -0.0207362,0.0397559 -0.0152874,0.0207913 -0.0344921,0.0350787 -0.0520748,0.0350787 -0.0175787,0 -0.0367835,-0.0142874 -0.0520709,-0.0350787 -0.0114882,-0.015626 -0.0204331,-0.0346181 -0.0247835,-0.0540866z"/>
   <path id="_454363488" class="fil34" d="M4.66443 2.38762c0.0285,0.0075 0.0531378,0.0227441 0.0705906,0.0428465 0.0174646,0.020122 0.0278465,0.0450945 0.0278465,0.0720472l0 0.0314646c0,0.00807087 -0.0075315,0.0146142 -0.0168228,0.0146142l-0.242827 0c-0.00929134,0 -0.0168228,-0.00654331 -0.0168228,-0.0146142l0 -0.0314646c0,-0.0269528 0.0103819,-0.0519252 0.0278465,-0.0720472 0.0178071,-0.0205118 0.0430906,-0.0359646 0.0723268,-0.0432953l-2.3622e-005 -6.29921e-005c0.00620866,-0.00155512 0.0126063,0.000133858 0.0167953,0.00391339l0.0212913 0.0184961 0.0215315 -0.0187008 -3.93701e-006 -3.93701e-006c0.00494094,-0.0042874 0.012189,-0.00535433 0.0182717,-0.00319291zm-0.139559 -0.130201c-0.000129921,0.000783465 -0.00019685,0.00158661 -0.00019685,0.00240945 0,0.00169685 0.000287402,0.00333071 0.000822835,0.00484646 0.0030315,0.0263622 0.014185,0.052752 0.029437,0.0734961 0.0187795,0.0255472 0.0442677,0.0430984 0.0696969,0.0430984 0.0254291,0 0.0509173,-0.0175512 0.0696969,-0.0430984 0.0179764,-0.0244528 0.0302598,-0.056748 0.0302598,-0.0875945 0,-0.032937 -0.0119331,-0.0545906 -0.0312165,-0.0682362 -0.0182756,-0.0129331 -0.0424606,-0.0176969 -0.0687402,-0.0176969 -0.0262835,0 -0.0504646,0.00476378 -0.0687402,0.0176969 -0.0192874,0.0136457 -0.0312165,0.0352992 -0.0312165,0.0682362 0,0.00227165 6.69291e-005,0.00455512 0.00019685,0.00684252zm0.0316024 0.0155512c0.0101102,-0.00166929 0.0204646,-0.00474803 0.0301102,-0.00912598 0.0110472,-0.00501969 0.0213189,-0.0118189 0.0294803,-0.0202835 0.00397638,0.0038937 0.00820079,0.00764567 0.0126024,0.0111969 0.0183386,0.0147795 0.0402008,0.0265079 0.0605354,0.0309213 -0.00433858,0.0127126 -0.0107283,0.0248307 -0.0183937,0.0352559 -0.0135551,0.018437 -0.0305866,0.0311102 -0.0461772,0.0311102 -0.0155906,0 -0.032622,-0.0126732 -0.0461811,-0.0311102 -0.010185,-0.0138583 -0.0181181,-0.0307008 -0.0219764,-0.0479646z"/>
   <path id="_454363128" class="fil34" d="M1.82594 2.2827c0,-0.0230079 -0.0186575,-0.0416654 -0.0416693,-0.0416654 -0.0230079,0 -0.0416654,0.0186575 -0.0416654,0.0416654l0 1.25c0,0.0230118 0.0186575,0.0416693 0.0416654,0.0416693 0.0230118,0 0.0416693,-0.0186575 0.0416693,-0.0416693l0 -1.25z"/>
   <path id="_454363368" class="fil34" d="M1.78427 3.49103c-0.0230118,0 -0.0416693,0.0186575 -0.0416693,0.0416693 0,0.0230079 0.0186575,0.0416654 0.0416693,0.0416654l3.255 0c0.0230079,0 0.0416654,-0.0186575 0.0416654,-0.0416654 0,-0.0230118 -0.0186575,-0.0416693 -0.0416654,-0.0416693l-3.255 0z"/>
   <path id="_454363416" class="fil34" d="M1.7935 3.49562c-0.0198661,0.00977165 -0.0267126,0.0314882 -0.0152992,0.0484961 0.0114134,0.0170079 0.0367717,0.0228701 0.0566378,0.0130984l0.676343 -0.333846 0.491827 0.121283 -7.87402e-006 3.14961e-005c0.0162795,0.00401575 0.0330906,-0.000850394 0.0433661,-0.0112559l0.29463 -0.255555 0.469528 0.0963583 -3.93701e-005 0.000145669c0.0126299,0.00259055 0.0252953,-4.72441e-005 0.0348976,-0.00627559l0.86039 -0.486508c0.0191417,-0.0108504 0.0243898,-0.0329409 0.0117165,-0.0493346 -0.0126693,-0.0163898 -0.0384685,-0.0208858 -0.0576142,-0.0100354l-0.84763 0.479295 -0.470937 -0.0966457c-0.0146496,-0.00427165 -0.0315118,-0.00135827 -0.0431142,0.00870472l0.0296496 0.0250669 -0.029622 -0.0249488 -0.29585 0.256614 -0.48328 -0.119173c-0.0109055,-0.00311417 -0.0232559,-0.00237008 -0.034,0.00293307l9.05512e-005 0.000133858 -0.691681 0.341417z"/>
  </g>
 </g>
</svg>
