<?xml version="1.0" encoding="UTF-8"?>
<!DOCTYPE svg PUBLIC "-//W3C//DTD SVG 1.1//EN" "http://www.w3.org/Graphics/SVG/1.1/DTD/svg11.dtd">
<!-- Creator: CorelDRAW -->
<svg xmlns="http://www.w3.org/2000/svg" xml:space="preserve" width="6.82666in" height="6.82666in" style="shape-rendering:geometricPrecision; text-rendering:geometricPrecision; image-rendering:optimizeQuality; fill-rule:evenodd; clip-rule:evenodd"
viewBox="0 0 6.82666 6.82666"
 xmlns:xlink="http://www.w3.org/1999/xlink">
 <defs>
  <style type="text/css">
   <![CDATA[
    .fil38 {fill:#6E5946}
    .fil33 {fill:#E3A56A}
    .fil34 {fill:#E4AA73}
    .fil1 {fill:#E4AB75}
    .fil7 {fill:#E5AD77}
    .fil21 {fill:#E5AD79}
    .fil15 {fill:#E6B07D}
    .fil28 {fill:#E6B17E}
    .fil24 {fill:#E8B585}
    .fil0 {fill:#E8B586}
    .fil16 {fill:#E9B98C}
    .fil14 {fill:#EABB8E}
    .fil8 {fill:#EABC90}
    .fil3 {fill:#EBC097}
    .fil12 {fill:#ECC39C}
    .fil35 {fill:#ECC49D}
    .fil6 {fill:#ECC59E}
    .fil2 {fill:#EDC5A0}
    .fil31 {fill:#EDC6A2}
    .fil36 {fill:#EDC7A3}
    .fil20 {fill:#EDC8A5}
    .fil13 {fill:#EECBA9}
    .fil10 {fill:#EFCCAA}
    .fil9 {fill:#F0D0B2}
    .fil18 {fill:#F0D1B3}
    .fil11 {fill:#F1D2B5}
    .fil5 {fill:#F1D3B5}
    .fil17 {fill:#F2D4B9}
    .fil30 {fill:#F3D6BC}
    .fil4 {fill:#F3D7BD}
    .fil19 {fill:#F3D9C0}
    .fil22 {fill:#F3DAC2}
    .fil29 {fill:#F3DBC3}
    .fil23 {fill:#F3DCC4}
    .fil26 {fill:#F4DDC7}
    .fil25 {fill:#F5E1CC}
    .fil27 {fill:#F6E3D0}
    .fil32 {fill:#F7E6D6}
    .fil37 {fill:#6E5946;fill-rule:nonzero}
   ]]>
  </style>
 </defs>
 <g id="Layer_x0020_1">
  <metadata id="CorelCorpID_0Corel-Layer"/>
  <g id="_454380408">
   <path id="_454357824" class="fil0" d="M3.41333 0.103327c1.82806,0 3.31,1.48194 3.31,3.31 0,1.82806 -1.48195,3.31 -3.31,3.31 -1.82806,0 -3.31,-1.48194 -3.31,-3.31 0,-1.82806 1.48194,-3.31 3.31,-3.31z"/>
   <g>
    <path id="_454349808" class="fil1" d="M0.848205 1.34936l-0.00887008 -0.0168701c0.00756299,-0.00934646 0.0150433,-0.0187638 0.0227087,-0.0280236l-0.0138386 0.0448937z"/>
    <path id="_454350504" class="fil2" d="M0.103457 3.42354l0.0735512 0.129169 -0.056189 0.202551c-0.0111969,-0.109087 -0.0170236,-0.219756 -0.0173622,-0.33172z"/>
    <path id="_454350432" class="fil3" d="M0.177008 3.55271l-0.0735512 -0.129169c-1.1811e-005,-0.00341339 -0.000129921,-0.00679921 -0.000129921,-0.0102126 0,-0.0521575 0.00135433,-0.103988 0.00374409,-0.155555l0.069937 0.294937z"/>
    <path id="_454350336" class="fil4" d="M1.18756 5.86327l0.776106 -0.143965 -0.0895039 0.624882c-0.249299,-0.131193 -0.479945,-0.293059 -0.686602,-0.480917z"/>
    <path id="_454350240" class="fil5" d="M0.877728 5.54074l0.569535 -2.23291 0.516406 2.41147 -0.776106 0.143965c-0.110394,-0.100366 -0.213831,-0.20822 -0.309835,-0.322528z"/>
    <path id="_454350168" class="fil6" d="M1.44726 3.30783l-1.24763 -0.689327c0.0193661,-0.0785591 0.0415315,-0.156004 0.0663937,-0.232244l1.25362 -0.277972 -0.0723819 1.19954z"/>
    <path id="_454350192" class="fil7" d="M0.839335 1.33249l0.00887008 0.0168701 -0.0254646 0.00373622c0.00549213,-0.00689764 0.0110472,-0.013752 0.0165945,-0.0206063z"/>
    <path id="_454350024" class="fil0" d="M0.82274 1.3531l0.0254646 -0.00373622 -0.185465 0.22226c0.0503858,-0.0750866 0.103803,-0.147957 0.16,-0.218524z"/>
    <path id="_454350048" class="fil8" d="M0.66274 1.57162l0.185465 -0.22226 0.671441 0.758929 -1.25362 0.277972c0.0950551,-0.291386 0.229276,-0.565063 0.396717,-0.814642z"/>
    <path id="_454349904" class="fil2" d="M0.177008 3.55271l0 0 -0.069937 -0.294937c0.0101496,-0.219358 0.0417402,-0.433091 0.0925591,-0.639268l1.24763 0.689327 -1.27026 0.244878z"/>
    <path id="_454350072" class="fil9" d="M0.206906 4.23798l1.24036 -0.930142 -0.569535 2.23291c-0.313378,-0.373122 -0.546071,-0.81628 -0.670823,-1.30277z"/>
    <path id="_454349448" class="fil10" d="M0.120819 3.75526l0.056189 -0.202551 1.27026 -0.244878 -1.24036 0.930142c-0.040185,-0.15672 -0.0691732,-0.317925 -0.0860866,-0.482713z"/>
    <polygon id="_454349712" class="fil11" points="2.78986,4.64206 1.44726,3.30783 2.33552,3.05077 "/>
    <polygon id="_454349328" class="fil12" points="2.33552,3.05077 1.51965,2.10829 2.08763,1.12902 "/>
    <polygon id="_454349736" class="fil13" points="1.44726,3.30783 1.51965,2.10829 2.33552,3.05077 "/>
    <path id="_454349496" class="fil14" d="M4.66965 2.62238l-0.660961 -1.18732 1.14093 -0.840087c0.0476339,0.0294094 0.0944409,0.0600118 0.140433,0.0917283l-0.620406 1.93568z"/>
    <path id="_454349280" class="fil15" d="M0.848205 1.34936l0.0138386 -0.0448937c0.166319,-0.200984 0.355949,-0.381945 0.564709,-0.538839l0.660882 0.363386 -1.23943 0.220346z"/>
    <polygon id="_454349472" class="fil16" points="1.51965,2.10829 1.51965,2.10829 0.848205,1.34936 2.08763,1.12902 "/>
    <path id="_454349352" class="fil7" d="M2.08763 1.12902l-0.660882 -0.363386c0.201055,-0.151091 0.419937,-0.279665 0.652823,-0.382343l0.00805906 0.745728z"/>
    <polygon id="_454349544" class="fil17" points="1.96367,5.71931 1.96367,5.71931 1.44726,3.30783 2.78986,4.64206 "/>
    <polygon id="_454349136" class="fil18" points="4.34943,4.32379 3.48197,3.73626 4.66965,2.62238 "/>
    <path id="_454385328" class="fil19" d="M1.87417 6.34419l0.0895039 -0.624882 0.602343 0.894382c-0.242646,-0.0641299 -0.474378,-0.155055 -0.691846,-0.2695z"/>
    <polygon id="_454385304" class="fil20" points="3.48197,3.73626 4.00869,1.43506 4.66965,2.62238 "/>
    <path id="_454385616" class="fil21" d="M2.08763 1.12902l0 0 -0.00805906 -0.745728c0.1155,-0.0509173 0.234398,-0.0955315 0.356354,-0.133201l1.08731 0.230114 -1.43561 0.648815z"/>
    <polygon id="_454385544" class="fil5" points="2.78986,4.64206 2.78986,4.64206 2.33552,3.05077 3.48197,3.73626 "/>
    <polygon id="_454385400" class="fil22" points="3.62653,6.6617 1.96367,5.71931 2.78986,4.64206 "/>
    <path id="_454385520" class="fil23" d="M2.56601 6.61369l-0.602343 -0.894382 1.66286 0.942394 -0.117335 0.0601535c-0.0318504,0.000905512 -0.0637913,0.00148031 -0.0958622,0.00148031 -0.292906,0 -0.576858,-0.0382283 -0.847319,-0.109646z"/>
    <polygon id="_454385472" class="fil13" points="3.48197,3.73626 3.48197,3.73626 2.33552,3.05077 4.00869,1.43506 "/>
    <polygon id="_454384560" class="fil3" points="2.33552,3.05077 2.33552,3.05077 2.08763,1.12902 4.00869,1.43506 "/>
    <polygon id="_454384608" class="fil24" points="4.00869,1.43506 2.08763,1.12902 3.52324,0.480201 "/>
    <path id="_454384680" class="fil25" d="M3.50919 6.72185l0.117335 -0.0601535 0.0260118 0.0529606c-0.0475157,0.0033937 -0.0952953,0.00582677 -0.143346,0.00719291z"/>
    <polygon id="_454384488" class="fil26" points="3.62653,6.6617 3.62653,6.6617 2.78986,4.64206 4.25658,6.29448 "/>
    <polygon id="_454381968" class="fil22" points="4.25658,6.29448 4.25658,6.29448 2.78986,4.64206 4.34943,4.32379 "/>
    <path id="_454381440" class="fil27" d="M3.65254 6.71466l-0.0260118 -0.0529606 0.630051 -0.367217 -0.0383504 0.330091c-0.183016,0.0457244 -0.372031,0.0762559 -0.565689,0.0900866z"/>
    <polygon id="_454381920" class="fil17" points="2.78986,4.64206 3.48197,3.73626 4.34943,4.32379 "/>
    <path id="_454381680" class="fil28" d="M4.00869 1.43506l0 0 -0.485453 -0.954862 1.35457 -0.0358346c0.0931693,0.0460433 0.183862,0.0963071 0.271819,0.15061l-1.14093 0.840087z"/>
    <polygon id="_454381584" class="fil23" points="4.25658,6.29448 4.34943,4.32379 5.32034,4.96034 "/>
    <path id="_454381320" class="fil1" d="M3.52324 0.480201l0 0 -1.08731 -0.230114c0.0435866,-0.0134528 0.0875945,-0.0259331 0.131929,-0.0376142l2.17713 0.169898c0.0448031,0.0197126 0.0890787,0.0403819 0.132815,0.0619961l-1.35457 0.0358346z"/>
    <path id="_454381512" class="fil29" d="M5.77469 5.73252l-0.45435 -0.772177 0.671319 -0.734358 0.0964409 1.13714c-0.0954646,0.130717 -0.200236,0.254177 -0.313409,0.369398z"/>
    <polygon id="_454381848" class="fil30" points="5.32034,4.96034 5.32034,4.96034 4.34943,4.32379 5.99166,4.22598 "/>
    <path id="_454381656" class="fil31" d="M5.99166 4.22598l-1.322 -1.6036 1.41274 -1.16667c0.0535669,0.0729134 0.104248,0.148075 0.151819,0.225362l-0.242551 2.5449z"/>
    <path id="_454380720" class="fil16" d="M4.66965 2.62238l0.620406 -1.93568c0.305098,0.210398 0.573091,0.470657 0.792331,0.769012l-1.41274 1.16667z"/>
    <path id="_454380576" class="fil25" d="M4.96144 6.33946l-0.704866 -0.0449803 1.06376 -1.33415 0.45435 0.772177c-0.237339,0.241591 -0.511409,0.446925 -0.813244,0.606949z"/>
    <polygon id="_454381224" class="fil9" points="4.34943,4.32379 4.66965,2.62238 5.99166,4.22598 "/>
    <path id="_454380912" class="fil32" d="M4.21823 6.62457l0.0383504 -0.330091 0.704866 0.0449803c-0.232673,0.123343 -0.481764,0.219783 -0.743217,0.28511z"/>
    <path id="_454380864" class="fil33" d="M3.91767 0.141508l-1.12388 0.0199606c0.20072,-0.0380118 0.407768,-0.0581417 0.619543,-0.0581417 0.171472,0 0.339898,0.0130433 0.504339,0.0381811z"/>
    <path id="_454380624" class="fil34" d="M4.74499 0.38237l-2.17713 -0.169898c0.074315,-0.0195748 0.149677,-0.0365433 0.225929,-0.0510039l1.12388 -0.0199606c0.28987,0.0443819 0.567311,0.126461 0.827323,0.240862z"/>
    <path id="_454381008" class="fil35" d="M5.99166 4.22598l0.242551 -2.5449c0.303315,0.49287 0.480941,1.07124 0.488598,1.6906l-0.73115 0.854303z"/>
    <path id="_454381200" class="fil36" d="M5.99166 4.22598l0.73115 -0.854303c0.000169291,0.0138858 0.000527559,0.0277283 0.000527559,0.0416535 0,0.224106 -0.0223976,0.442961 -0.0648504,0.654571l-0.666827 0.158079z"/>
    <path id="_454380552" class="fil19" d="M6.0881 5.36312l-0.0964409 -1.13714 0.488276 0.434835c-0.102224,0.250921 -0.234256,0.486504 -0.391835,0.702303z"/>
    <path id="_454379904" class="fil18" d="M6.47993 4.66081l-0.488276 -0.434835 0.666827 -0.158079c-0.0412126,0.205126 -0.10137,0.403382 -0.178551,0.592913z"/>
   </g>
   <path id="_454380480" class="fil37" d="M3.41333 0c0.942551,0 1.79589,0.382055 2.41358,0.999752 0.617697,0.617693 0.999752,1.47103 0.999752,2.41358 0,0.942551 -0.382055,1.79589 -0.999752,2.41358 -0.617693,0.617697 -1.47103,0.999752 -2.41358,0.999752 -0.942551,0 -1.79589,-0.382055 -2.41358,-0.999752 -0.617697,-0.617693 -0.999752,-1.47103 -0.999752,-2.41358 0,-0.942551 0.382055,-1.79589 0.999752,-2.41358 0.617693,-0.617697 1.47103,-0.999752 2.41358,-0.999752zm2.26731 1.14602c-0.580248,-0.580248 -1.38187,-0.939146 -2.26731,-0.939146 -0.885445,0 -1.68707,0.358898 -2.26731,0.939146 -0.580248,0.580248 -0.939146,1.38187 -0.939146,2.26731 0,0.885445 0.358898,1.68707 0.939146,2.26731 0.580248,0.580248 1.38187,0.939146 2.26731,0.939146 0.885445,0 1.68707,-0.358898 2.26731,-0.939146 0.580248,-0.580248 0.939146,-1.38187 0.939146,-2.26731 0,-0.885445 -0.358898,-1.68707 -0.939146,-2.26731z"/>
  </g>
  <g id="_454379112">
   <path id="_454380144" class="fil38" d="M5.23281 3.1188l0 1.9798c0,0.0406063 -0.0329213,0.0735276 -0.0735276,0.0735276l-3.49192 0c-0.0406063,0 -0.0735276,-0.0329213 -0.0735276,-0.0735276l0 -1.9798 3.63897 0zm-0.568976 0.778264c0.00273622,0.224311 -0.0852992,0.427902 -0.235394,0.587902 -0.143059,0.152508 -0.342465,0.265602 -0.573693,0.319799 -0.232386,0.0544685 -0.496677,0.0494213 -0.768217,-0.0347913 -0.258819,-0.0802677 -0.52422,-0.232476 -0.775134,-0.473476 0.00896063,-0.0259528 0.0184567,-0.0518386 0.0285276,-0.0775591 0.0527205,-0.134591 0.121126,-0.264118 0.210236,-0.373425 0.146543,-0.179756 0.318799,-0.31485 0.50139,-0.408382 0.198028,-0.101445 0.408268,-0.154094 0.611063,-0.161886 0.00835039,-0.000318898 0.0162717,-0.000527559 0.0237323,-0.00061811 0.185642,-0.00226378 0.42822,0.0492165 0.626567,0.154173 0.193087,0.102177 0.342854,0.254886 0.35061,0.456787 0.000165354,0.00437008 0.000271654,0.00819291 0.000311024,0.0114764zm-2.41004 0.342276c-0.133709,-0.137043 -0.26276,-0.300142 -0.383854,-0.491996 -0.0107874,-0.0171299 -0.0334213,-0.0222717 -0.0505512,-0.0114882 -0.0171299,0.0107835 -0.0222717,0.0334213 -0.0114882,0.0505512 0.13172,0.208685 0.272882,0.38439 0.419417,0.530362 -0.0320512,0.0996535 -0.0567087,0.199606 -0.0758425,0.294354 -0.00396457,0.0198268 0.0088937,0.0391181 0.0287205,0.0430827 0.0198268,0.00396457 0.0391181,-0.0088937 0.0430827,-0.0287205 0.0163819,-0.0811142 0.0369803,-0.166248 0.0630551,-0.251783 0.252177,0.235437 0.518417,0.385646 0.77865,0.46635 0.284665,0.0882835 0.562138,0.0934843 0.806417,0.0362283 0.245437,-0.0575276 0.457638,-0.17815 0.610457,-0.341055 0.162744,-0.173488 0.258193,-0.394748 0.255213,-0.639024 -5.90551e-005,-0.00497244 -0.000165354,-0.00938583 -0.000311024,-0.0132008 -0.00894882,-0.232902 -0.175327,-0.405681 -0.389669,-0.51911 -0.209087,-0.110638 -0.465283,-0.164902 -0.66161,-0.162508 -0.00915748,0.000114173 -0.0176535,0.000322835 -0.0254567,0.000622047 -0.213126,0.00818898 -0.433941,0.0634528 -0.641791,0.169929 -0.191362,0.0980276 -0.371728,0.239406 -0.524937,0.427343 -0.0944685,0.11587 -0.166531,0.252028 -0.221728,0.392953 -0.00612992,0.0156457 -0.0120472,0.0313543 -0.0177717,0.0471102zm0.795996 -0.371862c-0.0190512,0.0135354 -0.0388307,0.0260472 -0.058689,0.037685 -0.0408465,0.0239331 -0.0841457,0.0465551 -0.128673,0.0628465l-0.0462165 0.0169094 0 -0.183728 0.0197362 -0.00930315c0.0589409,-0.0277677 0.114469,-0.0625512 0.163075,-0.106087 0.0364331,-0.0326339 0.0740827,-0.0727087 0.0959528,-0.116933l0.00947638 -0.0191496 0.130815 0 0 1.0237 -0.185476 0 0 -0.705945zm0.684709 -0.120323l-0.0310709 0.154531c0.0410906,-0.017811 0.0849094,-0.0276181 0.131303,-0.0276181 0.0911654,0 0.170248,0.0317402 0.234528,0.0965197 0.0667795,0.0672953 0.0956654,0.151886 0.0956654,0.246075 0,0.0907283 -0.0261299,0.173535 -0.0827717,0.24461 -0.070063,0.0879094 -0.164846,0.128307 -0.276642,0.128307 -0.0870315,0 -0.168807,-0.0228543 -0.234705,-0.0812756 -0.0638819,-0.0566457 -0.0968701,-0.130465 -0.105071,-0.215039l-0.00335827 -0.0346535 0.189433 -0.0160748 0.00483465 0.0318346c0.00629528,0.0414724 0.0203268,0.0852992 0.0522402,0.114331 0.0275197,0.0250354 0.0595079,0.0362126 0.096626,0.0362126 0.0471693,0 0.0854016,-0.0176654 0.117217,-0.0523858 0.0369331,-0.0402953 0.0494134,-0.0918346 0.0494134,-0.145461 0,-0.0493189 -0.0110906,-0.0974291 -0.0462913,-0.133669 -0.0332677,-0.034252 -0.0751024,-0.0473543 -0.122331,-0.0473543 -0.0301575,0 -0.0586614,0.0064685 -0.0849882,0.0212717 -0.0241181,0.0135512 -0.0442283,0.0314094 -0.0590945,0.0548504l-0.0117362 0.0185039 -0.167472 -0.0216496 0.104146 -0.552256 0.535831 0 0 0.18039 -0.385705 0z"/>
   <path id="_454380216" class="fil38" d="M3.26628 1.89279l0 0.218232c0,0.0811929 0.0658661,0.147055 0.147055,0.147055 0.081189,0 0.147055,-0.0658622 0.147055,-0.147055l0 -0.218232 0.318787 0 0 0.218232c0,0.0811929 0.0658661,0.147055 0.147055,0.147055 0.081189,0 0.147055,-0.0658622 0.147055,-0.147055l0 -0.218232 0.318787 0 0 0.218232c0,0.0811929 0.0658622,0.147055 0.147051,0.147055 0.081189,0 0.147055,-0.0658622 0.147055,-0.147055l0 -0.218232 0.37311 0c0.0406063,0 0.0735276,0.0329213 0.0735276,0.0735276l0 1.0017 -3.63897 0 0 -1.0017c0,-0.0406063 0.0329213,-0.0735276 0.0735276,-0.0735276l0.373114 0 0 0.218232c0,0.0811929 0.0658661,0.147055 0.147055,0.147055 0.081189,0 0.147051,-0.0658622 0.147051,-0.147055l0 -0.218232 0.318787 0 0 0.218232c0,0.0811929 0.0658661,0.147055 0.147055,0.147055 0.081189,0 0.147055,-0.0658622 0.147055,-0.147055l0 -0.218232 0.318787 0zm-1.3694 0.931354l0 -0.442819 0.328272 0 0 0.0749528 -0.238882 0 0 0.0981535 0.222283 0 0 0.0745433 -0.222283 0 0 0.120524 0.247339 0 0 0.0746457 -0.336728 0zm0.41498 0l0 -0.439213 0.0893898 0 0 0.364567 0.222287 0 0 0.0746457 -0.311677 0zm0.375492 0l0 -0.442819 0.328276 0 0 0.0749528 -0.238886 0 0 0.0981535 0.222287 0 0 0.0745433 -0.222287 0 0 0.120524 0.247339 0 0 0.0746457 -0.336728 0zm0.695933 -0.162799l0.0866063 0.0274291c-0.0133031,0.0483543 -0.0353661,0.0842283 -0.0662953,0.107736 -0.0308307,0.0234055 -0.0701102,0.0351575 -0.117638,0.0351575 -0.0587677,0 -0.107122,-0.0201024 -0.144961,-0.0602087 -0.0378386,-0.0402087 -0.056811,-0.0951614 -0.056811,-0.164756 0,-0.0737165 0.0190748,-0.130937 0.0571181,-0.171764 0.0380472,-0.0407244 0.0880512,-0.0611417 0.150114,-0.0611417 0.0541299,0 0.0981535,0.0159803 0.131972,0.0480472 0.0202087,0.0188661 0.0352598,0.0460827 0.0453622,0.0815512l-0.088563 0.0211339c-0.00515354,-0.0229882 -0.0160827,-0.0411339 -0.0327874,-0.0544331 -0.0165984,-0.0133031 -0.0368031,-0.0198976 -0.0605157,-0.0198976 -0.0327874,0 -0.0594921,0.011752 -0.0799055,0.0353622 -0.0204134,0.0235079 -0.030622,0.0616535 -0.030622,0.114441 0,0.0559843 0.0100039,0.0958819 0.0302087,0.119594 0.0201063,0.0238189 0.0462953,0.0356732 0.0784606,0.0356732 0.023815,0 0.0442283,-0.00752362 0.0613465,-0.0226811 0.0171142,-0.0150512 0.0293819,-0.0388701 0.0369094,-0.0712441zm0.263008 0.162799l0 -0.367866 -0.13135 0 0 -0.0749528 0.351886 0 0 0.0749528 -0.131039 0 0 0.367866 -0.0894961 0zm0.275484 0l0 -0.442819 0.0893937 0 0 0.442819 -0.0893937 0zm0.156512 -0.218677c0,-0.0451575 0.00670079,-0.0829961 0.0202047,-0.113618 0.0101063,-0.0224764 0.0238189,-0.0427874 0.0412402,-0.0607283 0.0174252,-0.0178346 0.0365,-0.0311339 0.0572205,-0.0397953 0.0276339,-0.011752 0.0593858,-0.0175276 0.0954724,-0.0175276 0.0652638,0 0.117433,0.0202087 0.15661,0.0607283 0.0391772,0.0404134 0.0587677,0.0967087 0.0587677,0.168776 0,0.0715512 -0.0194843,0.127433 -0.0583543,0.16785 -0.0388701,0.040311 -0.0908346,0.0605157 -0.155787,0.0605157 -0.065878,0 -0.118256,-0.0201024 -0.157122,-0.0602087 -0.0388701,-0.0402087 -0.058252,-0.0955748 -0.058252,-0.165992zm0.0920669 -0.00299213c0,0.0501102 0.0116496,0.0881535 0.0347441,0.114031 0.0232008,0.025878 0.0525827,0.0387638 0.0882559,0.0387638 0.0355709,0 0.0648504,-0.0127835 0.0877362,-0.0385591 0.0227874,-0.0256693 0.0342323,-0.064126 0.0342323,-0.115472 0,-0.0507244 -0.0111378,-0.088563 -0.0333031,-0.113618 -0.0222677,-0.0249488 -0.0518583,-0.0374213 -0.0886654,-0.0374213 -0.0369094,0 -0.0666024,0.0126811 -0.0891811,0.037937 -0.0224764,0.0252598 -0.0338189,0.0633071 -0.0338189,0.114339zm0.408075 0.221669l0 -0.442819 0.0870157 0 0.181252 0.295693 0 -0.295693 0.0830984 0 0 0.442819 -0.0898031 0 -0.178465 -0.288787 0 0.288787 -0.0830984 0z"/>
   <path id="_454379976" class="fil37" d="M2.26107 1.72807c0,-0.0406063 -0.0329213,-0.0735276 -0.0735276,-0.0735276 -0.0406063,0 -0.0735315,0.0329213 -0.0735315,0.0735276l0 0.382949c0,0.0406102 0.0329252,0.0735315 0.0735315,0.0735315 0.0406063,0 0.0735276,-0.0329213 0.0735276,-0.0735315l0 -0.382949zm2.45159 0c0,-0.0406063 -0.0329252,-0.0735276 -0.0735315,-0.0735276 -0.0406063,0 -0.0735276,0.0329213 -0.0735276,0.0735276l0 0.382949c0,0.0406102 0.0329213,0.0735315 0.0735276,0.0735315 0.0406063,0 0.0735315,-0.0329213 0.0735315,-0.0735315l0 -0.382949zm-0.612898 0c0,-0.0406063 -0.0329213,-0.0735276 -0.0735276,-0.0735276 -0.0406063,0 -0.0735276,0.0329213 -0.0735276,0.0735276l0 0.382949c0,0.0406102 0.0329213,0.0735315 0.0735276,0.0735315 0.0406063,0 0.0735276,-0.0329213 0.0735276,-0.0735315l0 -0.382949zm-0.612898 0c0,-0.0406063 -0.0329213,-0.0735276 -0.0735276,-0.0735276 -0.0406063,0 -0.0735276,0.0329213 -0.0735276,0.0735276l0 0.382949c0,0.0406102 0.0329213,0.0735315 0.0735276,0.0735315 0.0406063,0 0.0735276,-0.0329213 0.0735276,-0.0735315l0 -0.382949zm-0.612898 0c0,-0.0406063 -0.0329213,-0.0735276 -0.0735276,-0.0735276 -0.0406063,0 -0.0735276,0.0329213 -0.0735276,0.0735276l0 0.382949c0,0.0406102 0.0329213,0.0735315 0.0735276,0.0735315 0.0406063,0 0.0735276,-0.0329213 0.0735276,-0.0735315l0 -0.382949z"/>
  </g>
 </g>
</svg>
