<?xml version="1.0" encoding="UTF-8"?>
<!DOCTYPE svg PUBLIC "-//W3C//DTD SVG 1.1//EN" "http://www.w3.org/Graphics/SVG/1.1/DTD/svg11.dtd">
<!-- Creator: CorelDRAW -->
<svg xmlns="http://www.w3.org/2000/svg" xml:space="preserve" width="6.82666in" height="6.82666in" style="shape-rendering:geometricPrecision; text-rendering:geometricPrecision; image-rendering:optimizeQuality; fill-rule:evenodd; clip-rule:evenodd"
viewBox="0 0 6.82666 6.82666"
 xmlns:xlink="http://www.w3.org/1999/xlink">
 <defs>
  <style type="text/css">
   <![CDATA[
    .fil38 {fill:#6E5946}
    .fil33 {fill:#E3A56A}
    .fil34 {fill:#E4AA73}
    .fil1 {fill:#E4AB75}
    .fil7 {fill:#E5AD77}
    .fil21 {fill:#E5AD79}
    .fil15 {fill:#E6B07D}
    .fil28 {fill:#E6B17E}
    .fil24 {fill:#E8B585}
    .fil0 {fill:#E8B586}
    .fil16 {fill:#E9B98C}
    .fil14 {fill:#EABB8E}
    .fil8 {fill:#EABC90}
    .fil3 {fill:#EBC097}
    .fil12 {fill:#ECC39C}
    .fil35 {fill:#ECC49D}
    .fil6 {fill:#ECC59E}
    .fil2 {fill:#EDC5A0}
    .fil31 {fill:#EDC6A2}
    .fil36 {fill:#EDC7A3}
    .fil20 {fill:#EDC8A5}
    .fil13 {fill:#EECBA9}
    .fil10 {fill:#EFCCAA}
    .fil9 {fill:#F0D0B2}
    .fil18 {fill:#F0D1B3}
    .fil11 {fill:#F1D2B5}
    .fil5 {fill:#F1D3B5}
    .fil17 {fill:#F2D4B9}
    .fil30 {fill:#F3D6BC}
    .fil4 {fill:#F3D7BD}
    .fil19 {fill:#F3D9C0}
    .fil22 {fill:#F3DAC2}
    .fil29 {fill:#F3DBC3}
    .fil23 {fill:#F3DCC4}
    .fil26 {fill:#F4DDC7}
    .fil25 {fill:#F5E1CC}
    .fil27 {fill:#F6E3D0}
    .fil32 {fill:#F7E6D6}
    .fil37 {fill:#6E5946;fill-rule:nonzero}
   ]]>
  </style>
 </defs>
 <g id="Layer_x0020_1">
  <metadata id="CorelCorpID_0Corel-Layer"/>
  <g id="_446783840">
   <path id="_446788040" class="fil0" d="M3.41333 0.103327c1.82806,0 3.31,1.48194 3.31,3.31 0,1.82806 -1.48195,3.31 -3.31,3.31 -1.82806,0 -3.31,-1.48194 -3.31,-3.31 0,-1.82806 1.48194,-3.31 3.31,-3.31z"/>
   <g>
    <path id="_446787920" class="fil1" d="M0.848205 1.34936l-0.00887008 -0.0168701c0.00756299,-0.00934646 0.0150433,-0.0187638 0.0227087,-0.0280236l-0.0138386 0.0448937z"/>
    <path id="_446787752" class="fil2" d="M0.103457 3.42354l0.0735512 0.129169 -0.056189 0.202551c-0.0111969,-0.109087 -0.0170236,-0.219756 -0.0173622,-0.33172z"/>
    <path id="_446787464" class="fil3" d="M0.177008 3.55271l-0.0735512 -0.129169c-1.1811e-005,-0.00341339 -0.000129921,-0.00679921 -0.000129921,-0.0102126 0,-0.0521575 0.00135433,-0.103988 0.00374409,-0.155555l0.069937 0.294937z"/>
    <path id="_446787632" class="fil4" d="M1.18756 5.86327l0.776106 -0.143965 -0.0895039 0.624882c-0.249299,-0.131193 -0.479945,-0.293059 -0.686602,-0.480917z"/>
    <path id="_446787584" class="fil5" d="M0.877728 5.54074l0.569535 -2.23291 0.516406 2.41147 -0.776106 0.143965c-0.110394,-0.100366 -0.213831,-0.20822 -0.309835,-0.322528z"/>
    <path id="_446788016" class="fil6" d="M1.44726 3.30783l-1.24763 -0.689327c0.0193661,-0.0785591 0.0415315,-0.156004 0.0663937,-0.232244l1.25362 -0.277972 -0.0723819 1.19954z"/>
    <path id="_446787512" class="fil7" d="M0.839335 1.33249l0.00887008 0.0168701 -0.0254646 0.00373622c0.00549213,-0.00689764 0.0110472,-0.013752 0.0165945,-0.0206063z"/>
    <path id="_446787416" class="fil0" d="M0.82274 1.3531l0.0254646 -0.00373622 -0.185465 0.22226c0.0503858,-0.0750866 0.103803,-0.147957 0.16,-0.218524z"/>
    <path id="_446786912" class="fil8" d="M0.66274 1.57162l0.185465 -0.22226 0.671441 0.758929 -1.25362 0.277972c0.0950551,-0.291386 0.229276,-0.565063 0.396717,-0.814642z"/>
    <path id="_446786840" class="fil2" d="M0.177008 3.55271l0 0 -0.069937 -0.294937c0.0101496,-0.219358 0.0417402,-0.433091 0.0925591,-0.639268l1.24763 0.689327 -1.27026 0.244878z"/>
    <path id="_446786600" class="fil9" d="M0.206906 4.23798l1.24036 -0.930142 -0.569535 2.23291c-0.313378,-0.373122 -0.546071,-0.81628 -0.670823,-1.30277z"/>
    <path id="_446786624" class="fil10" d="M0.120819 3.75526l0.056189 -0.202551 1.27026 -0.244878 -1.24036 0.930142c-0.040185,-0.15672 -0.0691732,-0.317925 -0.0860866,-0.482713z"/>
    <polygon id="_446787104" class="fil11" points="2.78986,4.64206 1.44726,3.30783 2.33552,3.05077 "/>
    <polygon id="_446787248" class="fil12" points="2.33552,3.05077 1.51965,2.10829 2.08763,1.12902 "/>
    <polygon id="_446786816" class="fil13" points="1.44726,3.30783 1.51965,2.10829 2.33552,3.05077 "/>
    <path id="_446787176" class="fil14" d="M4.66965 2.62238l-0.660961 -1.18732 1.14093 -0.840087c0.0476339,0.0294094 0.0944409,0.0600118 0.140433,0.0917283l-0.620406 1.93568z"/>
    <path id="_446787152" class="fil15" d="M0.848205 1.34936l0.0138386 -0.0448937c0.166319,-0.200984 0.355949,-0.381945 0.564709,-0.538839l0.660882 0.363386 -1.23943 0.220346z"/>
    <polygon id="_446787008" class="fil16" points="1.51965,2.10829 1.51965,2.10829 0.848205,1.34936 2.08763,1.12902 "/>
    <path id="_446785784" class="fil7" d="M2.08763 1.12902l-0.660882 -0.363386c0.201055,-0.151091 0.419937,-0.279665 0.652823,-0.382343l0.00805906 0.745728z"/>
    <polygon id="_446786504" class="fil17" points="1.96367,5.71931 1.96367,5.71931 1.44726,3.30783 2.78986,4.64206 "/>
    <polygon id="_446785856" class="fil18" points="4.34943,4.32379 3.48197,3.73626 4.66965,2.62238 "/>
    <path id="_446786432" class="fil19" d="M1.87417 6.34419l0.0895039 -0.624882 0.602343 0.894382c-0.242646,-0.0641299 -0.474378,-0.155055 -0.691846,-0.2695z"/>
    <polygon id="_446785928" class="fil20" points="3.48197,3.73626 4.00869,1.43506 4.66965,2.62238 "/>
    <path id="_446785952" class="fil21" d="M2.08763 1.12902l0 0 -0.00805906 -0.745728c0.1155,-0.0509173 0.234398,-0.0955315 0.356354,-0.133201l1.08731 0.230114 -1.43561 0.648815z"/>
    <polygon id="_446785904" class="fil5" points="2.78986,4.64206 2.78986,4.64206 2.33552,3.05077 3.48197,3.73626 "/>
    <polygon id="_446786288" class="fil22" points="3.62653,6.6617 1.96367,5.71931 2.78986,4.64206 "/>
    <path id="_446786024" class="fil23" d="M2.56601 6.61369l-0.602343 -0.894382 1.66286 0.942394 -0.117335 0.0601535c-0.0318504,0.000905512 -0.0637913,0.00148031 -0.0958622,0.00148031 -0.292906,0 -0.576858,-0.0382283 -0.847319,-0.109646z"/>
    <polygon id="_446786264" class="fil13" points="3.48197,3.73626 3.48197,3.73626 2.33552,3.05077 4.00869,1.43506 "/>
    <polygon id="_446785616" class="fil3" points="2.33552,3.05077 2.33552,3.05077 2.08763,1.12902 4.00869,1.43506 "/>
    <polygon id="_446785256" class="fil24" points="4.00869,1.43506 2.08763,1.12902 3.52324,0.480201 "/>
    <path id="_446785160" class="fil25" d="M3.50919 6.72185l0.117335 -0.0601535 0.0260118 0.0529606c-0.0475157,0.0033937 -0.0952953,0.00582677 -0.143346,0.00719291z"/>
    <polygon id="_446785472" class="fil26" points="3.62653,6.6617 3.62653,6.6617 2.78986,4.64206 4.25658,6.29448 "/>
    <polygon id="_446785376" class="fil22" points="4.25658,6.29448 4.25658,6.29448 2.78986,4.64206 4.34943,4.32379 "/>
    <path id="_446785088" class="fil27" d="M3.65254 6.71466l-0.0260118 -0.0529606 0.630051 -0.367217 -0.0383504 0.330091c-0.183016,0.0457244 -0.372031,0.0762559 -0.565689,0.0900866z"/>
    <polygon id="_446785016" class="fil17" points="2.78986,4.64206 3.48197,3.73626 4.34943,4.32379 "/>
    <path id="_446785232" class="fil28" d="M4.00869 1.43506l0 0 -0.485453 -0.954862 1.35457 -0.0358346c0.0931693,0.0460433 0.183862,0.0963071 0.271819,0.15061l-1.14093 0.840087z"/>
    <polygon id="_446785400" class="fil23" points="4.25658,6.29448 4.34943,4.32379 5.32034,4.96034 "/>
    <path id="_446785184" class="fil1" d="M3.52324 0.480201l0 0 -1.08731 -0.230114c0.0435866,-0.0134528 0.0875945,-0.0259331 0.131929,-0.0376142l2.17713 0.169898c0.0448031,0.0197126 0.0890787,0.0403819 0.132815,0.0619961l-1.35457 0.0358346z"/>
    <path id="_446784680" class="fil29" d="M5.77469 5.73252l-0.45435 -0.772177 0.671319 -0.734358 0.0964409 1.13714c-0.0954646,0.130717 -0.200236,0.254177 -0.313409,0.369398z"/>
    <polygon id="_446784440" class="fil30" points="5.32034,4.96034 5.32034,4.96034 4.34943,4.32379 5.99166,4.22598 "/>
    <path id="_446784608" class="fil31" d="M5.99166 4.22598l-1.322 -1.6036 1.41274 -1.16667c0.0535669,0.0729134 0.104248,0.148075 0.151819,0.225362l-0.242551 2.5449z"/>
    <path id="_446784272" class="fil16" d="M4.66965 2.62238l0.620406 -1.93568c0.305098,0.210398 0.573091,0.470657 0.792331,0.769012l-1.41274 1.16667z"/>
    <path id="_446784536" class="fil25" d="M4.96144 6.33946l-0.704866 -0.0449803 1.06376 -1.33415 0.45435 0.772177c-0.237339,0.241591 -0.511409,0.446925 -0.813244,0.606949z"/>
    <polygon id="_446784392" class="fil9" points="4.34943,4.32379 4.66965,2.62238 5.99166,4.22598 "/>
    <path id="_446784296" class="fil32" d="M4.21823 6.62457l0.0383504 -0.330091 0.704866 0.0449803c-0.232673,0.123343 -0.481764,0.219783 -0.743217,0.28511z"/>
    <path id="_446784488" class="fil33" d="M3.91767 0.141508l-1.12388 0.0199606c0.20072,-0.0380118 0.407768,-0.0581417 0.619543,-0.0581417 0.171472,0 0.339898,0.0130433 0.504339,0.0381811z"/>
    <path id="_446784464" class="fil34" d="M4.74499 0.38237l-2.17713 -0.169898c0.074315,-0.0195748 0.149677,-0.0365433 0.225929,-0.0510039l1.12388 -0.0199606c0.28987,0.0443819 0.567311,0.126461 0.827323,0.240862z"/>
    <path id="_446784776" class="fil35" d="M5.99166 4.22598l0.242551 -2.5449c0.303315,0.49287 0.480941,1.07124 0.488598,1.6906l-0.73115 0.854303z"/>
    <path id="_446784752" class="fil36" d="M5.99166 4.22598l0.73115 -0.854303c0.000169291,0.0138858 0.000527559,0.0277283 0.000527559,0.0416535 0,0.224106 -0.0223976,0.442961 -0.0648504,0.654571l-0.666827 0.158079z"/>
    <path id="_446783936" class="fil19" d="M6.0881 5.36312l-0.0964409 -1.13714 0.488276 0.434835c-0.102224,0.250921 -0.234256,0.486504 -0.391835,0.702303z"/>
    <path id="_446783552" class="fil18" d="M6.47993 4.66081l-0.488276 -0.434835 0.666827 -0.158079c-0.0412126,0.205126 -0.10137,0.403382 -0.178551,0.592913z"/>
   </g>
   <path id="_446784152" class="fil37" d="M3.41333 0c0.942551,0 1.79589,0.382055 2.41358,0.999752 0.617697,0.617693 0.999752,1.47103 0.999752,2.41358 0,0.942551 -0.382055,1.79589 -0.999752,2.41358 -0.617693,0.617697 -1.47103,0.999752 -2.41358,0.999752 -0.942551,0 -1.79589,-0.382055 -2.41358,-0.999752 -0.617697,-0.617693 -0.999752,-1.47103 -0.999752,-2.41358 0,-0.942551 0.382055,-1.79589 0.999752,-2.41358 0.617693,-0.617697 1.47103,-0.999752 2.41358,-0.999752zm2.26731 1.14602c-0.580248,-0.580248 -1.38187,-0.939146 -2.26731,-0.939146 -0.885445,0 -1.68707,0.358898 -2.26731,0.939146 -0.580248,0.580248 -0.939146,1.38187 -0.939146,2.26731 0,0.885445 0.358898,1.68707 0.939146,2.26731 0.580248,0.580248 1.38187,0.939146 2.26731,0.939146 0.885445,0 1.68707,-0.358898 2.26731,-0.939146 0.580248,-0.580248 0.939146,-1.38187 0.939146,-2.26731 0,-0.885445 -0.358898,-1.68707 -0.939146,-2.26731z"/>
  </g>
  <g id="_446783096">
   <path id="_446784128" class="fil38" d="M4.47156 1.79988c0.0604724,0.0509921 0.0636378,0.128677 0.0667992,0.206339 0.00166535,0.0409409 0.00333465,0.0818819 0.0116732,0.0917677 0.00840157,0.00996063 0.0484134,0.0185787 0.0884882,0.0272008 0.0760748,0.016374 0.152283,0.0327835 0.192598,0.101606 0.0400709,0.0684016 0.0174961,0.142598 -0.00514567,0.217028 -0.0121496,0.0399449 -0.0243425,0.0800236 -0.0193898,0.0933189 0.00484646,0.0130276 0.0398504,0.0355551 0.0750354,0.0581969 0.0662205,0.042622 0.13285,0.0855079 0.147382,0.165587 0.0142795,0.0786732 -0.0315079,0.141972 -0.0776969,0.205835 -0.0256102,0.0354055 -0.0514331,0.0711102 -0.0514331,0.0889843 0,0.017878 0.0258268,0.0535787 0.0514331,0.0889803 0.0461929,0.0638701 0.0919764,0.127169 0.0776969,0.205839 -0.0145315,0.0800787 -0.0811614,0.122965 -0.147382,0.165587 -0.035185,0.0226457 -0.070185,0.0451693 -0.0750315,0.0581929 -0.00495276,0.0132992 0.00723622,0.053378 0.0193898,0.0933268 0.0226417,0.0744213 0.0452126,0.148618 0.00514567,0.217024 -0.040315,0.0688228 -0.11652,0.0852283 -0.192602,0.101602 -0.0400709,0.00862598 -0.0800866,0.0172441 -0.0884843,0.0272008 -0.00833858,0.00988976 -0.0100079,0.0508307 -0.0116732,0.0917717 -0.00316535,0.0776654 -0.00633071,0.155346 -0.0667992,0.206335 -0.0605433,0.0510591 -0.137449,0.0411732 -0.214445,0.0312717 -0.0410315,-0.00527559 -0.082126,-0.0105591 -0.093626,-0.00382283 -0.0116575,0.00682677 -0.0272087,0.0448386 -0.0428031,0.0829646 -0.0296339,0.0724291 -0.0593701,0.145126 -0.13437,0.173047 -0.0747874,0.0278504 -0.144331,-0.00675984 -0.214252,-0.0415709 -0.0382362,-0.0190315 -0.0766811,-0.0381654 -0.0917559,-0.0354331 -0.0149016,0.00270079 -0.0442835,0.0333701 -0.0738937,0.0642835 -0.0552126,0.0576339 -0.110945,0.115811 -0.193091,0.115811 -0.0821496,0 -0.137882,-0.0581772 -0.193091,-0.115811 -0.0296181,-0.0309173 -0.0589921,-0.0615787 -0.0738937,-0.0642835 -0.0150709,-0.00273228 -0.0535197,0.0164016 -0.0917559,0.035437 -0.0699213,0.034811 -0.139453,0.0694173 -0.214252,0.0415709 -0.075,-0.0279252 -0.104736,-0.100622 -0.13437,-0.173055 -0.0155945,-0.038126 -0.0311457,-0.0761339 -0.0428031,-0.0829606 -0.0115,-0.00673622 -0.0525945,-0.00145276 -0.0936299,0.00382283 -0.0769961,0.00990157 -0.153894,0.0197874 -0.214437,-0.0312677 -0.0604724,-0.0509921 -0.0636378,-0.128673 -0.0667992,-0.206343 -0.00166535,-0.040937 -0.00333465,-0.081874 -0.0116732,-0.0917638 -0.00840157,-0.00996063 -0.0484134,-0.0185748 -0.0884882,-0.0272008 -0.0760748,-0.016374 -0.152283,-0.0327835 -0.192598,-0.101606 -0.0400669,-0.0684016 -0.0174961,-0.142598 0.00514567,-0.217028 0.0121496,-0.0399488 0.0243425,-0.0800276 0.0193898,-0.0933228 -0.00484646,-0.0130236 -0.0398465,-0.0355472 -0.0750315,-0.0581929 -0.0662283,-0.042622 -0.132854,-0.0855118 -0.147386,-0.165587 -0.0142795,-0.0786732 0.0315079,-0.141972 0.0776969,-0.205835 0.0256102,-0.0354055 0.0514331,-0.0711063 0.0514331,-0.0889843 0,-0.017874 -0.0258228,-0.0535787 -0.0514331,-0.0889843 -0.0461929,-0.0638622 -0.0919764,-0.127173 -0.0776969,-0.205835 0.0145315,-0.0800748 0.0811535,-0.122965 0.147382,-0.165583 0.0351811,-0.0226457 0.070185,-0.0451732 0.0750315,-0.0582008 0.00495276,-0.0132992 -0.00723622,-0.053374 -0.0193898,-0.0933268 -0.0226417,-0.0744213 -0.0452126,-0.148618 -0.00514567,-0.21702 0.040315,-0.0688189 0.11652,-0.0852283 0.192598,-0.101602 0.0400709,-0.00862598 0.0800906,-0.0172441 0.0884882,-0.0272008 0.00833858,-0.00988976 0.0100079,-0.0508307 0.0116732,-0.0917717 0.00316535,-0.0776654 0.00633071,-0.155346 0.0667992,-0.206339 0.0605472,-0.0510512 0.137445,-0.0411654 0.214441,-0.0312677 0.0410354,0.00527953 0.0821339,0.0105591 0.0936299,0.00382677 0.0116575,-0.00682677 0.0272126,-0.0448425 0.0428071,-0.0829685 0.0296299,-0.0724331 0.0593701,-0.145122 0.134366,-0.173051 0.0747874,-0.0278504 0.144331,0.00675984 0.214252,0.0415709 0.0382362,0.0190354 0.0766811,0.0381693 0.0917559,0.035437 0.0149016,-0.00270079 0.0442835,-0.0333701 0.0738937,-0.0642835 0.0552126,-0.0576339 0.110945,-0.115811 0.193091,-0.115811 0.0821496,0 0.137882,0.0581772 0.193091,0.115811 0.0296181,0.0309173 0.0589921,0.0615787 0.0738937,0.0642835 0.0150709,0.00273228 0.0535197,-0.0164016 0.0917559,-0.035437 0.0699213,-0.034811 0.139453,-0.0694213 0.214252,-0.0415748 0.075,0.0279291 0.104736,0.100626 0.13437,0.173055 0.0155945,0.038126 0.0311457,0.0761417 0.0428031,0.0829685 0.0115,0.00673228 0.0525945,0.00145276 0.0936299,-0.00382677 0.0769961,-0.00989764 0.153894,-0.0197835 0.214437,0.0312677zm-1.05823 0.0749488c0.314189,0 0.612862,0.123724 0.835028,0.345886 0.222161,0.222165 0.345886,0.520839 0.345886,0.835028 0,0.314189 -0.123732,0.612862 -0.34589,0.835028 -0.222161,0.222161 -0.520835,0.345886 -0.835024,0.345886 -0.314189,0 -0.612862,-0.123724 -0.835024,-0.345886 -0.222157,-0.222165 -0.34589,-0.520839 -0.34589,-0.835028 0,-0.314189 0.123724,-0.612862 0.345886,-0.835028 0.222165,-0.222161 0.520839,-0.345886 0.835028,-0.345886zm0 0.0769252c-0.293831,0 -0.572898,0.115618 -0.780634,0.323354 -0.207736,0.207736 -0.323354,0.486803 -0.323354,0.780634 0,0.293831 0.115622,0.572898 0.323358,0.780634 0.207732,0.207736 0.486803,0.323358 0.78063,0.323358 0.293827,0 0.572898,-0.115622 0.78063,-0.323358 0.207736,-0.207736 0.323358,-0.486803 0.323358,-0.780634 0,-0.293831 -0.115618,-0.572898 -0.323354,-0.780634 -0.207736,-0.207736 -0.486803,-0.323354 -0.780634,-0.323354zm-0.318988 0.731902l-0.307024 0.0552047 -9.44882e-005 -0.000295276 -0.0689055 0.0123898c-0.0855669,0.015378 -0.14252,0.0972992 -0.127142,0.182866 0.00593701,0.0330276 0.0224724,0.0611732 0.0454803,0.0851575l0.260433 0.271516 -0.0412441 0.300811 -0.000220472 -2.75591e-005 -0.0106378 0.0775945c-0.0118031,0.0860984 0.0485354,0.16561 0.134638,0.177413 0.0330354,0.0045315 0.0649764,-0.00237795 0.0947323,-0.0167638l0.338992 -0.163933 0.273012 0.132024 -7.87402e-005 0.000165354 0.0708425 0.0342598c0.0782362,0.0378386 0.172504,0.00501969 0.210339,-0.0732165 0.0146417,-0.0302756 0.017752,-0.0627756 0.0132283,-0.0957638l-0.0510827 -0.372567 0.231858 -0.241724 0.000232283 6.29921e-005 0.0324764 -0.0338543c0.060189,-0.062748 0.0581102,-0.162488 -0.0046378,-0.222677 -0.0246417,-0.0236339 -0.0548189,-0.0362992 -0.0880157,-0.0422638l-0.369161 -0.066378 -0.158217 -0.295154 0.000192913 -0.000291339 -0.022185 -0.0413858c-0.0410748,-0.0766299 -0.136567,-0.105472 -0.213201,-0.0644016 -0.0300866,0.016126 -0.0514606,0.0409055 -0.0673937,0.070622l-0.177217 0.33061zm0.246618 -0.293409l-0.195205 0.364173 -0.413417 0.0743307 -9.05512e-005 -0.000295276c-0.0428031,0.00769291 -0.0712638,0.0486299 -0.0635669,0.0914331 0.0032126,0.0179016 0.012248,0.0332913 0.0248031,0.0445787l0.286791 0.298996 -0.0570512 0.41613 -0.000220472 -2.75591e-005c-0.00590551,0.0430827 0.0242323,0.0828031 0.067315,0.0887087 0.0178976,0.00245276 0.0352047,-0.00131496 0.0497559,-0.00964173l0.373276 -0.180508 0.378138 0.182858 -8.26772e-005 0.000165354c0.0391496,0.0189331 0.0862402,0.00254331 0.105169,-0.0366063 0.00794488,-0.0164213 0.00966535,-0.0342362 0.00610236,-0.0507874l-0.0562559 -0.410295 0.290697 -0.303059 0.000232283 6.69291e-005c0.0301024,-0.0313858 0.029063,-0.0812323 -0.0023189,-0.111339 -0.0134291,-0.0128819 -0.0302441,-0.0200551 -0.0474409,-0.0215945l-0.406642 -0.0731142 -0.19839 -0.370102 0.000192913 -0.000291339c-0.0205433,-0.0383268 -0.0682717,-0.0527441 -0.106602,-0.0321969 -0.0163976,0.00878346 -0.0284094,0.0225512 -0.035189,0.0384173z"/>
   <path id="_446784008" class="fil37" d="M2.70417 4.58971l0 0.743618 7.87402e-006 0c-1.1811e-005,0.0178346 0.00590945,0.0357913 0.0180906,0.0506693 0.0279843,0.034189 0.0783898,0.0392165 0.112575,0.0112323l-3.14961e-005 -3.93701e-005 0.578524 -0.473551 0.576315 0.471744c0.0140945,0.0124094 0.0325906,0.0199409 0.0528465,0.0199409 0.0441811,0 0.08,-0.0358189 0.08,-0.08l0 -0.743614c-0.0267953,0.0345197 -0.0608937,0.0626811 -0.108256,0.0803189 -0.100516,0.0374291 -0.187976,-0.000204724 -0.277815,-0.0449252 -0.0102283,-0.00509055 -0.0262717,-0.0137008 -0.0407638,-0.0202362 -0.0114016,0.0110472 -0.0235433,0.0245354 -0.0314685,0.032811 -0.0709882,0.0741063 -0.141185,0.140469 -0.250858,0.140469 -0.109677,0 -0.179874,-0.0663622 -0.250862,-0.140469 -0.0079252,-0.00827559 -0.020063,-0.0217598 -0.0314646,-0.032811 -0.0144921,0.00653543 -0.0305354,0.0151457 -0.0407638,0.0202362 -0.0898425,0.0447283 -0.177287,0.0823543 -0.277811,0.0449291 -0.0473661,-0.0176339 -0.0814685,-0.0457992 -0.108264,-0.0803228z"/>
  </g>
 </g>
</svg>
