<?xml version="1.0" encoding="UTF-8"?>
<!DOCTYPE svg PUBLIC "-//W3C//DTD SVG 1.1//EN" "http://www.w3.org/Graphics/SVG/1.1/DTD/svg11.dtd">
<!-- Creator: CorelDRAW -->
<svg xmlns="http://www.w3.org/2000/svg" xml:space="preserve" width="6.82666in" height="6.82666in" style="shape-rendering:geometricPrecision; text-rendering:geometricPrecision; image-rendering:optimizeQuality; fill-rule:evenodd; clip-rule:evenodd"
viewBox="0 0 6.82666 6.82666"
 xmlns:xlink="http://www.w3.org/1999/xlink">
 <defs>
  <style type="text/css">
   <![CDATA[
    .fil35 {fill:#5D7056}
    .fil31 {fill:#8ED16F}
    .fil1 {fill:#94D477}
    .fil7 {fill:#97D47C}
    .fil16 {fill:#9CD681}
    .fil24 {fill:#A1D988}
    .fil8 {fill:#A3D989}
    .fil17 {fill:#A7DB8F}
    .fil15 {fill:#A9DC92}
    .fil0 {fill:#AAD496}
    .fil9 {fill:#ABDC94}
    .fil3 {fill:#B0DE9B}
    .fil13 {fill:#B3E09E}
    .fil32 {fill:#B5E1A0}
    .fil6 {fill:#B5E1A1}
    .fil2 {fill:#B6E1A3}
    .fil33 {fill:#B8E3A6}
    .fil21 {fill:#BAE3A7}
    .fil14 {fill:#BDE4AC}
    .fil11 {fill:#BEE4AD}
    .fil10 {fill:#C4E6B4}
    .fil19 {fill:#C5E7B5}
    .fil12 {fill:#C5E8B6}
    .fil5 {fill:#C7E8B8}
    .fil18 {fill:#C9E9BB}
    .fil29 {fill:#CCEABE}
    .fil4 {fill:#CCEBBF}
    .fil20 {fill:#CFECC2}
    .fil22 {fill:#D0ECC4}
    .fil28 {fill:#D1ECC5}
    .fil23 {fill:#D2ECC5}
    .fil26 {fill:#D4EDC9}
    .fil25 {fill:#D9EFCE}
    .fil27 {fill:#DBF0D1}
    .fil30 {fill:#DFF3D7}
    .fil34 {fill:#5D7056;fill-rule:nonzero}
   ]]>
  </style>
 </defs>
 <g id="Layer_x0020_1">
  <metadata id="CorelCorpID_0Corel-Layer"/>
  <g id="_454742280">
   <path id="_454746192" class="fil0" d="M3.41333 0.103323c1.82806,0 3.31001,1.48194 3.31001,3.31001 0,1.82806 -1.48195,3.31001 -3.31001,3.31001 -1.82806,0 -3.31001,-1.48195 -3.31001,-3.31001 0,-1.82806 1.48194,-3.31001 3.31001,-3.31001z"/>
   <g>
    <path id="_454745808" class="fil1" d="M0.84815 1.34934l-0.00884252 -0.0168189c0.00753937,-0.00931496 0.0149882,-0.0187087 0.0226299,-0.0279409l-0.0137874 0.0447598z"/>
    <path id="_454746120" class="fil2" d="M0.103453 3.42366l0.0734567 0.129008 -0.056126 0.202343c-0.0111732,-0.108965 -0.0169882,-0.219512 -0.0173307,-0.33135z"/>
    <path id="_454746096" class="fil3" d="M0.176909 3.55267l-0.0734567 -0.129008c-1.1811e-005,-0.00345276 -0.000129921,-0.00687402 -0.000129921,-0.0103268 0,-0.0520512 0.00135433,-0.103776 0.00373228,-0.15524l0.0698543 0.294575z"/>
    <path id="_454745760" class="fil4" d="M1.18749 5.86321l0.776169 -0.14402 -0.0895354 0.62498c-0.249311,-0.131209 -0.479969,-0.293087 -0.686634,-0.480961z"/>
    <path id="_454746000" class="fil5" d="M0.877673 5.54068l0.5695 -2.23289 0.516488 2.41141 -0.776169 0.14402c-0.11039,-0.100366 -0.213819,-0.208224 -0.309819,-0.322531z"/>
    <path id="_454745616" class="fil6" d="M1.44717 3.30779l-1.24756 -0.689248c0.019374,-0.0785906 0.0415472,-0.156067 0.0664213,-0.232331l1.25347 -0.278012 -0.0723386 1.19959z"/>
    <path id="_454746072" class="fil7" d="M0.839307 1.33252l0.00884252 0.0168189 -0.0253898 0.00372441c0.00548031,-0.00687795 0.0110157,-0.0137087 0.0165472,-0.0205433z"/>
    <path id="_454745568" class="fil8" d="M0.82276 1.35307l0.0253898 -0.00372441 -0.185134 0.22185c0.0503071,-0.0749488 0.103646,-0.147681 0.159744,-0.218126z"/>
    <path id="_454745640" class="fil9" d="M0.663016 1.57119l0.185134 -0.22185 0.671362 0.758854 -1.25347 0.278012c0.0951063,-0.291531 0.229413,-0.565339 0.396976,-0.815016z"/>
    <path id="_454745280" class="fil2" d="M0.176909 3.55267l0 0 -0.0698543 -0.294575c0.0101339,-0.219457 0.0417205,-0.433287 0.092563,-0.639551l1.24756 0.689248 -1.27026 0.244878z"/>
    <path id="_454745160" class="fil10" d="M0.206878 4.23787l1.2403 -0.930087 -0.5695 2.23289c-0.313378,-0.373138 -0.546059,-0.816303 -0.670795,-1.30281z"/>
    <path id="_454745088" class="fil11" d="M0.120783 3.75501l0.056126 -0.202343 1.27026 -0.244878 -1.2403 0.930087c-0.0401969,-0.156768 -0.069189,-0.318028 -0.0860945,-0.482866z"/>
    <polygon id="_454745328" class="fil12" points="2.78981,4.64194 1.44717,3.30779 2.33531,3.05072 "/>
    <polygon id="_454744800" class="fil13" points="2.33531,3.05072 1.51951,2.1082 2.08763,1.12896 "/>
    <polygon id="_454745064" class="fil14" points="1.44717,3.30779 1.51951,2.1082 2.33531,3.05072 "/>
    <path id="_454745544" class="fil15" d="M4.66962 2.62229l-0.661004 -1.18728 1.14086 -0.840126c0.0476457,0.0294134 0.0944646,0.0600236 0.140469,0.0917402l-0.620323 1.93567z"/>
    <path id="_454745520" class="fil16" d="M0.84815 1.34934l0.0137874 -0.0447598c0.166339,-0.201031 0.356004,-0.382031 0.564807,-0.538957l0.660882 0.363331 -1.23948 0.220386z"/>
    <polygon id="_454744968" class="fil17" points="1.51951,2.1082 1.51951,2.1082 0.84815,1.34934 2.08763,1.12896 "/>
    <path id="_454744944" class="fil7" d="M2.08763 1.12896l-0.660882 -0.363331c0.201016,-0.151067 0.419858,-0.279622 0.652697,-0.382287l0.00818504 0.745618z"/>
    <polygon id="_454744200" class="fil18" points="1.96366,5.71919 1.96366,5.71919 1.44717,3.30779 2.78981,4.64194 "/>
    <polygon id="_454744368" class="fil19" points="4.34948,4.3237 3.48189,3.73626 4.66962,2.62229 "/>
    <path id="_454744704" class="fil20" d="M1.87413 6.34417l0.0895354 -0.62498 0.602197 0.894457c-0.242602,-0.0641299 -0.474299,-0.155047 -0.691732,-0.269476z"/>
    <polygon id="_454744272" class="fil21" points="3.48189,3.73626 4.00862,1.435 4.66962,2.62229 "/>
    <path id="_454744728" class="fil7" d="M2.08763 1.12896l0 0 -0.00818504 -0.745618c0.115524,-0.0509331 0.234445,-0.095563 0.356433,-0.13324l1.08729 0.230035 -1.43554 0.648823z"/>
    <polygon id="_454744560" class="fil5" points="2.78981,4.64194 2.78981,4.64194 2.33531,3.05072 3.48189,3.73626 "/>
    <polygon id="_454744632" class="fil22" points="3.62645,6.66159 1.96366,5.71919 2.78981,4.64194 "/>
    <path id="_454744032" class="fil23" d="M2.56586 6.61365l-0.602197 -0.894457 1.66279 0.942402 -0.117575 0.0602756c-0.031748,0.000901575 -0.0635827,0.0014685 -0.0955472,0.0014685 -0.292965,0 -0.576965,-0.0382402 -0.847472,-0.109689z"/>
    <polygon id="_454744392" class="fil14" points="3.48189,3.73626 3.48189,3.73626 2.33531,3.05072 4.00862,1.435 "/>
    <polygon id="_454744608" class="fil3" points="2.33531,3.05072 2.33531,3.05072 2.08763,1.12896 4.00862,1.435 "/>
    <polygon id="_454744224" class="fil24" points="4.00862,1.435 2.08763,1.12896 3.52316,0.480134 "/>
    <path id="_454743936" class="fil25" d="M3.50888 6.72187l0.117575 -0.0602756 0.0260669 0.0530709c-0.0476142,0.00339764 -0.0954921,0.00583858 -0.143642,0.00720472z"/>
    <polygon id="_454743792" class="fil26" points="3.62645,6.66159 3.62645,6.66159 2.78981,4.64194 4.25655,6.29437 "/>
    <polygon id="_454743768" class="fil22" points="4.25655,6.29437 4.25655,6.29437 2.78981,4.64194 4.34948,4.3237 "/>
    <path id="_454743744" class="fil27" d="M3.65252 6.71467l-0.0260669 -0.0530709 0.630094 -0.367224 -0.0383661 0.330217c-0.183008,0.0457205 -0.372012,0.076248 -0.565661,0.0900787z"/>
    <polygon id="_454743648" class="fil18" points="2.78981,4.64194 3.48189,3.73626 4.34948,4.3237 "/>
    <path id="_454743864" class="fil16" d="M4.00862 1.435l0 0 -0.485457 -0.95487 1.35441 -0.0358898c0.0931969,0.0460512 0.183917,0.0963228 0.271902,0.150634l-1.14086 0.840126z"/>
    <polygon id="_454743432" class="fil23" points="4.25655,6.29437 4.34948,4.3237 5.32031,4.96022 "/>
    <path id="_454743288" class="fil1" d="M3.52316 0.480134l0 0 -1.08729 -0.230035c0.0435984,-0.0134567 0.087622,-0.0259409 0.131972,-0.037626l2.17686 0.169772c0.0448189,0.0197165 0.0891142,0.0403819 0.132866,0.062l-1.35441 0.0358898z"/>
    <path id="_454743504" class="fil28" d="M5.77472 5.73249l-0.454413 -0.772272 0.67124 -0.734358 0.0965157 1.13731c-0.0954449,0.130685 -0.200193,0.254126 -0.313343,0.369323z"/>
    <polygon id="_454744008" class="fil29" points="5.32031,4.96022 5.32031,4.96022 4.34948,4.3237 5.99155,4.22586 "/>
    <path id="_454742592" class="fil2" d="M5.99155 4.22586l-1.32193 -1.60357 1.41272 -1.16665c0.053563,0.0729016 0.104232,0.148051 0.151799,0.225327l-0.242591 2.54489z"/>
    <path id="_454742736" class="fil17" d="M4.66962 2.62229l0.620323 -1.93567c0.305122,0.210398 0.573138,0.470661 0.792398,0.769024l-1.41272 1.16665z"/>
    <path id="_454743192" class="fil25" d="M4.96162 6.33938l-0.705071 -0.0450079 1.06376 -1.33415 0.454413 0.772272c-0.237303,0.241559 -0.511323,0.44687 -0.813106,0.60689z"/>
    <polygon id="_454742496" class="fil10" points="4.34948,4.3237 4.66962,2.62229 5.99155,4.22586 "/>
    <path id="_454743120" class="fil30" d="M4.21818 6.62459l0.0383661 -0.330217 0.705071 0.0450079c-0.232736,0.123394 -0.481902,0.219866 -0.743437,0.285209z"/>
    <path id="_454742808" class="fil31" d="M3.91741 0.141461l-1.12356 0.0199921c0.200701,-0.0380039 0.407724,-0.0581299 0.61948,-0.0581299 0.171378,0 0.339717,0.0130236 0.504075,0.0381378z"/>
    <path id="_454743096" class="fil1" d="M4.74471 0.382244l-2.17686 -0.169772c0.0743386,-0.0195827 0.149724,-0.0365591 0.226004,-0.0510197l1.12356 -0.0199921c0.289854,0.0443583 0.567295,0.126409 0.827303,0.240783z"/>
    <path id="_454742832" class="fil32" d="M5.99155 4.22586l0.242591 -2.54489c0.303323,0.492846 0.480976,1.07119 0.488665,1.69052l-0.731256 0.854366z"/>
    <path id="_454743024" class="fil33" d="M5.99155 4.22586l0.731256 -0.854366c0.000173228,0.0139488 0.000531496,0.0278504 0.000531496,0.0418386 0,0.224063 -0.0223937,0.442878 -0.0648268,0.654449l-0.666961 0.158079z"/>
    <path id="_454742856" class="fil20" d="M6.08807 5.36317l-0.0965157 -1.13731 0.488394 0.434945c-0.102236,0.250945 -0.234283,0.486547 -0.391878,0.702362z"/>
    <path id="_454741824" class="fil19" d="M6.47994 4.6608l-0.488394 -0.434945 0.666961 -0.158079c-0.0412087,0.205161 -0.10137,0.403457 -0.178567,0.593024z"/>
   </g>
   <path id="_454742208" class="fil34" d="M3.41333 0c0.942551,0 1.79589,0.382055 2.41358,0.999752 0.617697,0.617693 0.999752,1.47103 0.999752,2.41358 0,0.942551 -0.382055,1.79589 -0.999752,2.41358 -0.617693,0.617697 -1.47103,0.999752 -2.41358,0.999752 -0.942551,0 -1.79589,-0.382055 -2.41358,-0.999752 -0.617697,-0.617693 -0.999752,-1.47103 -0.999752,-2.41358 0,-0.942551 0.382055,-1.79589 0.999752,-2.41358 0.617693,-0.617697 1.47103,-0.999752 2.41358,-0.999752zm2.26731 1.14602c-0.580248,-0.580248 -1.38187,-0.939146 -2.26731,-0.939146 -0.885445,0 -1.68707,0.358898 -2.26731,0.939146 -0.580248,0.580248 -0.939146,1.38187 -0.939146,2.26731 0,0.885445 0.358898,1.68707 0.939146,2.26731 0.580248,0.580248 1.38187,0.939146 2.26731,0.939146 0.885445,0 1.68707,-0.358898 2.26731,-0.939146 0.580248,-0.580248 0.939146,-1.38187 0.939146,-2.26731 0,-0.885445 -0.358898,-1.68707 -0.939146,-2.26731z"/>
  </g>
  <g id="_454741104">
   <path id="_454742328" class="fil35" d="M3.24499 3.20332c0.112602,-0.0142402 0.240228,-0.0795315 0.345854,-0.164685 0.032252,-0.0260039 0.0626063,-0.0540197 0.0900315,-0.0831772 0.0429488,0.054185 0.103516,0.0969724 0.170024,0.127157 0.0599921,0.0272323 0.125346,0.0445079 0.187083,0.050815 -0.0178661,0.109492 -0.0660669,0.218008 -0.130193,0.305228 -0.0784882,0.106756 -0.179299,0.18011 -0.274043,0.18011 -0.0947441,0 -0.195555,-0.0733543 -0.274043,-0.18011 -0.0504173,-0.0685748 -0.0909843,-0.150315 -0.114713,-0.235339zm0.888299 -0.160461c0,-0.163394 -0.0581417,-0.270063 -0.152142,-0.336579 -0.0909567,-0.0643622 -0.213417,-0.0880827 -0.347402,-0.0880827 -0.13398,0 -0.256445,0.0237205 -0.347398,0.0880827 -0.0940039,0.0665157 -0.152146,0.173185 -0.152146,0.336579 0,0.157358 0.0628661,0.322378 0.154894,0.447555 0.0941732,0.128087 0.220374,0.216098 0.34465,0.216098 0.124276,0 0.25048,-0.0880118 0.34465,-0.216098 0.0946181,-0.128697 0.154894,-0.287433 0.154894,-0.447555z"/>
   <path id="_454742304" class="fil34" d="M4.26198 5.05683l0.0044252 -0.707728c0.00122047,-0.140264 -0.0453504,-0.269972 -0.124067,-0.374378 -0.0807795,-0.107138 -0.195858,-0.187843 -0.328173,-0.226035l8.26772e-005 -0.00030315c-0.0244724,-0.00705512 -0.0497008,0.000641732 -0.066185,0.0178346l-0.105843 0.105846 -0.106866 -0.106866 3.93701e-006 -7.87402e-006c-0.0169173,-0.0169173 -0.0407126,-0.0227638 -0.0623898,-0.0175394l-0.526646 0.0865 -0.168941 -0.571197 0.000125984 -0.000153543c-0.0103701,-0.035063 -0.0472087,-0.0550827 -0.0822717,-0.0447165 -0.00363386,0.0010748 -0.0071063,0.00244094 -0.0103976,0.00405118l-0.207398 0.0835315 -0.000165354 -0.00011811c-0.0314291,0.0126575 -0.0478346,0.0467008 -0.0392047,0.0786181l0.163913 0.889823 -0.00019685 9.84252e-005c0.00635039,0.0344764 0.0383465,0.0577559 0.0726614,0.0537835l0.325047 -0.027122 0.0106772 0.735484 0.0029252 0.0189646 1.24888 0.00162992z"/>
   <polygon id="_454742184" class="fil34" points="4.26027,5.41333 4.26122,5.12697 3.01085,5.12697 3.0129,5.41333 "/>
   <g>
    <path id="_454741608" class="fil34" d="M2.95058 1.58177c0.00541339,-0.0386732 -0.0215472,-0.0744173 -0.0602205,-0.0798346 -0.0386772,-0.00541339 -0.0744213,0.0215472 -0.0798346,0.0602244l-0.42772 2.99263c-0.00541732,0.0386732 0.0215472,0.0744213 0.0602205,0.0798346 0.0386772,0.00541339 0.0744213,-0.0215472 0.0798346,-0.0602244l0.42772 -2.99263z"/>
    <path id="_454741560" class="fil34" d="M2.88352 1.5982l1.49961 0.207441 -0.0095315 0.0699961 0.00972047 -0.0702756c0.038815,0.00536614 0.0659252,0.041185 0.0605551,0.0799961 -0.00019685,0.00143307 -0.000440945,0.00284252 -0.000720472,0.00424016l-0.0996457 0.669311 -0.0700906 -0.0103583 0.0701732 0.0104488c-0.00577165,0.0387559 -0.0418701,0.0654961 -0.080622,0.0597244 -0.00229528,-0.000338583 -0.00454331,-0.000791339 -0.00674803,-0.00133858l-1.48669 -0.26039 0.0120748 -0.0697283 -0.0122402 0.0698819c-0.0385945,-0.00675984 -0.0644016,-0.0435315 -0.0576417,-0.082122 0.000232283,-0.00131496 0.0005,-0.00261024 0.000795276,-0.0038937l0.0848504 -0.61339 0.0699961 0.00953543 -0.0702756 -0.00972441c0.00537008,-0.038811 0.041189,-0.0659252 0.08,-0.0605551 0.00218504,0.00030315 0.00433071,0.000708661 0.00643701,0.00120079zm1.40948 0.337602l-1.36535 -0.188866 -0.0667283 0.482378 1.35309 0.236988 0.0789843 -0.5305z"/>
    <path id="_454741488" class="fil35" d="M3.92794 1.87267l0.361539 0.297409 0.0360906 -0.242406 -0.39763 -0.0550039zm-1.09991 0.361933l0.628016 0.109996 -0.583209 -0.433886 -0.0448071 0.32389zm0.056378 -0.40752l0.733799 0.545913 0.0989921 0.0173386 -0.825732 -0.614307 -0.00705906 0.0510551zm0.0822047 -0.0873937l0.903193 0.671941c0.00262205,0.00195669 0.00491339,0.00419291 0.00685827,0.0066378l0.366311 0.0641575 0.0337953 -0.226992 -0.488843 -0.40213 -0.821315 -0.113614zm0.537602 0.289776l0.0333937 -0.0685079 -0.0550394 -0.0527205 0.0754724 0.0105906 0.0331299 -0.0686378 0.0132559 0.0750512 0.0755118 0.0103031 -0.0672795 0.0357953 0.0135394 0.075 -0.0548386 -0.0529291 -0.0671457 0.0360551zm0.181811 0.0748504l-0.0550394 -0.0527165 0.0754724 0.0105866 0.0331299 -0.0686339 0.0132559 0.0750512 0.0755118 0.0102953 -0.0672835 0.0357992 0.0135433 0.075 -0.0548386 -0.0529252 -0.0671457 0.0360512 0.0333937 -0.0685079zm0.166543 0.0982559l0.0331299 -0.0686378 0.013252 0.0750551 0.0755118 0.0102992 -0.0672835 0.0357953 0.0135433 0.075 -0.0548386 -0.0529252 -0.0671457 0.0360512 0.0333976 -0.0685079 -0.0550433 -0.0527165 0.0754764 0.0105866z"/>
    <circle id="_454741008" class="fil35" transform="matrix(0.714521 0.00441268 -0.00358692 0.580804 2.88647 1.50219)" r="0.152996"/>
   </g>
  </g>
 </g>
</svg>
