<?xml version="1.0" encoding="UTF-8"?>
<!DOCTYPE svg PUBLIC "-//W3C//DTD SVG 1.1//EN" "http://www.w3.org/Graphics/SVG/1.1/DTD/svg11.dtd">
<!-- Creator: CorelDRAW -->
<svg xmlns="http://www.w3.org/2000/svg" xml:space="preserve" width="6.82666in" height="6.82666in" style="shape-rendering:geometricPrecision; text-rendering:geometricPrecision; image-rendering:optimizeQuality; fill-rule:evenodd; clip-rule:evenodd"
viewBox="0 0 6.82666 6.82666"
 xmlns:xlink="http://www.w3.org/1999/xlink">
 <defs>
  <style type="text/css">
   <![CDATA[
    .fil35 {fill:#505B6E}
    .fil31 {fill:#819DD0}
    .fil1 {fill:#88A3D3}
    .fil7 {fill:#8BA5D4}
    .fil16 {fill:#90A9D6}
    .fil24 {fill:#96ADD8}
    .fil8 {fill:#97AFD9}
    .fil17 {fill:#9DB2DB}
    .fil15 {fill:#9EB3DC}
    .fil0 {fill:#9FB5DD}
    .fil9 {fill:#A0B5DC}
    .fil3 {fill:#A6B9DD}
    .fil13 {fill:#AABCDF}
    .fil32 {fill:#ABBDDF}
    .fil6 {fill:#ACBFE0}
    .fil2 {fill:#ADC0E0}
    .fil33 {fill:#AFC1E1}
    .fil21 {fill:#B1C1E2}
    .fil14 {fill:#B4C4E3}
    .fil11 {fill:#B6C6E4}
    .fil10 {fill:#BBCAE5}
    .fil19 {fill:#BDCBE5}
    .fil12 {fill:#BECCE6}
    .fil5 {fill:#C0CEE6}
    .fil18 {fill:#C1CFE7}
    .fil29 {fill:#C4D1E8}
    .fil4 {fill:#C5D2E9}
    .fil20 {fill:#C8D3EA}
    .fil22 {fill:#C9D5EA}
    .fil28 {fill:#CAD5EB}
    .fil23 {fill:#CAD6EB}
    .fil26 {fill:#CED8EB}
    .fil25 {fill:#D3DCEE}
    .fil27 {fill:#D5DDEE}
    .fil30 {fill:#DAE2F0}
    .fil34 {fill:#505B6E;fill-rule:nonzero}
   ]]>
  </style>
 </defs>
 <g id="Layer_x0020_1">
  <metadata id="CorelCorpID_0Corel-Layer"/>
  <g id="_507227696">
   <path id="_507231344" class="fil0" d="M3.41333 0.103323c1.82806,0 3.31001,1.48194 3.31001,3.31001 0,1.82806 -1.48195,3.31001 -3.31001,3.31001 -1.82806,0 -3.31001,-1.48195 -3.31001,-3.31001 0,-1.82806 1.48194,-3.31001 3.31001,-3.31001z"/>
   <g>
    <path id="_507231248" class="fil1" d="M0.848118 1.34935l-0.00883465 -0.0168031c0.00753937,-0.00931496 0.0149882,-0.0187008 0.022626,-0.0279331l-0.0137913 0.0447362z"/>
    <path id="_507231392" class="fil2" d="M0.103453 3.42362l0.0735079 0.129094 -0.0561614 0.202437c-0.011185,-0.109024 -0.0170039,-0.219634 -0.0173465,-0.331531z"/>
    <path id="_507231224" class="fil3" d="M0.176961 3.55271l-0.0735079 -0.129094c-1.1811e-005,-0.00343701 -0.000129921,-0.00684646 -0.000129921,-0.0102874 0,-0.0520906 0.0013622,-0.103858 0.00374016,-0.155358l0.0698976 0.29474z"/>
    <path id="_507230768" class="fil4" d="M1.18753 5.86325l0.77622 -0.144016 -0.0895591 0.624976c-0.249323,-0.131205 -0.479988,-0.293087 -0.686661,-0.480961z"/>
    <path id="_507230600" class="fil5" d="M0.877665 5.54067l0.569555 -2.23284 0.516531 2.4114 -0.77622 0.144016c-0.110406,-0.100378 -0.21385,-0.208252 -0.309866,-0.322575z"/>
    <path id="_507230912" class="fil6" d="M1.44722 3.30783l-1.2476 -0.689287c0.0193701,-0.0785866 0.0415433,-0.156059 0.0664173,-0.232323l1.25352 -0.278016 -0.0723386 1.19963z"/>
    <path id="_507230240" class="fil7" d="M0.839283 1.33255l0.00883465 0.0168031 -0.0253661 0.00372047c0.00547244,-0.00687402 0.0110039,-0.0136969 0.0165315,-0.0205236z"/>
    <path id="_507230696" class="fil8" d="M0.822752 1.35307l0.0253661 -0.00372047 -0.185051 0.22176c0.0502874,-0.0749213 0.103606,-0.147622 0.159685,-0.218039z"/>
    <path id="_507230720" class="fil9" d="M0.663067 1.57111l0.185051 -0.22176 0.671441 0.75885 -1.25352 0.278016c0.0951181,-0.291567 0.229441,-0.565406 0.397031,-0.815106z"/>
    <path id="_507230216" class="fil2" d="M0.176961 3.55271l0 0 -0.0698976 -0.29474c0.0101417,-0.219417 0.0417244,-0.433201 0.0925551,-0.639429l1.2476 0.689287 -1.27026 0.244882z"/>
    <path id="_507230624" class="fil10" d="M0.20689 4.23793l1.24033 -0.930094 -0.569555 2.23284c-0.313362,-0.373122 -0.546035,-0.816268 -0.670776,-1.30275z"/>
    <path id="_507230888" class="fil11" d="M0.120799 3.75515l0.0561614 -0.202437 1.27026 -0.244882 -1.24033 0.930094c-0.040189,-0.15674 -0.0691811,-0.317969 -0.0860906,-0.482776z"/>
    <polygon id="_507230576" class="fil12" points="2.78978,4.64198 1.44722,3.30783 2.33528,3.05077 "/>
    <polygon id="_507229520" class="fil13" points="2.33528,3.05077 1.51956,2.1082 2.08767,1.12901 "/>
    <polygon id="_507229424" class="fil14" points="1.44722,3.30783 1.51956,2.1082 2.33528,3.05077 "/>
    <path id="_507230120" class="fil15" d="M4.66963 2.62234l-0.661004 -1.18728 1.14099 -0.840094c0.047626,0.0294016 0.0944252,0.06 0.140406,0.0917087l-0.62039 1.93567z"/>
    <path id="_507229880" class="fil16" d="M0.848118 1.34935l0.0137913 -0.0447362c0.166346,-0.201043 0.356024,-0.382063 0.564839,-0.538992l0.660925 0.363382 -1.23956 0.220346z"/>
    <polygon id="_507229640" class="fil17" points="1.51956,2.1082 1.51956,2.1082 0.848118,1.34935 2.08767,1.12901 "/>
    <path id="_507229784" class="fil7" d="M2.08767 1.12901l-0.660925 -0.363382c0.201039,-0.151083 0.419906,-0.279646 0.652772,-0.382319l0.00815354 0.745701z"/>
    <polygon id="_507229568" class="fil18" points="1.96375,5.71923 1.96375,5.71923 1.44722,3.30783 2.78978,4.64198 "/>
    <polygon id="_507229928" class="fil19" points="4.34952,4.32375 3.4819,3.73626 4.66963,2.62234 "/>
    <path id="_507230048" class="fil20" d="M1.87419 6.34421l0.0895591 -0.624976 0.602114 0.894421c-0.242583,-0.064126 -0.474256,-0.155031 -0.691673,-0.269445z"/>
    <polygon id="_507229976" class="fil21" points="3.4819,3.73626 4.00862,1.43506 4.66963,2.62234 "/>
    <path id="_507229952" class="fil7" d="M2.08767 1.12901l0 0 -0.00815354 -0.745701c0.115476,-0.0509055 0.234346,-0.0955197 0.356276,-0.133185l1.08737 0.230067 -1.43549 0.648819z"/>
    <polygon id="_507229280" class="fil5" points="2.78978,4.64198 2.78978,4.64198 2.33528,3.05077 3.4819,3.73626 "/>
    <polygon id="_507228896" class="fil22" points="3.62645,6.66163 1.96375,5.71923 2.78978,4.64198 "/>
    <path id="_507228752" class="fil23" d="M2.56587 6.61365l-0.602114 -0.894421 1.6627 0.942402 -0.117492 0.0602362c-0.0317756,0.000901575 -0.0636339,0.0014685 -0.0956299,0.0014685 -0.292961,0 -0.576957,-0.0382402 -0.847465,-0.109685z"/>
    <polygon id="_507229208" class="fil14" points="3.4819,3.73626 3.4819,3.73626 2.33528,3.05077 4.00862,1.43506 "/>
    <polygon id="_507229352" class="fil3" points="2.33528,3.05077 2.33528,3.05077 2.08767,1.12901 4.00862,1.43506 "/>
    <polygon id="_507229400" class="fil24" points="4.00862,1.43506 2.08767,1.12901 3.52317,0.480189 "/>
    <path id="_507229112" class="fil25" d="M3.50896 6.72187l0.117492 -0.0602362 0.0260472 0.0530354c-0.0475787,0.00340157 -0.0954252,0.00583465 -0.143539,0.00720079z"/>
    <polygon id="_507229064" class="fil26" points="3.62645,6.66163 3.62645,6.66163 2.78978,4.64198 4.25651,6.29437 "/>
    <polygon id="_507228944" class="fil22" points="4.25651,6.29437 4.25651,6.29437 2.78978,4.64198 4.34952,4.32375 "/>
    <path id="_507228656" class="fil27" d="M3.6525 6.71467l-0.0260472 -0.0530354 0.630055 -0.367264 -0.0383661 0.330228c-0.183004,0.0457126 -0.372,0.0762402 -0.565642,0.0900709z"/>
    <polygon id="_507227960" class="fil18" points="2.78978,4.64198 3.4819,3.73626 4.34952,4.32375 "/>
    <path id="_507227888" class="fil16" d="M4.00862 1.43506l0 0 -0.485457 -0.954866 1.35469 -0.0358071c0.0931457,0.0460354 0.183823,0.0962913 0.27176,0.150579l-1.14099 0.840094z"/>
    <polygon id="_507228584" class="fil23" points="4.25651,6.29437 4.34952,4.32375 5.32031,4.96022 "/>
    <path id="_507228032" class="fil1" d="M3.52317 0.480189l0 0 -1.08737 -0.230067c0.043563,-0.0134488 0.0875472,-0.0259173 0.131858,-0.0375984l2.17747 0.169902c0.0447717,0.0197008 0.0890197,0.0403583 0.132724,0.0619567l-1.35469 0.0358071z"/>
    <path id="_507228056" class="fil28" d="M5.77474 5.73247l-0.454433 -0.772248 0.67128 -0.734358 0.0965276 1.13723c-0.0954567,0.130705 -0.200213,0.254161 -0.313374,0.369374z"/>
    <polygon id="_507228008" class="fil29" points="5.32031,4.96022 5.32031,4.96022 4.34952,4.32375 5.99159,4.22586 "/>
    <path id="_507228440" class="fil2" d="M5.99159 4.22586l-1.32196 -1.60352 1.41274 -1.16666c0.0535591,0.0728976 0.104224,0.148031 0.151787,0.225303l-0.242563 2.54488z"/>
    <path id="_507228128" class="fil17" d="M4.66963 2.62234l0.62039 -1.93567c0.305106,0.210398 0.573102,0.470657 0.79235,0.769008l-1.41274 1.16666z"/>
    <path id="_507228368" class="fil25" d="M4.96159 6.33939l-0.705087 -0.0450197 1.0638 -1.33415 0.454433 0.772248c-0.237315,0.241575 -0.51135,0.446898 -0.81315,0.606921z"/>
    <polygon id="_507228344" class="fil10" points="4.34952,4.32375 4.66963,2.62234 5.99159,4.22586 "/>
    <path id="_507228152" class="fil30" d="M4.21814 6.6246l0.0383661 -0.330228 0.705087 0.0450197c-0.23274,0.123394 -0.481913,0.21987 -0.743453,0.285209z"/>
    <path id="_507227600" class="fil31" d="M3.91771 0.141512l-1.12419 0.0200039c0.200803,-0.0380433 0.407937,-0.0581929 0.619807,-0.0581929 0.171488,0 0.339921,0.0130433 0.504382,0.038189z"/>
    <path id="_507227432" class="fil1" d="M4.74513 0.382425l-2.17747 -0.169902c0.0742953,-0.0195787 0.149634,-0.0365433 0.22587,-0.0510079l1.12419 -0.0200039c0.289902,0.0443937 0.567378,0.126484 0.827413,0.240913z"/>
    <path id="_507227480" class="fil32" d="M5.99159 4.22586l0.242563 -2.54488c0.303327,0.492858 0.480972,1.07121 0.488654,1.69056l-0.731217 0.854327z"/>
    <path id="_507227288" class="fil33" d="M5.99159 4.22586l0.731217 -0.854327c0.000173228,0.0139331 0.000531496,0.0278228 0.000531496,0.0417953 0,0.224063 -0.0223937,0.442878 -0.0648307,0.654453l-0.666917 0.158079z"/>
    <path id="_507227192" class="fil20" d="M6.08812 5.36309l-0.0965276 -1.13723 0.488366 0.434909c-0.102224,0.250929 -0.23426,0.486516 -0.391839,0.702323z"/>
    <path id="_507227336" class="fil19" d="M6.47996 4.66077l-0.488366 -0.434909 0.666917 -0.158079c-0.0412047,0.20515 -0.101362,0.403433 -0.178551,0.592988z"/>
   </g>
   <path id="_507227816" class="fil34" d="M3.41333 0c0.942551,0 1.79589,0.382055 2.41358,0.999752 0.617697,0.617693 0.999752,1.47103 0.999752,2.41358 0,0.942551 -0.382055,1.79589 -0.999752,2.41358 -0.617693,0.617697 -1.47103,0.999752 -2.41358,0.999752 -0.942551,0 -1.79589,-0.382055 -2.41358,-0.999752 -0.617697,-0.617693 -0.999752,-1.47103 -0.999752,-2.41358 0,-0.942551 0.382055,-1.79589 0.999752,-2.41358 0.617693,-0.617697 1.47103,-0.999752 2.41358,-0.999752zm2.26731 1.14602c-0.580248,-0.580248 -1.38187,-0.939146 -2.26731,-0.939146 -0.885445,0 -1.68707,0.358898 -2.26731,0.939146 -0.580248,0.580248 -0.939146,1.38187 -0.939146,2.26731 0,0.885445 0.358898,1.68707 0.939146,2.26731 0.580248,0.580248 1.38187,0.939146 2.26731,0.939146 0.885445,0 1.68707,-0.358898 2.26731,-0.939146 0.580248,-0.580248 0.939146,-1.38187 0.939146,-2.26731 0,-0.885445 -0.358898,-1.68707 -0.939146,-2.26731z"/>
  </g>
  <g id="_507226640">
   <path id="_507226496" class="fil35" d="M3.52105 3.08272c-0.0583268,0.0583228 -0.136665,0.0911339 -0.219217,0.0911339l-0.0101063 0c-0.0825512,0 -0.16089,-0.0328071 -0.219217,-0.0911299 -0.00566142,-0.00566535 -0.0111024,-0.0115472 -0.016315,-0.017626l-0.0322874 -0.0376457 -0.0322795 0.0376535c-0.0052126,0.00607874 -0.0106575,0.0119528 -0.016315,0.0176142 -0.0583268,0.0583268 -0.136665,0.0911339 -0.219217,0.0911339l-0.0101102 0c-0.0825472,0 -0.160886,-0.0328071 -0.219213,-0.0911299 -0.0232402,-0.0232441 -0.042752,-0.050063 -0.0576535,-0.0793583l-0.00573228 -0.0112638 -0.0109528 -0.00630709 -0.00105512 -0.000629921 -0.0261299 -0.0161142 -0.0235236 0.0197323c-0.054748,0.0459291 -0.122673,0.0705354 -0.19413,0.0705354l-0.0101063 0c-0.0640669,0 -0.125941,-0.0197126 -0.178264,-0.0566496l-0.0121811 -0.00859449c-0.0285551,0.204028 -0.0371024,0.427358 0.0273819,0.624283 0.046878,0.143146 0.121598,0.242984 0.214209,0.358205 0.0647835,0.0806024 0.127004,0.159228 0.175386,0.251248 0.0597362,0.113614 0.0910118,0.232988 0.10437,0.360331l0.00399213 0.0380906 1.76245 0 0.00383071 -0.0382992c0.014878,-0.148862 0.0532205,-0.265394 0.129713,-0.39328 0.0237205,-0.0396575 0.0493386,-0.0781693 0.0748898,-0.116661 0.036811,-0.0554606 0.0741496,-0.109953 0.108102,-0.167303 0.0428031,-0.0723071 0.0792756,-0.146831 0.109449,-0.225287 0.0924213,-0.240315 0.124535,-0.508799 0.133283,-0.764524 0.0036378,-0.106374 -0.0205906,-0.211406 -0.0612323,-0.309256 -0.040815,-0.0982559 -0.101004,-0.18763 -0.176205,-0.262827 -0.0751969,-0.0752008 -0.164571,-0.13539 -0.262827,-0.176201 -0.0979724,-0.0406969 -0.202732,-0.0612638 -0.308795,-0.0612638l-0.725965 0c-0.068252,0 -0.133205,0.0269016 -0.181457,0.0751496 -0.0460394,0.0460394 -0.0726417,0.107283 -0.0749882,0.172083l0 0.0187559c0.00234646,0.0647992 0.0289488,0.126043 0.0749843,0.172079 0.0482559,0.0482559 0.113209,0.0751535 0.181461,0.0751535l0.725965 0c0.038689,0 0.0767992,0.00775984 0.112492,0.0226732 0.0359173,0.0150039 0.0687244,0.0369094 0.0962559,0.0644449 0.036937,0.036937 0.061374,0.106232 0.0659449,0.158031 0.00463386,0.0525079 -0.00597638,0.107524 -0.0444173,0.145965 -0.0120669,0.012063 -0.0258701,0.0237165 -0.0387835,0.034878 -0.0234528,0.0202717 -0.0472283,0.0401969 -0.0710827,0.0599921 -0.064374,0.0534173 -0.129591,0.105945 -0.195335,0.157657 -0.066126,0.0520118 -0.133075,0.103701 -0.201465,0.152705 -0.0247283,0.0177205 -0.0498898,0.035374 -0.0756614,0.0515472 -0.00815748,0.00511417 -0.0252362,0.0160709 -0.0355,0.019937 -0.0218583,-0.0017874 -0.0390197,-0.0200748 -0.0390197,-0.0423937 0,-0.00605512 9.05512e-005,-0.0183622 0.00316142,-0.023937 0.00474016,-0.00861811 0.0286772,-0.0252087 0.0366142,-0.0310787 0.085878,-0.0634803 0.171803,-0.126874 0.256602,-0.191791 0.101902,-0.0780039 0.205224,-0.159173 0.29922,-0.246579 0.0216535,-0.0201378 0.0233622,-0.0522323 0.020937,-0.0797638 -0.00307874,-0.0348504 -0.0160079,-0.079685 -0.0413504,-0.105031 -0.019622,-0.019622 -0.0428307,-0.0355276 -0.0684606,-0.0462362 -0.0254094,-0.0106181 -0.052622,-0.0159488 -0.0801535,-0.0159488l-0.432858 0 0 0.153886c0,0.0825512 -0.032811,0.160894 -0.0911339,0.219213zm-1.00498 -1.03634l0 0.796492 0.00232283 0.00673622c0.00154331,0.00448425 0.00231496,0.00916535 0.00231496,0.0139016 0,0.0598661 0.0239213,0.116795 0.0662047,0.159079 0.0422835,0.0422835 0.0992087,0.0662008 0.159075,0.0662008l0.0101102 0c0.0598701,0 0.116791,-0.0239173 0.159075,-0.0662047 0.0278622,-0.0278583 0.048122,-0.0625354 0.058437,-0.100587l0.00149606 -0.00552756 -0.00330709 -1.10088c-0.000188976,-0.0610472 -0.0249843,-0.118917 -0.0680354,-0.161965 -0.0330276,-0.0330315 -0.0747992,-0.0550276 -0.119992,-0.0634528l0 -0.00430709 -0.0426535 0.000122047c-0.0608425,0.000181102 -0.118575,0.0248425 -0.16152,0.0677362 -0.0328976,0.0328622 -0.0547126,0.0744843 -0.0630906,0.119469l-0.00430315 0 0.000677165 0.225709c4.72441e-005,0.0160197 0.00318898,0.0317953 0.00318898,0.0474803zm-0.543862 -0.00159843l0 0.704193c0,0.0598701 0.0239213,0.116791 0.0662087,0.159075 0.0422795,0.0422835 0.0992047,0.0662047 0.159075,0.0662047l0.0101063 0c0.0588661,0 0.114575,-0.0230984 0.155823,-0.0651378 0.0419646,-0.0427677 0.0644055,-0.100398 0.0644055,-0.160142 0,-0.00370866 0.000468504,-0.00738976 0.00142126,-0.0109724l0.00144094 -0.00542913 -0.00215354 -0.716508c-0.00015748,-0.051685 -0.029622,-0.0963346 -0.0649488,-0.131661 -0.0430591,-0.0430591 -0.101016,-0.0674173 -0.16198,-0.0674173 -0.060937,0 -0.119205,0.0237559 -0.162445,0.0667402 -0.0430079,0.0427559 -0.0669528,0.100409 -0.0669528,0.161055zm1.09043 -0.402055l0 0.499429c0.00476772,-0.00540157 0.00971654,-0.0106732 0.0148465,-0.0158071 0.064315,-0.064311 0.15063,-0.100083 0.241598,-0.100083l0.20235 0 0 -0.383539c0,-0.0609646 -0.0243583,-0.118925 -0.0674173,-0.16198 -0.0430551,-0.0430591 -0.101016,-0.0674173 -0.161976,-0.0674173 -0.0609646,0 -0.118929,0.0243543 -0.161984,0.0674134 -0.0430591,0.0430551 -0.0674173,0.10102 -0.0674173,0.161984zm0.00381102 1.22078c0,0.0598661 0.0239213,0.116795 0.0662087,0.159079 0.0422795,0.0422835 0.0992047,0.0662008 0.159075,0.0662008l0.0101063 0c0.0598701,0 0.116791,-0.0239173 0.159075,-0.0662047 0.0422874,-0.0422835 0.0662047,-0.0992087 0.0662047,-0.159075l0 -0.153886 -0.208035 0c-0.0909646,0 -0.177287,-0.0357756 -0.241598,-0.100087 -0.00377953,-0.00377559 -0.00745276,-0.00762598 -0.0110354,-0.0115512l0 0.265524zm0.540051 -0.837244l0.438547 0c0.00675591,0 0.0135079,7.48031e-005 0.020252,0.000228346l0 -0.223831c0,-0.126079 -0.103315,-0.229394 -0.229394,-0.229394 -0.126079,0 -0.229402,0.103311 -0.229402,0.229394l-3.93701e-006 0.0549803 0 0.168622z"/>
   <path id="_507226448" class="fil34" d="M4.45651 5.41333l-2.08635 0c-0.0442598,0 -0.0801417,-0.0418898 -0.0801417,-0.093563l0 -0.49915c0,-0.0516732 0.0358819,-0.093563 0.0801417,-0.093563l2.08635 0c0.0442598,0 0.0801417,0.0418898 0.0801417,0.093563l0 0.49915c0,0.0516732 -0.0358819,0.093563 -0.0801417,0.093563z"/>
  </g>
 </g>
</svg>
