<?xml version="1.0" encoding="UTF-8"?>
<!DOCTYPE svg PUBLIC "-//W3C//DTD SVG 1.1//EN" "http://www.w3.org/Graphics/SVG/1.1/DTD/svg11.dtd">
<!-- Creator: CorelDRAW -->
<svg xmlns="http://www.w3.org/2000/svg" xml:space="preserve" width="6.82666in" height="6.82666in" style="shape-rendering:geometricPrecision; text-rendering:geometricPrecision; image-rendering:optimizeQuality; fill-rule:evenodd; clip-rule:evenodd"
viewBox="0 0 6.82666 6.82666"
 xmlns:xlink="http://www.w3.org/1999/xlink">
 <defs>
  <style type="text/css">
   <![CDATA[
    .fil34 {fill:#556D6E}
    .fil30 {fill:#79C7C9}
    .fil1 {fill:#81CACC}
    .fil7 {fill:#86CCCD}
    .fil15 {fill:#8ACDD0}
    .fil23 {fill:#90D1D3}
    .fil8 {fill:#92D1D3}
    .fil16 {fill:#97D4D5}
    .fil14 {fill:#9AD4D6}
    .fil9 {fill:#9BD4D7}
    .fil3 {fill:#A2D7DA}
    .fil0 {fill:#A5DADB}
    .fil31 {fill:#A7DADC}
    .fil6 {fill:#A8DBDC}
    .fil2 {fill:#AADBDD}
    .fil32 {fill:#ADDCDD}
    .fil20 {fill:#ADDCDE}
    .fil13 {fill:#B2DEE0}
    .fil11 {fill:#B3DFE0}
    .fil10 {fill:#B9E2E3}
    .fil18 {fill:#BBE2E4}
    .fil12 {fill:#BCE3E4}
    .fil5 {fill:#BDE4E4}
    .fil17 {fill:#C0E4E5}
    .fil28 {fill:#C3E5E7}
    .fil4 {fill:#C4E6E7}
    .fil19 {fill:#C6E7E8}
    .fil21 {fill:#C8E7E9}
    .fil27 {fill:#C9E8E9}
    .fil22 {fill:#CAE9EA}
    .fil25 {fill:#CCEAEB}
    .fil24 {fill:#D2ECEC}
    .fil26 {fill:#D4EDEE}
    .fil29 {fill:#DAEFF0}
    .fil33 {fill:#556D6E;fill-rule:nonzero}
   ]]>
  </style>
 </defs>
 <g id="Layer_x0020_1">
  <metadata id="CorelCorpID_0Corel-Layer"/>
  <g id="_447950688">
   <path id="_447954552" class="fil0" d="M3.41333 0.103323c1.82806,0 3.31001,1.48194 3.31001,3.31001 0,1.82806 -1.48195,3.31001 -3.31001,3.31001 -1.82806,0 -3.31001,-1.48195 -3.31001,-3.31001 0,-1.82806 1.48194,-3.31001 3.31001,-3.31001z"/>
   <g>
    <path id="_447954312" class="fil1" d="M0.848996 1.35054l-0.00955512 -0.0181772c0.00812205,-0.0100315 0.0161811,-0.0201142 0.0244173,-0.0300472l-0.0148622 0.0482244z"/>
    <path id="_447954456" class="fil2" d="M0.103449 3.42324l0.0743543 0.130587 -0.0566614 0.204283c-0.0113976,-0.11011 -0.0173622,-0.221823 -0.0176929,-0.33487z"/>
    <path id="_447954264" class="fil3" d="M0.177803 3.55383l-0.0743543 -0.130587c-1.1811e-005,-0.00331102 -0.000125984,-0.00659843 -0.000125984,-0.00991339 0,-0.0528071 0.00137402,-0.105287 0.0038189,-0.157488l0.0706614 0.297988z"/>
    <path id="_447954432" class="fil4" d="M1.1887 5.86429l0.775917 -0.143961 -0.0894724 0.624378c-0.24922,-0.131047 -0.479807,-0.292748 -0.686445,-0.480417z"/>
    <path id="_447953928" class="fil5" d="M0.878551 5.54172l0.5695 -2.23277 0.516563 2.41138 -0.775917 0.143961c-0.110504,-0.100374 -0.214043,-0.20824 -0.310146,-0.322571z"/>
    <path id="_447953808" class="fil6" d="M1.44805 3.30895l-1.24858 -0.689815c0.0192835,-0.0782835 0.0413425,-0.155461 0.0660827,-0.231445l1.25487 -0.278315 -0.072378 1.19957z"/>
    <path id="_447953736" class="fil7" d="M0.839441 1.33236l0.00955512 0.0181772 -0.027437 0.00402362c0.00591732,-0.00743701 0.0119016,-0.014815 0.0178819,-0.0222008z"/>
    <path id="_447953616" class="fil8" d="M0.821559 1.35456l0.027437 -0.00402362 -0.19289 0.231154c0.0519961,-0.0781063 0.107193,-0.153882 0.165453,-0.22713z"/>
    <path id="_447953424" class="fil9" d="M0.656106 1.58169l0.19289 -0.231154 0.671433 0.758843 -1.25487 0.278315c0.0938268,-0.288016 0.225945,-0.558717 0.390551,-0.806004z"/>
    <path id="_447953688" class="fil2" d="M0.177803 3.55383l0 0 -0.0706614 -0.297988c0.0102362,-0.218461 0.041748,-0.431323 0.0923307,-0.636705l1.24858 0.689815 -1.27025 0.244878z"/>
    <path id="_447953664" class="fil10" d="M0.207256 4.23942l1.2408 -0.930469 -0.5695 2.23277c-0.313488,-0.372961 -0.546346,-0.815949 -0.671295,-1.3023z"/>
    <path id="_447953712" class="fil11" d="M0.121142 3.75811l0.0566614 -0.204283 1.27025 -0.244878 -1.2408 0.930469c-0.0401457,-0.156264 -0.0691102,-0.317012 -0.0861142,-0.481307z"/>
    <polygon id="_447954048" class="fil12" points="2.79068,4.64309 1.44805,3.30895 2.33618,3.05189 "/>
    <polygon id="_447954120" class="fil0" points="2.33618,3.05189 1.52043,2.10938 2.08858,1.13015 "/>
    <polygon id="_447953448" class="fil13" points="1.44805,3.30895 1.52043,2.10938 2.33618,3.05189 "/>
    <path id="_447952752" class="fil14" d="M4.67046 2.62346l-0.661 -1.18727 1.14137 -0.840472c0.0475315,0.029374 0.0942441,0.059937 0.140138,0.0916063l-0.620504 1.93613z"/>
    <path id="_447952992" class="fil15" d="M0.848996 1.35054l0.0148622 -0.0482244c0.165748,-0.199949 0.354567,-0.380055 0.562374,-0.536295l0.662346 0.364134 -1.23958 0.220386z"/>
    <polygon id="_447952968" class="fil16" points="1.52043,2.10938 1.52043,2.10938 0.848996,1.35054 2.08858,1.13015 "/>
    <path id="_447953088" class="fil7" d="M2.08858 1.13015l-0.662346 -0.364134c0.201398,-0.151413 0.420697,-0.280228 0.654047,-0.383043l0.00829921 0.747177z"/>
    <polygon id="_447952656" class="fil17" points="1.96461,5.72033 1.96461,5.72033 1.44805,3.30895 2.79068,4.64309 "/>
    <polygon id="_447952872" class="fil18" points="4.35036,4.32486 3.48275,3.73742 4.67046,2.62346 "/>
    <path id="_447952848" class="fil19" d="M1.87514 6.34471l0.0894724 -0.624378 0.601437 0.89337c-0.242295,-0.0640354 -0.473713,-0.154787 -0.690909,-0.268992z"/>
    <polygon id="_447953304" class="fil20" points="3.48275,3.73742 4.00946,1.4362 4.67046,2.62346 "/>
    <path id="_447953064" class="fil7" d="M2.08858 1.13015l0 0 -0.00829921 -0.747177c0.114626,-0.0504961 0.232583,-0.0948189 0.353571,-0.132272l1.09017 0.230638 -1.43544 0.648811z"/>
    <polygon id="_447953112" class="fil5" points="2.79068,4.64309 2.79068,4.64309 2.33618,3.05189 3.48275,3.73742 "/>
    <polygon id="_447951912" class="fil21" points="3.6273,6.66272 1.96461,5.72033 2.79068,4.64309 "/>
    <path id="_447952032" class="fil22" d="M2.56605 6.6137l-0.601437 -0.89337 1.66269 0.94239 -0.115126 0.0590276c-0.0328425,0.000964567 -0.0657717,0.00159055 -0.0988465,0.00159055 -0.292894,0 -0.576827,-0.0382244 -0.84728,-0.109638z"/>
    <polygon id="_447951936" class="fil13" points="3.48275,3.73742 3.48275,3.73742 2.33618,3.05189 4.00946,1.4362 "/>
    <polygon id="_447952008" class="fil3" points="2.33618,3.05189 2.33618,3.05189 2.08858,1.13015 4.00946,1.4362 "/>
    <polygon id="_447952536" class="fil23" points="4.00946,1.4362 2.08858,1.13015 3.52402,0.481339 "/>
    <path id="_447952224" class="fil24" d="M3.51218 6.72175l0.115126 -0.0590276 0.0255039 0.0519291c-0.046622,0.00333071 -0.0934961,0.00571654 -0.14063,0.00709843z"/>
    <polygon id="_447952344" class="fil25" points="3.6273,6.66272 3.6273,6.66272 2.79068,4.64309 4.25735,6.2955 "/>
    <polygon id="_447952176" class="fil21" points="4.25735,6.2955 4.25735,6.2955 2.79068,4.64309 4.35036,4.32486 "/>
    <path id="_447952368" class="fil26" d="M3.65281 6.71465l-0.0255039 -0.0519291 0.630047 -0.367217 -0.0382047 0.32885c-0.18322,0.0458268 -0.372453,0.0764291 -0.566339,0.0902953z"/>
    <polygon id="_447952128" class="fil17" points="2.79068,4.64309 3.48275,3.73742 4.35036,4.32486 "/>
    <path id="_447952440" class="fil15" d="M4.00946 1.4362l0 0 -0.485449 -0.954858 1.3559 -0.0359291c0.0928543,0.0459724 0.183244,0.0961417 0.270913,0.150315l-1.14137 0.840472z"/>
    <polygon id="_447951096" class="fil22" points="4.25735,6.2955 4.35036,4.32486 5.3211,4.96137 "/>
    <path id="_447951792" class="fil1" d="M3.52402 0.481339l0 0 -1.09017 -0.230638c0.043185,-0.0133583 0.0867992,-0.0257165 0.130717,-0.0373386l2.18331 0.170264c0.0445433,0.0196496 0.0885551,0.0402559 0.132043,0.0617835l-1.3559 0.0359291z"/>
    <path id="_447951480" class="fil27" d="M5.77484 5.73237l-0.453736 -0.771004 0.671315 -0.73435 0.0963543 1.13518c-0.0956063,0.131 -0.200547,0.254724 -0.313933,0.370173z"/>
    <polygon id="_447951744" class="fil28" points="5.3211,4.96137 5.3211,4.96137 4.35036,4.32486 5.99242,4.22702 "/>
    <path id="_447951648" class="fil2" d="M5.99242 4.22702l-1.32195 -1.60355 1.41273 -1.16665c0.0535512,0.0729528 0.104217,0.148142 0.151768,0.225465l-0.242543 2.54474z"/>
    <path id="_447951720" class="fil16" d="M4.67046 2.62346l0.620504 -1.93613c0.305094,0.210547 0.573051,0.470965 0.792224,0.76948l-1.41273 1.16665z"/>
    <path id="_447951384" class="fil24" d="M4.9598 6.34034l-0.702445 -0.0448386 1.06375 -1.33414 0.453736 0.771004c-0.237807,0.242094 -0.512496,0.447787 -0.815043,0.607972z"/>
    <polygon id="_447951216" class="fil10" points="4.35036,4.32486 4.67046,2.62346 5.99242,4.22702 "/>
    <path id="_447951600" class="fil29" d="M4.21915 6.62435l0.0382047 -0.32885 0.702445 0.0448386c-0.231933,0.122783 -0.480146,0.218843 -0.74065,0.284012z"/>
    <path id="_447951240" class="fil30" d="M3.92407 0.142563l-1.13726 0.0202362c0.202898,-0.038874 0.412287,-0.0594764 0.62652,-0.0594764 0.173705,0 0.344256,0.0134567 0.510736,0.0392402z"/>
    <path id="_447950664" class="fil1" d="M4.74787 0.383626l-2.18331 -0.170264c0.0731181,-0.0193425 0.147244,-0.0361732 0.222244,-0.050563l1.13726 -0.0202362c0.288614,0.0447717 0.564886,0.126846 0.823807,0.241063z"/>
    <path id="_447950328" class="fil31" d="M5.99242 4.22702l0.242543 -2.54474c0.303177,0.493126 0.480571,1.07176 0.487874,1.69135l-0.730417 0.85339z"/>
    <path id="_447951048" class="fil32" d="M5.99242 4.22702l0.730417 -0.85339c0.000153543,0.0132362 0.000503937,0.0264291 0.000503937,0.0397047 0,0.224563 -0.0224803,0.443858 -0.0651024,0.65587l-0.665819 0.157815z"/>
    <path id="_447950568" class="fil19" d="M6.08877 5.3622l-0.0963543 -1.13518 0.487413 0.434063c-0.102067,0.250465 -0.233831,0.485642 -0.391059,0.701118z"/>
    <path id="_447950856" class="fil18" d="M6.47983 4.66108l-0.487413 -0.434063 0.665819 -0.157815c-0.0412244,0.204756 -0.101335,0.402665 -0.178406,0.591878z"/>
   </g>
   <path id="_447950352" class="fil33" d="M3.41333 0c0.942551,0 1.79589,0.382055 2.41358,0.999752 0.617697,0.617693 0.999752,1.47103 0.999752,2.41358 0,0.942551 -0.382055,1.79589 -0.999752,2.41358 -0.617693,0.617697 -1.47103,0.999752 -2.41358,0.999752 -0.942551,0 -1.79589,-0.382055 -2.41358,-0.999752 -0.617697,-0.617693 -0.999752,-1.47103 -0.999752,-2.41358 0,-0.942551 0.382055,-1.79589 0.999752,-2.41358 0.617693,-0.617697 1.47103,-0.999752 2.41358,-0.999752zm2.26731 1.14602c-0.580248,-0.580248 -1.38187,-0.939146 -2.26731,-0.939146 -0.885445,0 -1.68707,0.358898 -2.26731,0.939146 -0.580248,0.580248 -0.939146,1.38187 -0.939146,2.26731 0,0.885445 0.358898,1.68707 0.939146,2.26731 0.580248,0.580248 1.38187,0.939146 2.26731,0.939146 0.885445,0 1.68707,-0.358898 2.26731,-0.939146 0.580248,-0.580248 0.939146,-1.38187 0.939146,-2.26731 0,-0.885445 -0.358898,-1.68707 -0.939146,-2.26731z"/>
  </g>
  <g id="_447949896">
   <path id="_447949656" class="fil34" d="M1.86181 3.99333l3.10089 0c0.044185,0 0.0800039,0.0358189 0.0800039,0.08l0 0.126425c-0.00499213,0.000744094 -0.00998425,0.0017126 -0.0149724,0.00295276l-0.211689 0.0524843c-0.085185,0.021122 -0.137839,0.108059 -0.11687,0.193319 0.00584252,0.0237441 0.0168071,0.0449724 0.0314291,0.0627913 -0.0305157,0.0376181 -0.043815,0.088563 -0.0314291,0.138921 0.00584252,0.023748 0.0168071,0.0449764 0.0314291,0.0627913 -0.0305157,0.037622 -0.043815,0.0885669 -0.0314291,0.138925 0.00584252,0.0237441 0.0168071,0.0449724 0.0314291,0.0627913 -0.0305157,0.0376181 -0.043815,0.088563 -0.0314291,0.138921 0.0209921,0.0853465 0.108165,0.138142 0.1935,0.11698l0.150031 -0.0371969 0 0.19989c0,0.0441811 -0.0358189,0.08 -0.0800039,0.08l-3.10089 0c-0.0441811,0 -0.08,-0.0358189 -0.08,-0.08l0 -0.200425 0.152173 0.0377323c0.0853386,0.0211614 0.172512,-0.0316339 0.1935,-0.11698 0.0123898,-0.0503583 -0.000909449,-0.101303 -0.0314291,-0.138921 0.014622,-0.0178189 0.0255906,-0.0390472 0.0314291,-0.0627913 0.0123898,-0.0503583 -0.000909449,-0.101303 -0.0314291,-0.138925 0.014622,-0.017815 0.0255906,-0.0390433 0.0314291,-0.0627913 0.0123898,-0.0503583 -0.000909449,-0.101303 -0.0314291,-0.138921 0.014622,-0.0178189 0.0255906,-0.0390472 0.0314291,-0.0627913 0.0209724,-0.0852598 -0.0316811,-0.172197 -0.11687,-0.193319l-0.211689 -0.0524843c-0.00570472,-0.00141732 -0.0114134,-0.00248819 -0.0171142,-0.00325197l0 -0.126126c0,-0.0441811 0.0358189,-0.08 0.08,-0.08zm0.371457 0.463079l0.159106 0c0.0358386,0 0.0631417,0.00302362 0.0820118,0.0091811 0.0252992,0.00828346 0.0469803,0.0230591 0.0649488,0.0443346 0.0180709,0.0211575 0.0318189,0.0471299 0.0412559,0.0778031 0.00933858,0.0307835 0.0140551,0.068626 0.0140551,0.11374 0,0.0395197 -0.00441732,0.0736654 -0.013252,0.102323 -0.0107402,0.0349252 -0.0260984,0.063248 -0.0461732,0.0848583 -0.0150591,0.0164567 -0.035437,0.0292165 -0.0611339,0.0383937 -0.0191732,0.00683071 -0.0448701,0.010189 -0.0770945,0.010189l-0.163724 0 0 -0.480823zm0.0870315 0.0813898l0 0.318386 0.0649488 0c0.0242953,0 0.0418583,-0.00145669 0.0527008,-0.00459449 0.0140551,-0.00391732 0.0257992,-0.0105236 0.0351339,-0.0199252 0.00933465,-0.00940157 0.0168661,-0.0249685 0.0227874,-0.0464606 0.00582283,-0.0214921 0.00883465,-0.0509331 0.00883465,-0.0881024 0,-0.0371693 -0.00301181,-0.0656024 -0.00883465,-0.0855315 -0.00592126,-0.0199252 -0.0141535,-0.0354843 -0.0246969,-0.0465669 -0.0106378,-0.0111969 -0.0240906,-0.0186969 -0.0403504,-0.0226142 -0.0121496,-0.00313386 -0.035937,-0.00459055 -0.0714724,-0.00459055l-0.0390512 0zm0.348224 0.399433l0 -0.480823 0.319618 0 0 0.0813898 -0.232583 0 0 0.106575 0.216425 0 0 0.080937 -0.216425 0 0 0.130874 0.240815 0 0 0.0810472 -0.32785 0zm0.401933 -0.480823l0.172358 0c0.0341299,0 0.059626,0.00156693 0.0763898,0.00481496 0.0167638,0.00313386 0.0317244,0.00974016 0.0449724,0.0198189 0.013252,0.0100709 0.0241929,0.0233976 0.0330276,0.040185 0.00883465,0.016685 0.013248,0.0354882 0.013248,0.0562008 0,0.0225039 -0.00541732,0.0432126 -0.0162598,0.0620197 -0.0109449,0.0188071 -0.0257008,0.0329134 -0.0442677,0.0423189 0.0261969,0.00850394 0.0464764,0.0230591 0.0605276,0.0435433 0.0141535,0.0206024 0.0211811,0.0447835 0.0211811,0.0725472 0,0.0218307 -0.00451575,0.0430984 -0.0136535,0.063811 -0.00913386,0.0205984 -0.0215787,0.0371654 -0.0373425,0.0494803 -0.0157598,0.012311 -0.0352323,0.0199291 -0.0584213,0.0228346 -0.0144567,0.0016811 -0.0494882,0.00279921 -0.105,0.00324803l-0.14676 0 0 -0.480823zm0.0871339 0.0800472l0 0.111165 0.0570157 0c0.0339331,0 0.0550118,-0.000562992 0.0632402,-0.0016811 0.0148583,-0.00190551 0.0266024,-0.00761024 0.0351339,-0.017126 0.00853543,-0.00951575 0.012752,-0.0220551 0.012752,-0.0376142 0,-0.0148937 -0.00361417,-0.0269843 -0.0109449,-0.0362756 -0.00742913,-0.00929134 -0.0183661,-0.0148858 -0.0328228,-0.0167874 -0.00863386,-0.00112205 -0.0334252,-0.0016811 -0.0743858,-0.0016811l-0.0499882 0zm0 0.191209l0 0.12852 0.0805079 0c0.0314173,0 0.0512953,-0.000897638 0.0597283,-0.00291339 0.0129449,-0.0025748 0.0234882,-0.00906693 0.0316181,-0.0191417 0.00812992,-0.010189 0.012248,-0.0238465 0.012248,-0.0408622 0,-0.0144449 -0.0032126,-0.0266457 -0.00943701,-0.0367205 -0.00632283,-0.0100748 -0.0153583,-0.0174646 -0.0272047,-0.0220512 -0.0118425,-0.00459449 -0.0376417,-0.00683071 -0.0771929,-0.00683071l-0.0702677 0zm0.736402 0.209567l-0.0947598 0 -0.0376417 -0.10926 -0.172358 0 -0.0355354 0.10926 -0.0923504 0 0.167941 -0.480823 0.0920472 0 0.172657 0.480823zm-0.160307 -0.190197l-0.0594291 -0.178449 -0.0582205 0.178449 0.11765 0zm0.258783 0.190197l0 -0.399433 -0.127886 0 0 -0.0813898 0.342602 0 0 0.0813898 -0.127587 0 0 0.399433 -0.0871299 0zm0.270929 0l0 -0.480823 0.319618 0 0 0.0813898 -0.232583 0 0 0.106575 0.216425 0 0 0.080937 -0.216425 0 0 0.130874 0.240815 0 0 0.0810472 -0.32785 0z"/>
   <path id="_447949920" class="fil33" d="M4.4908 3.91333c-0.072622,-0.097374 -0.159126,-0.184701 -0.256681,-0.259256 -0.133862,-0.102307 -0.28865,-0.180366 -0.457004,-0.227106l6.69291e-005 -0.00023622c-0.0303268,-0.00841732 -0.0614173,0.00181496 -0.0810709,0.0237835l-0.283854 0.273224 -0.288189 -0.277402 0.000145669 -0.000153543c-0.0228425,-0.0219882 -0.0553819,-0.0277008 -0.0832598,-0.0174055 -0.165862,0.0469331 -0.318409,0.124311 -0.450563,0.225299 -0.0975551,0.0745551 -0.184059,0.161882 -0.256677,0.259252l2.15709 0z"/>
   <path id="_447949872" class="fil33" d="M1.77967 4.48207c-0.0427992,-0.0105276 -0.0860354,0.0156378 -0.096563,0.058437 -0.0105276,0.0427992 0.0156378,0.0860354 0.058437,0.096563l0.211689 0.0524843c0.0428031,0.0105276 0.0860394,-0.0156378 0.0965669,-0.058437 0.0105236,-0.0427992 -0.0156378,-0.0860354 -0.0584409,-0.096563l-0.211689 -0.0524843zm0 -0.201717c-0.0427992,-0.0105236 -0.0860354,0.0156378 -0.096563,0.0584409 -0.0105276,0.0427992 0.0156378,0.0860354 0.058437,0.096563l0.211689 0.0524843c0.0428031,0.0105276 0.0860394,-0.0156378 0.0965669,-0.058437 0.0105236,-0.0427992 -0.0156378,-0.0860394 -0.0584409,-0.096563l-0.211689 -0.0524882zm0 0.605142c-0.0427992,-0.0105276 -0.0860354,0.0156378 -0.096563,0.058437 -0.0105276,0.0427992 0.0156378,0.0860394 0.058437,0.096563l0.211689 0.0524882c0.0428031,0.0105276 0.0860394,-0.0156378 0.0965669,-0.058437 0.0105236,-0.0427992 -0.0156378,-0.0860354 -0.0584409,-0.096563l-0.211689 -0.0524882zm0 -0.201713c-0.0427992,-0.0105276 -0.0860354,0.0156378 -0.096563,0.058437 -0.0105276,0.0428031 0.0156378,0.0860394 0.058437,0.0965669l0.211689 0.0524843c0.0428031,0.0105276 0.0860394,-0.0156378 0.0965669,-0.058437 0.0105236,-0.0428031 -0.0156378,-0.0860394 -0.0584409,-0.0965669l-0.211689 -0.0524843z"/>
   <path id="_447950160" class="fil33" d="M5.08511 5.0405c0.0427992,-0.0105236 0.0689646,-0.0537638 0.058437,-0.096563 -0.0105276,-0.0427992 -0.0537638,-0.0689646 -0.096563,-0.058437l-0.211689 0.0524882c-0.0427992,0.0105276 -0.0689646,0.0537638 -0.058437,0.096563 0.0105276,0.0427992 0.0537638,0.0689646 0.096563,0.058437l0.211689 -0.0524882zm0 -0.605138c0.0427992,-0.0105276 0.0689646,-0.0537638 0.058437,-0.096563 -0.0105276,-0.0428031 -0.0537638,-0.0689646 -0.096563,-0.0584409l-0.211689 0.0524882c-0.0427992,0.0105236 -0.0689646,0.0537638 -0.058437,0.096563 0.0105276,0.0427992 0.0537638,0.0689646 0.096563,0.058437l0.211689 -0.0524843zm0 0.201713c0.0427992,-0.0105276 0.0689646,-0.0537638 0.058437,-0.096563 -0.0105276,-0.0427992 -0.0537638,-0.0689646 -0.096563,-0.058437l-0.211689 0.0524843c-0.0427992,0.0105276 -0.0689646,0.0537638 -0.058437,0.096563 0.0105276,0.0427992 0.0537638,0.0689646 0.096563,0.058437l0.211689 -0.0524843zm0 0.201717c0.0427992,-0.0105276 0.0689646,-0.0537638 0.058437,-0.0965669 -0.0105276,-0.0427992 -0.0537638,-0.0689646 -0.096563,-0.058437l-0.211689 0.0524843c-0.0427992,0.0105276 -0.0689646,0.0537638 -0.058437,0.0965669 0.0105276,0.0427992 0.0537638,0.0689646 0.096563,0.058437l0.211689 -0.0524843z"/>
   <path id="_447949632" class="fil34" d="M2.70335 2.48031c0.205331,-0.0259606 0.438059,-0.145024 0.630669,-0.300303 0.058815,-0.0474134 0.114165,-0.0985039 0.164177,-0.151673 0.078315,0.0988031 0.188764,0.176827 0.310043,0.231878 0.109394,0.0496535 0.228571,0.0811575 0.34115,0.0926575 -0.0325827,0.199661 -0.120472,0.397539 -0.237409,0.556591 -0.143126,0.194673 -0.326957,0.328433 -0.499724,0.328433 -0.172768,0 -0.356598,-0.13376 -0.499724,-0.328433 -0.0919409,-0.125043 -0.165913,-0.274098 -0.209181,-0.42915zm1.61983 -0.292594c0,-0.297957 -0.106024,-0.492472 -0.277437,-0.613768 -0.165858,-0.117362 -0.389173,-0.160614 -0.633492,-0.160614 -0.244319,0 -0.467634,0.043252 -0.633492,0.160614 -0.171413,0.121295 -0.277441,0.315811 -0.277441,0.613768 0,0.286941 0.114638,0.587858 0.282457,0.816122 0.171724,0.233571 0.401854,0.394059 0.628476,0.394059 0.226618,0 0.456752,-0.160488 0.628476,-0.394059 0.172539,-0.234681 0.282453,-0.524142 0.282453,-0.816122z"/>
  </g>
 </g>
</svg>
