<?xml version="1.0" encoding="UTF-8"?>
<!DOCTYPE svg PUBLIC "-//W3C//DTD SVG 1.1//EN" "http://www.w3.org/Graphics/SVG/1.1/DTD/svg11.dtd">
<!-- Creator: CorelDRAW -->
<svg xmlns="http://www.w3.org/2000/svg" xml:space="preserve" width="6.82666in" height="6.82666in" style="shape-rendering:geometricPrecision; text-rendering:geometricPrecision; image-rendering:optimizeQuality; fill-rule:evenodd; clip-rule:evenodd"
viewBox="0 0 6.82666 6.82666"
 xmlns:xlink="http://www.w3.org/1999/xlink">
 <defs>
  <style type="text/css">
   <![CDATA[
    .fil34 {fill:#556D6E}
    .fil30 {fill:#79C7C9}
    .fil1 {fill:#81CACC}
    .fil7 {fill:#86CCCD}
    .fil15 {fill:#8ACDD0}
    .fil23 {fill:#90D1D3}
    .fil8 {fill:#92D1D3}
    .fil16 {fill:#97D4D5}
    .fil14 {fill:#9AD4D6}
    .fil9 {fill:#9BD4D7}
    .fil3 {fill:#A2D7DA}
    .fil0 {fill:#A5DADB}
    .fil31 {fill:#A7DADC}
    .fil6 {fill:#A8DBDC}
    .fil2 {fill:#AADBDD}
    .fil32 {fill:#ADDCDD}
    .fil20 {fill:#ADDCDE}
    .fil13 {fill:#B2DEE0}
    .fil11 {fill:#B3DFE0}
    .fil10 {fill:#B9E2E3}
    .fil18 {fill:#BBE2E4}
    .fil12 {fill:#BCE3E4}
    .fil5 {fill:#BDE4E4}
    .fil17 {fill:#C0E4E5}
    .fil28 {fill:#C3E5E7}
    .fil4 {fill:#C4E6E7}
    .fil19 {fill:#C6E7E8}
    .fil21 {fill:#C8E7E9}
    .fil27 {fill:#C9E8E9}
    .fil22 {fill:#CAE9EA}
    .fil25 {fill:#CCEAEB}
    .fil24 {fill:#D2ECEC}
    .fil26 {fill:#D4EDEE}
    .fil29 {fill:#DAEFF0}
    .fil33 {fill:#556D6E;fill-rule:nonzero}
   ]]>
  </style>
 </defs>
 <g id="Layer_x0020_1">
  <metadata id="CorelCorpID_0Corel-Layer"/>
  <g id="_422883576">
   <path id="_422888088" class="fil0" d="M3.41333 0.103323c1.82806,0 3.31001,1.48194 3.31001,3.31001 0,1.82806 -1.48195,3.31001 -3.31001,3.31001 -1.82806,0 -3.31001,-1.48195 -3.31001,-3.31001 0,-1.82806 1.48194,-3.31001 3.31001,-3.31001z"/>
   <g>
    <path id="_422887824" class="fil1" d="M0.848996 1.35054l-0.00955512 -0.0181772c0.00812205,-0.0100315 0.0161811,-0.0201142 0.0244173,-0.0300472l-0.0148622 0.0482244z"/>
    <path id="_422887752" class="fil2" d="M0.103449 3.42324l0.0743543 0.130587 -0.0566614 0.204283c-0.0113976,-0.11011 -0.0173622,-0.221823 -0.0176929,-0.33487z"/>
    <path id="_422887728" class="fil3" d="M0.177803 3.55383l-0.0743543 -0.130587c-1.1811e-005,-0.00331102 -0.000125984,-0.00659843 -0.000125984,-0.00991339 0,-0.0528071 0.00137402,-0.105287 0.0038189,-0.157488l0.0706614 0.297988z"/>
    <path id="_422887992" class="fil4" d="M1.1887 5.86429l0.775917 -0.143961 -0.0894724 0.624378c-0.24922,-0.131047 -0.479807,-0.292748 -0.686445,-0.480417z"/>
    <path id="_422887944" class="fil5" d="M0.878551 5.54172l0.5695 -2.23277 0.516563 2.41138 -0.775917 0.143961c-0.110504,-0.100374 -0.214043,-0.20824 -0.310146,-0.322571z"/>
    <path id="_422887896" class="fil6" d="M1.44805 3.30895l-1.24858 -0.689815c0.0192835,-0.0782835 0.0413425,-0.155461 0.0660827,-0.231445l1.25487 -0.278315 -0.072378 1.19957z"/>
    <path id="_422887800" class="fil7" d="M0.839441 1.33236l0.00955512 0.0181772 -0.027437 0.00402362c0.00591732,-0.00743701 0.0119016,-0.014815 0.0178819,-0.0222008z"/>
    <path id="_422887512" class="fil8" d="M0.821559 1.35456l0.027437 -0.00402362 -0.19289 0.231154c0.0519961,-0.0781063 0.107193,-0.153882 0.165453,-0.22713z"/>
    <path id="_422887464" class="fil9" d="M0.656106 1.58169l0.19289 -0.231154 0.671433 0.758843 -1.25487 0.278315c0.0938268,-0.288016 0.225945,-0.558717 0.390551,-0.806004z"/>
    <path id="_422886744" class="fil2" d="M0.177803 3.55383l0 0 -0.0706614 -0.297988c0.0102362,-0.218461 0.041748,-0.431323 0.0923307,-0.636705l1.24858 0.689815 -1.27025 0.244878z"/>
    <path id="_422887104" class="fil10" d="M0.207256 4.23942l1.2408 -0.930469 -0.5695 2.23277c-0.313488,-0.372961 -0.546346,-0.815949 -0.671295,-1.3023z"/>
    <path id="_422887080" class="fil11" d="M0.121142 3.75811l0.0566614 -0.204283 1.27025 -0.244878 -1.2408 0.930469c-0.0401457,-0.156264 -0.0691102,-0.317012 -0.0861142,-0.481307z"/>
    <polygon id="_422887296" class="fil12" points="2.79068,4.64309 1.44805,3.30895 2.33618,3.05189 "/>
    <polygon id="_422886936" class="fil0" points="2.33618,3.05189 1.52043,2.10938 2.08858,1.13015 "/>
    <polygon id="_422887248" class="fil13" points="1.44805,3.30895 1.52043,2.10938 2.33618,3.05189 "/>
    <path id="_422886912" class="fil14" d="M4.67046 2.62346l-0.661 -1.18727 1.14137 -0.840472c0.0475315,0.029374 0.0942441,0.059937 0.140138,0.0916063l-0.620504 1.93613z"/>
    <path id="_422886864" class="fil15" d="M0.848996 1.35054l0.0148622 -0.0482244c0.165748,-0.199949 0.354567,-0.380055 0.562374,-0.536295l0.662346 0.364134 -1.23958 0.220386z"/>
    <polygon id="_422887152" class="fil16" points="1.52043,2.10938 1.52043,2.10938 0.848996,1.35054 2.08858,1.13015 "/>
    <path id="_422887200" class="fil7" d="M2.08858 1.13015l-0.662346 -0.364134c0.201398,-0.151413 0.420697,-0.280228 0.654047,-0.383043l0.00829921 0.747177z"/>
    <polygon id="_422885856" class="fil17" points="1.96461,5.72033 1.96461,5.72033 1.44805,3.30895 2.79068,4.64309 "/>
    <polygon id="_422886552" class="fil18" points="4.35036,4.32486 3.48275,3.73742 4.67046,2.62346 "/>
    <path id="_422886480" class="fil19" d="M1.87514 6.34471l0.0894724 -0.624378 0.601437 0.89337c-0.242295,-0.0640354 -0.473713,-0.154787 -0.690909,-0.268992z"/>
    <polygon id="_422885904" class="fil20" points="3.48275,3.73742 4.00946,1.4362 4.67046,2.62346 "/>
    <path id="_422886408" class="fil7" d="M2.08858 1.13015l0 0 -0.00829921 -0.747177c0.114626,-0.0504961 0.232583,-0.0948189 0.353571,-0.132272l1.09017 0.230638 -1.43544 0.648811z"/>
    <polygon id="_422886288" class="fil5" points="2.79068,4.64309 2.79068,4.64309 2.33618,3.05189 3.48275,3.73742 "/>
    <polygon id="_422886000" class="fil21" points="3.6273,6.66272 1.96461,5.72033 2.79068,4.64309 "/>
    <path id="_422886168" class="fil22" d="M2.56605 6.6137l-0.601437 -0.89337 1.66269 0.94239 -0.115126 0.0590276c-0.0328425,0.000964567 -0.0657717,0.00159055 -0.0988465,0.00159055 -0.292894,0 -0.576827,-0.0382244 -0.84728,-0.109638z"/>
    <polygon id="_422885928" class="fil13" points="3.48275,3.73742 3.48275,3.73742 2.33618,3.05189 4.00946,1.4362 "/>
    <polygon id="_422886336" class="fil3" points="2.33618,3.05189 2.33618,3.05189 2.08858,1.13015 4.00946,1.4362 "/>
    <polygon id="_422886144" class="fil23" points="4.00946,1.4362 2.08858,1.13015 3.52402,0.481339 "/>
    <path id="_422885760" class="fil24" d="M3.51218 6.72175l0.115126 -0.0590276 0.0255039 0.0519291c-0.046622,0.00333071 -0.0934961,0.00571654 -0.14063,0.00709843z"/>
    <polygon id="_422885304" class="fil25" points="3.6273,6.66272 3.6273,6.66272 2.79068,4.64309 4.25735,6.2955 "/>
    <polygon id="_422885616" class="fil21" points="4.25735,6.2955 4.25735,6.2955 2.79068,4.64309 4.35036,4.32486 "/>
    <path id="_422885280" class="fil26" d="M3.65281 6.71465l-0.0255039 -0.0519291 0.630047 -0.367217 -0.0382047 0.32885c-0.18322,0.0458268 -0.372453,0.0764291 -0.566339,0.0902953z"/>
    <polygon id="_422885520" class="fil17" points="2.79068,4.64309 3.48275,3.73742 4.35036,4.32486 "/>
    <path id="_422885784" class="fil15" d="M4.00946 1.4362l0 0 -0.485449 -0.954858 1.3559 -0.0359291c0.0928543,0.0459724 0.183244,0.0961417 0.270913,0.150315l-1.14137 0.840472z"/>
    <polygon id="_422885688" class="fil22" points="4.25735,6.2955 4.35036,4.32486 5.3211,4.96137 "/>
    <path id="_422885832" class="fil1" d="M3.52402 0.481339l0 0 -1.09017 -0.230638c0.043185,-0.0133583 0.0867992,-0.0257165 0.130717,-0.0373386l2.18331 0.170264c0.0445433,0.0196496 0.0885551,0.0402559 0.132043,0.0617835l-1.3559 0.0359291z"/>
    <path id="_422885376" class="fil27" d="M5.77484 5.73237l-0.453736 -0.771004 0.671315 -0.73435 0.0963543 1.13518c-0.0956063,0.131 -0.200547,0.254724 -0.313933,0.370173z"/>
    <polygon id="_422885352" class="fil28" points="5.3211,4.96137 5.3211,4.96137 4.35036,4.32486 5.99242,4.22702 "/>
    <path id="_422884560" class="fil2" d="M5.99242 4.22702l-1.32195 -1.60355 1.41273 -1.16665c0.0535512,0.0729528 0.104217,0.148142 0.151768,0.225465l-0.242543 2.54474z"/>
    <path id="_422884320" class="fil16" d="M4.67046 2.62346l0.620504 -1.93613c0.305094,0.210547 0.573051,0.470965 0.792224,0.76948l-1.41273 1.16665z"/>
    <path id="_422885040" class="fil24" d="M4.9598 6.34034l-0.702445 -0.0448386 1.06375 -1.33414 0.453736 0.771004c-0.237807,0.242094 -0.512496,0.447787 -0.815043,0.607972z"/>
    <polygon id="_422884536" class="fil10" points="4.35036,4.32486 4.67046,2.62346 5.99242,4.22702 "/>
    <path id="_422884728" class="fil29" d="M4.21915 6.62435l0.0382047 -0.32885 0.702445 0.0448386c-0.231933,0.122783 -0.480146,0.218843 -0.74065,0.284012z"/>
    <path id="_422884872" class="fil30" d="M3.92407 0.142563l-1.13726 0.0202362c0.202898,-0.038874 0.412287,-0.0594764 0.62652,-0.0594764 0.173705,0 0.344256,0.0134567 0.510736,0.0392402z"/>
    <path id="_422884608" class="fil1" d="M4.74787 0.383626l-2.18331 -0.170264c0.0731181,-0.0193425 0.147244,-0.0361732 0.222244,-0.050563l1.13726 -0.0202362c0.288614,0.0447717 0.564886,0.126846 0.823807,0.241063z"/>
    <path id="_422884704" class="fil31" d="M5.99242 4.22702l0.242543 -2.54474c0.303177,0.493126 0.480571,1.07176 0.487874,1.69135l-0.730417 0.85339z"/>
    <path id="_422884848" class="fil32" d="M5.99242 4.22702l0.730417 -0.85339c0.000153543,0.0132362 0.000503937,0.0264291 0.000503937,0.0397047 0,0.224563 -0.0224803,0.443858 -0.0651024,0.65587l-0.665819 0.157815z"/>
    <path id="_422884800" class="fil19" d="M6.08877 5.3622l-0.0963543 -1.13518 0.487413 0.434063c-0.102067,0.250465 -0.233831,0.485642 -0.391059,0.701118z"/>
    <path id="_422883696" class="fil18" d="M6.47983 4.66108l-0.487413 -0.434063 0.665819 -0.157815c-0.0412244,0.204756 -0.101335,0.402665 -0.178406,0.591878z"/>
   </g>
   <path id="_422884152" class="fil33" d="M3.41333 0c0.942551,0 1.79589,0.382055 2.41358,0.999752 0.617697,0.617693 0.999752,1.47103 0.999752,2.41358 0,0.942551 -0.382055,1.79589 -0.999752,2.41358 -0.617693,0.617697 -1.47103,0.999752 -2.41358,0.999752 -0.942551,0 -1.79589,-0.382055 -2.41358,-0.999752 -0.617697,-0.617693 -0.999752,-1.47103 -0.999752,-2.41358 0,-0.942551 0.382055,-1.79589 0.999752,-2.41358 0.617693,-0.617697 1.47103,-0.999752 2.41358,-0.999752zm2.26731 1.14602c-0.580248,-0.580248 -1.38187,-0.939146 -2.26731,-0.939146 -0.885445,0 -1.68707,0.358898 -2.26731,0.939146 -0.580248,0.580248 -0.939146,1.38187 -0.939146,2.26731 0,0.885445 0.358898,1.68707 0.939146,2.26731 0.580248,0.580248 1.38187,0.939146 2.26731,0.939146 0.885445,0 1.68707,-0.358898 2.26731,-0.939146 0.580248,-0.580248 0.939146,-1.38187 0.939146,-2.26731 0,-0.885445 -0.358898,-1.68707 -0.939146,-2.26731z"/>
  </g>
  <g id="_422883192">
   <g>
    <path id="_422884176" class="fil33" d="M3.84198 1.89646c0.0106063,-0.0409331 -0.0139803,-0.0827205 -0.0549173,-0.0933268 -0.0409331,-0.0106024 -0.0827205,0.0139843 -0.0933268,0.0549173l-0.830016 3.16649c-0.0106063,0.0409331 0.0139803,0.0827205 0.0549173,0.0933268 0.0409331,0.0106024 0.0827205,-0.0139843 0.0933268,-0.0549173l0.830016 -3.16649z"/>
    <path id="_422884104" class="fil33" d="M3.76781 1.90584l1.58758 0.408512 -0.0189094 0.074122 0.0191457 -0.0744016c0.0410906,0.0105748 0.0658268,0.0524567 0.0552559,0.0935472 -0.000389764,0.00151181 -0.000826772,0.003 -0.00129921,0.0044685l-0.189925 0.707705 -0.074122 -0.0198071 0.0741969 0.0199134c-0.0109961,0.0409803 -0.0531339,0.0652835 -0.0941102,0.0542874 -0.0024252,-0.000649606 -0.0047874,-0.00141732 -0.00709055,-0.00227953l-1.56715 -0.46387 0.0216063 -0.0735197 -0.0218031 0.0736614c-0.0406811,-0.0120433 -0.0639016,-0.0547874 -0.0518583,-0.0954685 0.000409449,-0.00138189 0.000858268,-0.00274409 0.00133858,-0.00408661l0.167094 -0.649374 0.074122 0.0189055 -0.0744016 -0.0191417c0.0105748,-0.0410906 0.0524567,-0.0658307 0.0935433,-0.0552559 0.00231496,0.000594488 0.00457087,0.00129528 0.00677953,0.00208268zm1.47454 0.537398l-1.44544 -0.371937 -0.131406 0.510681 1.42631 0.422185 0.150535 -0.560929z"/>
    <path id="_422884248" class="fil34" d="M4.85743 2.33019l0.352173 0.364626 0.0687835 -0.256307 -0.420957 -0.108319zm-1.22797 0.253402l0.662 0.195953 -0.573768 -0.538843 -0.0882323 0.34289zm0.111016 -0.431425l0.721921 0.677972 0.10435 0.0308898 -0.812366 -0.762913 -0.0139055 0.0540512zm0.0992362 -0.0838543l0.888571 0.834484c0.00257874,0.00242913 0.00476378,0.00511811 0.00655512,0.00798819l0.386134 0.114295 0.0644134 -0.240012 -0.476177 -0.49302 -0.869496 -0.223736zm0.542516 0.378177l0.0443898 -0.0695709 -0.052689 -0.0635157 0.0798819 0.0207205 0.044122 -0.0697402 0.00498031 0.082374 0.0799646 0.0204134 -0.0768071 0.0301929 0.00529528 0.0823583 -0.0524488 -0.0637165 -0.076689 0.0304843zm0.186335 0.102992l-0.0526929 -0.0635118 0.0798819 0.0207165 0.044122 -0.0697402 0.00498031 0.082378 0.0799646 0.0204094 -0.0768071 0.0301929 0.00529921 0.0823583 -0.0524528 -0.0637165 -0.076689 0.0304882 0.0443937 -0.0695748zm0.167016 0.126287l0.044122 -0.0697402 0.00498031 0.082374 0.0799606 0.0204134 -0.0768031 0.0301929 0.00529528 0.0823583 -0.0524488 -0.0637165 -0.076689 0.0304843 0.0443937 -0.0695709 -0.0526969 -0.0635157 0.0798858 0.0207205z"/>
    <circle id="_422883672" class="fil34" transform="matrix(0.76811 0.0930627 -0.0756468 0.624364 3.78285 1.80292)" r="0.152996"/>
   </g>
   <g>
    <path id="_422883000" class="fil33" d="M2.98467 1.89646c-0.0106063,-0.0409331 0.0139803,-0.0827205 0.0549173,-0.0933268 0.040937,-0.0106024 0.0827205,0.0139843 0.0933268,0.0549173l0.83002 3.16649c0.0106024,0.0409331 -0.0139843,0.0827205 -0.0549173,0.0933268 -0.040937,0.0106024 -0.0827244,-0.0139843 -0.0933268,-0.0549173l-0.83002 -3.16649z"/>
    <path id="_422883312" class="fil33" d="M3.05885 1.90584l-1.58758 0.408512 0.0189055 0.074122 -0.0191457 -0.0744016c-0.0410866,0.0105748 -0.0658268,0.0524567 -0.0552559,0.0935472 0.000389764,0.00151181 0.000830709,0.003 0.00129921,0.0044685l0.189925 0.707705 0.074122 -0.0198071 -0.0741969 0.0199134c0.0109961,0.0409803 0.0531339,0.0652835 0.0941102,0.0542874 0.0024252,-0.000649606 0.0047874,-0.00141732 0.00709449,-0.00227953l1.56714 -0.46387 -0.0216063 -0.0735197 0.0218071 0.0736614c0.0406811,-0.0120433 0.0638976,-0.0547874 0.0518583,-0.0954685 -0.000413386,-0.00138189 -0.000862205,-0.00274409 -0.00133858,-0.00408661l-0.167094 -0.649374 -0.074122 0.0189055 0.0743976 -0.0191417c-0.0105709,-0.0410906 -0.0524567,-0.0658307 -0.0935433,-0.0552559 -0.00231496,0.000594488 -0.00457087,0.00129528 -0.00677559,0.00208268zm-1.47454 0.537398l1.44544 -0.371937 0.131406 0.510681 -1.42631 0.422185 -0.150535 -0.560929z"/>
    <path id="_422882928" class="fil34" d="M1.96922 2.33019l-0.352173 0.364626 -0.0687835 -0.256307 0.420957 -0.108319zm1.22797 0.253402l-0.661996 0.195953 0.573764 -0.538843 0.0882323 0.34289zm-0.111016 -0.431425l-0.721917 0.677972 -0.10435 0.0308898 0.812362 -0.762913 0.0139055 0.0540512zm-0.0992323 -0.0838543l-0.888571 0.834484c-0.00257874,0.00242913 -0.00476772,0.00511811 -0.00655512,0.00798819l-0.386138 0.114295 -0.0644094 -0.240012 0.476173 -0.49302 0.8695 -0.223736zm-0.54252 0.378177l-0.0443898 -0.0695709 0.0526929 -0.0635157 -0.0798819 0.0207205 -0.044126 -0.0697402 -0.00498031 0.082374 -0.0799606 0.0204134 0.0768031 0.0301929 -0.00529528 0.0823583 0.0524488 -0.0637165 0.076689 0.0304843zm-0.186331 0.102992l0.0526929 -0.0635118 -0.0798858 0.0207165 -0.044122 -0.0697402 -0.00498031 0.082378 -0.0799646 0.0204094 0.076811 0.0301929 -0.00529921 0.0823583 0.0524488 -0.0637165 0.076689 0.0304882 -0.0443898 -0.0695748zm-0.16702 0.126287l-0.044122 -0.0697402 -0.00498031 0.082374 -0.0799606 0.0204134 0.0768031 0.0301929 -0.00529528 0.0823583 0.0524488 -0.0637165 0.076689 0.0304843 -0.0443898 -0.0695709 0.0526929 -0.0635157 -0.0798858 0.0207205z"/>
    <circle id="_422883264" class="fil34" transform="matrix(-0.76811 0.0930627 0.0756468 0.624364 3.0438 1.80292)" r="0.152996"/>
   </g>
  </g>
 </g>
</svg>
