<?xml version="1.0" encoding="UTF-8"?>
<!DOCTYPE svg PUBLIC "-//W3C//DTD SVG 1.1//EN" "http://www.w3.org/Graphics/SVG/1.1/DTD/svg11.dtd">
<!-- Creator: CorelDRAW -->
<svg xmlns="http://www.w3.org/2000/svg" xml:space="preserve" width="6.82666in" height="6.82666in" style="shape-rendering:geometricPrecision; text-rendering:geometricPrecision; image-rendering:optimizeQuality; fill-rule:evenodd; clip-rule:evenodd"
viewBox="0 0 6.82666 6.82666"
 xmlns:xlink="http://www.w3.org/1999/xlink">
 <defs>
  <style type="text/css">
   <![CDATA[
    .fil38 {fill:#7D7942}
    .fil0 {fill:#CFCB88}
    .fil34 {fill:#D5CE6E}
    .fil1 {fill:#D8D277}
    .fil7 {fill:#D9D37A}
    .fil22 {fill:#DAD37C}
    .fil16 {fill:#DBD580}
    .fil29 {fill:#DBD581}
    .fil25 {fill:#DDD786}
    .fil8 {fill:#DDD889}
    .fil17 {fill:#DFDA8E}
    .fil15 {fill:#E0DB91}
    .fil9 {fill:#E0DB93}
    .fil3 {fill:#E3DD99}
    .fil13 {fill:#E4DF9E}
    .fil35 {fill:#E4DF9F}
    .fil6 {fill:#E4E0A1}
    .fil2 {fill:#E4E0A2}
    .fil32 {fill:#E5E0A4}
    .fil36 {fill:#E5E1A5}
    .fil21 {fill:#E5E2A6}
    .fil14 {fill:#E7E3AB}
    .fil11 {fill:#E8E4AC}
    .fil10 {fill:#EAE5B4}
    .fil19 {fill:#EAE6B5}
    .fil12 {fill:#EBE7B6}
    .fil5 {fill:#EBE7B7}
    .fil18 {fill:#ECE8BB}
    .fil31 {fill:#ECE9BD}
    .fil4 {fill:#EDEABE}
    .fil20 {fill:#EDEBC1}
    .fil23 {fill:#EDEBC3}
    .fil30 {fill:#EEECC5}
    .fil24 {fill:#EFECC5}
    .fil27 {fill:#EFECC8}
    .fil26 {fill:#F1EFCE}
    .fil28 {fill:#F2EFD1}
    .fil33 {fill:#F3F2D6}
    .fil37 {fill:#7D7942;fill-rule:nonzero}
   ]]>
  </style>
 </defs>
 <g id="Layer_x0020_1">
  <metadata id="CorelCorpID_0Corel-Layer"/>
  <g id="_421298264">
   <path id="_446792288" class="fil0" d="M3.41333 0.103323c1.82806,0 3.31001,1.48194 3.31001,3.31001 0,1.82806 -1.48195,3.31001 -3.31001,3.31001 -1.82806,0 -3.31001,-1.48195 -3.31001,-3.31001 0,-1.82806 1.48194,-3.31001 3.31001,-3.31001z"/>
   <g>
    <path id="_446792312" class="fil1" d="M0.848079 1.34933l-0.00881102 -0.0167598c0.00751969,-0.00929134 0.0149488,-0.0186575 0.0225669,-0.0278661l-0.0137559 0.044626z"/>
    <path id="_421288616" class="fil2" d="M0.103453 3.42369l0.0734646 0.129012 -0.0561299 0.202335c-0.0111772,-0.108965 -0.0169921,-0.219512 -0.0173346,-0.331346z"/>
    <path id="_421283120" class="fil3" d="M0.176917 3.5527l-0.0734646 -0.129012c-1.1811e-005,-0.00346063 -0.000129921,-0.0068937 -0.000129921,-0.0103543 0,-0.0520394 0.00135433,-0.103764 0.00373228,-0.155217l0.0698622 0.294583z"/>
    <path id="_421300736" class="fil4" d="M1.18754 5.86326l0.776169 -0.143953 -0.0895512 0.624886c-0.249307,-0.131201 -0.479957,-0.293071 -0.686618,-0.480933z"/>
    <path id="_421293200" class="fil5" d="M0.877634 5.54064l0.569551 -2.23282 0.516528 2.41149 -0.776169 0.143953c-0.110425,-0.100394 -0.213882,-0.20828 -0.309909,-0.322618z"/>
    <path id="_421287008" class="fil6" d="M1.44719 3.30781l-1.24757 -0.689268c0.019374,-0.0785906 0.0415472,-0.156071 0.0664213,-0.232339l1.25348 -0.277941 -0.0723386 1.19955z"/>
    <path id="_421282352" class="fil7" d="M0.839268 1.33257l0.00881102 0.0167598 -0.0252992 0.0037126c0.00546063,-0.00685827 0.0109764,-0.0136614 0.0164882,-0.0204724z"/>
    <path id="_421309472" class="fil8" d="M0.82278 1.35304l0.0252992 -0.0037126 -0.184791 0.221449c0.0502323,-0.074811 0.103488,-0.147413 0.159492,-0.217736z"/>
    <path id="_421306328" class="fil9" d="M0.663287 1.57078l0.184791 -0.221449 0.671445 0.758937 -1.25348 0.277941c0.0951614,-0.291689 0.229555,-0.565642 0.397248,-0.815429z"/>
    <path id="_421303304" class="fil2" d="M0.176917 3.5527l0 0 -0.0698622 -0.294583c0.0101339,-0.219465 0.0417244,-0.433295 0.092563,-0.639567l1.24757 0.689268 -1.27027 0.244882z"/>
    <path id="_421301024" class="fil10" d="M0.206886 4.23791l1.2403 -0.930098 -0.569551 2.23282c-0.31335,-0.373118 -0.546012,-0.816256 -0.670748,-1.30272z"/>
    <path id="_421300904" class="fil11" d="M0.120787 3.75503l0.0561299 -0.202335 1.27027 -0.244882 -1.2403 0.930098c-0.0401969,-0.156776 -0.0691929,-0.318035 -0.0860984,-0.482882z"/>
    <polygon id="_421301552" class="fil12" points="2.78979,4.64205 1.44719,3.30781 2.33528,3.05075 "/>
    <polygon id="_421301480" class="fil13" points="2.33528,3.05075 1.51952,2.10827 2.08768,1.12898 "/>
    <polygon id="_421300880" class="fil14" points="1.44719,3.30781 1.51952,2.10827 2.33528,3.05075 "/>
    <path id="_421301192" class="fil15" d="M4.66959 2.62236l-0.660965 -1.18732 1.14093 -0.840106c0.0476299,0.0294055 0.094437,0.06 0.140425,0.0917126l-0.620386 1.93572z"/>
    <path id="_421301528" class="fil16" d="M0.848079 1.34933l0.0137559 -0.044626c0.16637,-0.201083 0.356071,-0.38213 0.564921,-0.539087l0.660921 0.363366 -1.2396 0.220346z"/>
    <polygon id="_421301240" class="fil17" points="1.51952,2.10827 1.51952,2.10827 0.848079,1.34933 2.08768,1.12898 "/>
    <path id="_421300976" class="fil7" d="M2.08768 1.12898l-0.660921 -0.363366c0.201039,-0.151079 0.419906,-0.279642 0.652768,-0.382315l0.00815354 0.745681z"/>
    <polygon id="_421301312" class="fil18" points="1.96371,5.7193 1.96371,5.7193 1.44719,3.30781 2.78979,4.64205 "/>
    <polygon id="_421300688" class="fil19" points="4.34949,4.32378 3.48191,3.73625 4.66959,2.62236 "/>
    <path id="_421300256" class="fil20" d="M1.87416 6.34419l0.0895512 -0.624886 0.602126 0.894343c-0.242579,-0.064126 -0.47426,-0.155039 -0.691677,-0.269457z"/>
    <polygon id="_421300136" class="fil21" points="3.48191,3.73625 4.00863,1.43504 4.66959,2.62236 "/>
    <path id="_421300208" class="fil22" d="M2.08768 1.12898l0 0 -0.00815354 -0.745681c0.115528,-0.0509291 0.234453,-0.0955512 0.356441,-0.133228l1.08721 0.230091 -1.4355 0.648819z"/>
    <polygon id="_421300280" class="fil5" points="2.78979,4.64205 2.78979,4.64205 2.33528,3.05075 3.48191,3.73625 "/>
    <polygon id="_421300592" class="fil23" points="3.62646,6.6617 1.96371,5.7193 2.78979,4.64205 "/>
    <path id="_421300520" class="fil24" d="M2.56584 6.61365l-0.602126 -0.894343 1.66275 0.942402 -0.117366 0.0601575c-0.0318189,0.000901575 -0.0637244,0.00147638 -0.0957638,0.00147638 -0.292969,0 -0.576976,-0.0382441 -0.847492,-0.109693z"/>
    <polygon id="_421300472" class="fil14" points="3.48191,3.73625 3.48191,3.73625 2.33528,3.05075 4.00863,1.43504 "/>
    <polygon id="_421300184" class="fil3" points="2.33528,3.05075 2.33528,3.05075 2.08768,1.12898 4.00863,1.43504 "/>
    <polygon id="_421300616" class="fil25" points="4.00863,1.43504 2.08768,1.12898 3.52317,0.480165 "/>
    <path id="_421300400" class="fil26" d="M3.50909 6.72186l0.117366 -0.0601575 0.0260157 0.0529646c-0.0475315,0.0033937 -0.0953189,0.00582677 -0.143382,0.00719291z"/>
    <polygon id="_421299560" class="fil27" points="3.62646,6.6617 3.62646,6.6617 2.78979,4.64205 4.25652,6.29448 "/>
    <polygon id="_421299536" class="fil23" points="4.25652,6.29448 4.25652,6.29448 2.78979,4.64205 4.34949,4.32378 "/>
    <path id="_421299368" class="fil28" d="M3.65248 6.71467l-0.0260157 -0.0529646 0.630055 -0.36722 -0.0383543 0.33011c-0.183016,0.0457205 -0.372028,0.0762441 -0.565685,0.0900748z"/>
    <polygon id="_421299584" class="fil18" points="2.78979,4.64205 3.48191,3.73625 4.34949,4.32378 "/>
    <path id="_421299464" class="fil29" d="M4.00863 1.43504l0 0 -0.485457 -0.95487 1.35457 -0.0358346c0.0931654,0.0460394 0.183858,0.0962992 0.271811,0.150598l-1.14093 0.840106z"/>
    <polygon id="_421299776" class="fil24" points="4.25652,6.29448 4.34949,4.32378 5.32024,4.96033 "/>
    <path id="_421299656" class="fil1" d="M3.52317 0.480165l0 0 -1.08721 -0.230091c0.0436024,-0.0134567 0.087626,-0.0259409 0.131976,-0.037626l2.17698 0.16989c0.0448031,0.0197126 0.0890827,0.0403819 0.132819,0.0619921l-1.35457 0.0358346z"/>
    <path id="_421299872" class="fil30" d="M5.77469 5.73252l-0.454449 -0.772193 0.671323 -0.734362 0.0965276 1.13717c-0.0954646,0.130713 -0.200232,0.254173 -0.313402,0.36939z"/>
    <polygon id="_421299848" class="fil31" points="5.32024,4.96033 5.32024,4.96033 4.34949,4.32378 5.99156,4.22597 "/>
    <path id="_421299920" class="fil32" d="M5.99156 4.22597l-1.32197 -1.60361 1.41275 -1.16671c0.0535551,0.0728937 0.104217,0.148028 0.15178,0.225291l-0.242563 2.54503z"/>
    <path id="_421299056" class="fil17" d="M4.66959 2.62236l0.620386 -1.93572c0.305114,0.210398 0.573114,0.470654 0.792366,0.769008l-1.41275 1.16671z"/>
    <path id="_421298984" class="fil26" d="M4.96145 6.33947l-0.704937 -0.0449843 1.06372 -1.33415 0.454449 0.772193c-0.237339,0.241587 -0.511406,0.446921 -0.813236,0.606945z"/>
    <polygon id="_421298936" class="fil10" points="4.34949,4.32378 4.66959,2.62236 5.99156,4.22597 "/>
    <path id="_421299272" class="fil33" d="M4.21816 6.62459l0.0383543 -0.33011 0.704937 0.0449843c-0.232697,0.123354 -0.481811,0.219799 -0.743291,0.285126z"/>
    <path id="_421299224" class="fil34" d="M3.91747 0.141472l-1.12347 0.0199528c0.200654,-0.0379882 0.407634,-0.0581024 0.619335,-0.0581024 0.171402,0 0.339756,0.0130276 0.504138,0.0381496z"/>
    <path id="_421298720" class="fil1" d="M4.74493 0.382339l-2.17698 -0.16989c0.0743543,-0.0195866 0.149756,-0.0365591 0.226055,-0.0510236l1.12347 -0.0199528c0.289917,0.0443701 0.567406,0.126453 0.827457,0.240866z"/>
    <path id="_421298888" class="fil35" d="M5.99156 4.22597l0.242563 -2.54503c0.303346,0.492878 0.481012,1.07126 0.488685,1.69063l-0.731248 0.854394z"/>
    <path id="_421298576" class="fil36" d="M5.99156 4.22597l0.731248 -0.854394c0.000173228,0.0139213 0.000527559,0.0277953 0.000527559,0.0417559 0,0.224094 -0.0223976,0.442941 -0.0648465,0.654539l-0.666929 0.158098z"/>
    <path id="_421299176" class="fil20" d="M6.08809 5.36313l-0.0965276 -1.13717 0.488354 0.434894c-0.102224,0.250913 -0.234252,0.48648 -0.391827,0.702272z"/>
    <path id="_421298552" class="fil19" d="M6.47992 4.66086l-0.488354 -0.434894 0.666929 -0.158098c-0.0412126,0.205154 -0.101382,0.403433 -0.178575,0.592992z"/>
   </g>
   <path id="_421298072" class="fil37" d="M3.41333 0c0.942551,0 1.79589,0.382055 2.41358,0.999752 0.617697,0.617693 0.999752,1.47103 0.999752,2.41358 0,0.942551 -0.382055,1.79589 -0.999752,2.41358 -0.617693,0.617697 -1.47103,0.999752 -2.41358,0.999752 -0.942551,0 -1.79589,-0.382055 -2.41358,-0.999752 -0.617697,-0.617693 -0.999752,-1.47103 -0.999752,-2.41358 0,-0.942551 0.382055,-1.79589 0.999752,-2.41358 0.617693,-0.617697 1.47103,-0.999752 2.41358,-0.999752zm2.26731 1.14602c-0.580248,-0.580248 -1.38187,-0.939146 -2.26731,-0.939146 -0.885445,0 -1.68707,0.358898 -2.26731,0.939146 -0.580248,0.580248 -0.939146,1.38187 -0.939146,2.26731 0,0.885445 0.358898,1.68707 0.939146,2.26731 0.580248,0.580248 1.38187,0.939146 2.26731,0.939146 0.885445,0 1.68707,-0.358898 2.26731,-0.939146 0.580248,-0.580248 0.939146,-1.38187 0.939146,-2.26731 0,-0.885445 -0.358898,-1.68707 -0.939146,-2.26731z"/>
  </g>
  <g id="_421297352">
   <path id="_421297928" class="fil37" d="M3.48599 2.01231c0,-0.040126 -0.0325315,-0.0726535 -0.0726575,-0.0726535 -0.040126,0 -0.0726575,0.0325276 -0.0726575,0.0726535l0.000133858 3.12461c0,0.040126 0.0325315,0.0726535 0.0726535,0.0726535 0.040126,0 0.0725276,-0.0594921 0.0725276,-0.0996142l0 -3.09765z"/>
   <path id="_421298504" class="fil38" d="M2.73453 5.20083c0.163469,0 0.373744,-0.0207087 0.430965,-0.211453l0.0948228 0c0,-0.130902 0.111421,-0.0930236 0.111421,-0.0891339l0.0834449 0c0,-0.00388976 0.111417,-0.0417677 0.111417,0.0891339l0.0948268 0c0.0572205,0.190744 0.267496,0.211453 0.430965,0.211453l0 0.0967205 -1.35786 0 0 -0.0967205z"/>
   <path id="_421298288" class="fil38" d="M3.38779 1.83159c-0.0244409,-0.0274606 -0.0386181,-0.0504331 -0.0386181,-0.0990039 0,-0.063685 0.024374,-0.159984 0.0642913,-0.203476 0.0399213,0.0434921 0.0642953,0.139791 0.0642953,0.203476 0,0.0485709 -0.0141772,0.0715433 -0.0386181,0.0990039 0.0502756,0.0102874 0.0776142,0.0315039 0.0776142,0.0661575 0,0.0346535 -0.046248,0.0709528 -0.103291,0.0709528 -0.0570433,0 -0.103291,-0.0362992 -0.103291,-0.0709528 0,-0.0346535 0.0273425,-0.0558701 0.0776181,-0.0661575z"/>
   <g>
    <g>
     <path id="_421298336" class="fil37" d="M2.01013 2.34927c0.232087,0.072378 0.552201,-0.123965 1.34359,-0.119626 0.0393425,-0.00705118 0.0655157,-0.107106 0.0584646,-0.146445 -0.00705512,-0.0393425 -0.0418307,-0.0697756 -0.0811693,-0.0627205 -0.730343,0.00733465 -0.965492,0.360858 -1.2772,0.203681 -0.129953,-0.0655354 -0.164772,0.0904016 -0.043689,0.12511z"/>
     <path id="_421297808" class="fil37" d="M2.14816 2.27695c-0.00626772,-0.0189646 -0.0267283,-0.0292598 -0.0456929,-0.0229921 -0.0189646,0.00626772 -0.0292559,0.0267283 -0.0229882,0.0456929l0.635724 1.90718c0.00626378,0.0189646 0.0267244,0.0292559 0.045689,0.0229921 0.0189646,-0.00626772 0.0292598,-0.0267283 0.0229921,-0.0456929l-0.635724 -1.90718z"/>
     <path id="_421297688" class="fil37" d="M2.14816 2.29965c0.00626772,-0.0189646 -0.00402362,-0.0394252 -0.0229882,-0.0456929 -0.0189646,-0.00626772 -0.0394252,0.00402756 -0.0456929,0.0229921l-0.635724 1.90718c-0.00626772,0.0189646 0.00402756,0.0394252 0.0229882,0.0456929 0.0189646,0.00626378 0.0394291,-0.00402756 0.0456929,-0.0229921l0.635724 -1.90718z"/>
    </g>
    <g>
     <path id="_421297664" class="fil37" d="M2.57431 4.68322c-0.123862,0.106319 -0.284752,0.170571 -0.4605,0.170571 -0.175504,0 -0.33622,-0.0640945 -0.460047,-0.170185 -0.124807,-0.106929 -0.211969,-0.256551 -0.23885,-0.426217 -0.000204724,-0.00105512 -0.000393701,-0.00212205 -0.000555118,-0.00319685l7.87402e-006 0c-0.000681102,-0.00399606 -0.00103937,-0.00810236 -0.00103937,-0.0122913 0,-0.040126 0.0325315,-0.0726575 0.0726575,-0.0726575l1.25452 0c0.00368504,-5.11811e-005 0.00741732,0.000173228 0.0111772,0.00069685 0.0397402,0.00554331 0.0674606,0.0422598 0.0619173,0.082l-7.87402e-006 0 -0.000169291 0.00121654 -4.33071e-005 -1.1811e-005c-0.0260197,0.171146 -0.113425,0.32222 -0.239067,0.430075z"/>
     <path id="_421297160" class="fil37" d="M4.25235 4.68322c0.123862,0.106319 0.284752,0.170571 0.4605,0.170571 0.175504,0 0.33622,-0.0640945 0.460047,-0.170185 0.124807,-0.106929 0.211969,-0.256551 0.23885,-0.426217 0.000204724,-0.00105512 0.000393701,-0.00212205 0.000555118,-0.00319685l-7.87402e-006 0c0.000681102,-0.00399606 0.00103937,-0.00810236 0.00103937,-0.0122913 0,-0.040126 -0.0325315,-0.0726575 -0.0726575,-0.0726575l-1.25452 0c-0.00368504,-5.11811e-005 -0.00741732,0.000173228 -0.0111772,0.00069685 -0.0397402,0.00554331 -0.0674606,0.0422598 -0.0619173,0.082l7.87402e-006 0 0.000169291 0.00121654 4.33071e-005 -1.1811e-005c0.0260197,0.171146 0.113425,0.32222 0.239067,0.430075z"/>
     <g>
      <path id="_421297544" class="fil37" d="M4.81654 2.34927c-0.232087,0.072378 -0.552201,-0.123965 -1.34359,-0.119626 -0.0393425,-0.00705118 -0.0655157,-0.107106 -0.0584646,-0.146445 0.00705512,-0.0393425 0.0418307,-0.0697756 0.0811693,-0.0627205 0.730343,0.00733465 0.965492,0.360858 1.2772,0.203681 0.129953,-0.0655354 0.164772,0.0904016 0.043689,0.12511z"/>
      <path id="_421297520" class="fil37" d="M4.6785 2.27695c0.00626772,-0.0189646 0.0267283,-0.0292598 0.0456929,-0.0229921 0.0189646,0.00626772 0.0292559,0.0267283 0.0229882,0.0456929l-0.635724 1.90718c-0.00626378,0.0189646 -0.0267244,0.0292559 -0.045689,0.0229921 -0.0189646,-0.00626772 -0.0292598,-0.0267283 -0.0229921,-0.0456929l0.635724 -1.90718z"/>
      <path id="_421297448" class="fil37" d="M4.6785 2.29965c-0.00626772,-0.0189646 0.00402362,-0.0394252 0.0229882,-0.0456929 0.0189646,-0.00626772 0.0394252,0.00402756 0.0456929,0.0229921l0.635724 1.90718c0.00626772,0.0189646 -0.00402756,0.0394252 -0.0229882,0.0456929 -0.0189646,0.00626378 -0.0394291,-0.00402756 -0.0456929,-0.0229921l-0.635724 -1.90718z"/>
     </g>
    </g>
   </g>
  </g>
 </g>
</svg>
